M48
; DRILL file {KiCad (5.1.9)-1} date 09/16/21 08:02:47
; FORMAT={-:-/ absolute / inch / decimal}
; #@! TF.CreationDate,2021-09-16T08:02:47-07:00
; #@! TF.GenerationSoftware,Kicad,Pcbnew,(5.1.9)-1
; #@! TF.FileFunction,NonPlated,1,2,NPTH
FMAT,2
INCH
T1C0.0256
T2C0.0689
T3C0.1200
T4C0.1570
%
G90
G05
T1
X9.5425Y-0.5477
X9.77Y-0.5477
T2
X0.8313Y-1.0313
X0.8313Y-3.2813
X0.925Y-1.7813
X1.0188Y-2.5313
X1.1125Y-2.5313
X1.2313Y-1.0313
X1.2313Y-3.2813
X1.325Y-1.7813
X1.4188Y-2.5313
X1.5125Y-2.5313
X1.5813Y-1.0313
X1.5813Y-3.2813
X1.7688Y-1.7813
X1.9563Y-2.5313
X1.9813Y-1.0313
X1.9813Y-3.2813
X2.1438Y-2.5313
X2.1688Y-1.7813
X2.3313Y-1.0313
X2.3313Y-3.2813
X2.3563Y-2.5313
X2.425Y-3.2813
X2.5188Y-1.7813
X2.5438Y-2.5313
X2.7063Y-2.5313
X2.7313Y-1.0313
X2.7313Y-3.2813
X2.825Y-3.2813
X2.8938Y-2.5313
X2.9188Y-1.7813
X3.0813Y-1.0313
X3.0813Y-3.2813
X3.1063Y-2.5313
X3.2688Y-1.7813
X3.2938Y-2.5313
X3.4563Y-2.5313
X3.4813Y-1.0313
X3.4813Y-3.2813
X3.6438Y-2.5313
X3.6688Y-1.7813
X3.8313Y-1.0313
X3.8563Y-2.5313
X4.0188Y-3.2813
X4.0188Y-1.7813
X4.0438Y-2.5313
X4.2063Y-2.5313
X4.2313Y-1.0313
X4.3Y-3.2813
X4.3938Y-2.5313
X4.4188Y-3.2813
X4.4188Y-1.7813
X4.5813Y-1.0313
X4.6063Y-2.5313
X4.7Y-3.2813
X4.7688Y-1.7813
X4.7938Y-2.5313
X4.9563Y-2.5313
X4.9813Y-1.0313
X5.05Y-3.2813
X5.1438Y-2.5313
X5.1438Y-3.2813
X5.1688Y-1.7813
X5.3313Y-1.0313
X5.3563Y-2.5313
X5.45Y-3.2813
X5.5188Y-1.7813
X5.5438Y-2.5313
X5.5438Y-3.2813
X5.7063Y-2.5313
X5.7313Y-1.0313
X5.8938Y-2.5313
X5.8938Y-3.2813
X5.9188Y-1.7813
X6.0813Y-1.0313
X6.1063Y-2.5313
X6.2688Y-3.2813
X6.2688Y-1.7813
X6.2938Y-2.5313
X6.2938Y-3.2813
X6.4563Y-2.5313
X6.4813Y-1.0313
X6.6438Y-2.5313
X6.6688Y-3.2813
X6.6688Y-1.7813
X6.8313Y-1.0313
X6.8563Y-2.5313
X7.0188Y-1.7813
X7.0188Y-3.2813
X7.0438Y-2.5313
X7.2063Y-2.5313
X7.2313Y-1.0313
X7.3938Y-2.5313
X7.4188Y-1.7813
X7.4188Y-3.2813
X7.5813Y-1.0313
X7.6063Y-2.5313
X7.7688Y-1.7813
X7.7938Y-2.5313
X7.8625Y-3.2813
X7.9563Y-2.5313
X7.9813Y-1.0313
X8.1438Y-2.5313
X8.1688Y-1.7813
X8.2625Y-3.2813
X8.3313Y-1.0313
X8.3563Y-2.5313
X8.5188Y-1.7813
X8.5438Y-2.5313
X8.7063Y-2.5313
X8.7313Y-1.0313
X8.8Y-3.2813
X8.8938Y-2.5313
X8.9188Y-1.7813
X9.0813Y-1.0313
X9.1063Y-2.5313
X9.2Y-3.2813
X9.2688Y-1.7813
X9.2938Y-2.5313
X9.4813Y-1.0313
X9.6438Y-2.5313
X9.6688Y-1.7813
X9.7375Y-2.5313
X9.8313Y-1.0313
X9.8313Y-3.2813
X10.0438Y-2.5313
X10.1375Y-2.5313
X10.2313Y-1.0313
X10.2313Y-3.2813
X10.3Y-1.7813
X10.5813Y-1.0313
X10.5813Y-2.5313
X10.5813Y-3.2813
X10.7Y-1.7813
X10.9813Y-1.0313
X10.9813Y-2.5313
X10.9813Y-3.2813
X11.3313Y-3.2813
X11.7313Y-3.2813
T3
X3.2815Y-3.5563
X3.4688Y-3.5563
X3.4688Y-3.5563
X4.0313Y-3.5563
X4.9688Y-3.5563
X4.9688Y-3.5563
X5.625Y-3.5563
X5.7188Y-3.5563
X6.5625Y-3.5563
X7.2185Y-3.5563
X7.2188Y-3.5563
X7.2188Y-3.5563
T4
X1.0313Y-1.0313
X1.0313Y-3.2813
X1.125Y-1.7813
X1.2188Y-2.5313
X1.3125Y-2.5313
X1.7813Y-1.0313
X1.7813Y-3.2813
X1.9688Y-1.7813
X2.1563Y-2.5313
X2.3438Y-2.5313
X2.5313Y-1.0313
X2.5313Y-3.2813
X2.625Y-3.2813
X2.7188Y-1.7813
X2.9063Y-2.5313
X3.0938Y-2.5313
X3.2813Y-1.0313
X3.2813Y-3.2813
X3.2815Y-2.9563
X3.4688Y-2.9563
X3.4688Y-1.7813
X3.4688Y-2.9563
X3.6563Y-2.5313
X3.8438Y-2.5313
X4.0313Y-1.0313
X4.0313Y-2.9563
X4.2188Y-3.2813
X4.2188Y-1.7813
X4.4063Y-2.5313
X4.5Y-3.2813
X4.5938Y-2.5313
X4.7813Y-1.0313
X4.9688Y-2.9563
X4.9688Y-2.9563
X4.9688Y-1.7813
X5.1563Y-2.5313
X5.25Y-3.2813
X5.3438Y-2.5313
X5.3438Y-3.2813
X5.5313Y-1.0313
X5.625Y-2.9563
X5.7188Y-2.9563
X5.7188Y-1.7813
X5.9063Y-2.5313
X6.0938Y-2.5313
X6.0938Y-3.2813
X6.2813Y-1.0313
X6.4688Y-3.2813
X6.4688Y-1.7813
X6.5625Y-2.9563
X6.6563Y-2.5313
X6.8438Y-2.5313
X7.0313Y-1.0313
X7.2185Y-2.9563
X7.2188Y-2.9563
X7.2188Y-2.9563
X7.2188Y-1.7813
X7.2188Y-3.2813
X7.4063Y-2.5313
X7.5938Y-2.5313
X7.7813Y-1.0313
X7.9688Y-1.7813
X8.0625Y-3.2813
X8.1563Y-2.5313
X8.3438Y-2.5313
X8.5313Y-1.0313
X8.7188Y-1.7813
X8.9063Y-2.5313
X9.0Y-3.2813
X9.0938Y-2.5313
X9.2813Y-1.0313
X9.4688Y-1.7813
X9.8438Y-2.5313
X9.9375Y-2.5313
X10.0313Y-1.0313
X10.0313Y-3.2813
X10.5Y-1.7813
X10.7813Y-1.0313
X10.7813Y-2.5313
X10.7813Y-3.2813
X11.5313Y-3.2813
T0
M30
