%TF.GenerationSoftware,KiCad,Pcbnew,(5.1.9)-1*%
%TF.CreationDate,2021-09-16T08:02:45-07:00*%
%TF.ProjectId,letItSlide,6c657449-7453-46c6-9964-652e6b696361,rev?*%
%TF.SameCoordinates,Original*%
%TF.FileFunction,Legend,Top*%
%TF.FilePolarity,Positive*%
%FSLAX46Y46*%
G04 Gerber Fmt 4.6, Leading zero omitted, Abs format (unit mm)*
G04 Created by KiCad (PCBNEW (5.1.9)-1) date 2021-09-16 08:02:45*
%MOMM*%
%LPD*%
G01*
G04 APERTURE LIST*
%ADD10C,0.300000*%
%ADD11C,0.120000*%
G04 APERTURE END LIST*
D10*
X33771428Y-88703571D02*
X33057142Y-88703571D01*
X33057142Y-87203571D01*
X34842857Y-88632142D02*
X34700000Y-88703571D01*
X34414285Y-88703571D01*
X34271428Y-88632142D01*
X34200000Y-88489285D01*
X34200000Y-87917857D01*
X34271428Y-87775000D01*
X34414285Y-87703571D01*
X34700000Y-87703571D01*
X34842857Y-87775000D01*
X34914285Y-87917857D01*
X34914285Y-88060714D01*
X34200000Y-88203571D01*
X35342857Y-87703571D02*
X35914285Y-87703571D01*
X35557142Y-87203571D02*
X35557142Y-88489285D01*
X35628571Y-88632142D01*
X35771428Y-88703571D01*
X35914285Y-88703571D01*
X37557142Y-88703571D02*
X37557142Y-87203571D01*
X38057142Y-87703571D02*
X38628571Y-87703571D01*
X38271428Y-87203571D02*
X38271428Y-88489285D01*
X38342857Y-88632142D01*
X38485714Y-88703571D01*
X38628571Y-88703571D01*
X40200000Y-88632142D02*
X40414285Y-88703571D01*
X40771428Y-88703571D01*
X40914285Y-88632142D01*
X40985714Y-88560714D01*
X41057142Y-88417857D01*
X41057142Y-88275000D01*
X40985714Y-88132142D01*
X40914285Y-88060714D01*
X40771428Y-87989285D01*
X40485714Y-87917857D01*
X40342857Y-87846428D01*
X40271428Y-87775000D01*
X40200000Y-87632142D01*
X40200000Y-87489285D01*
X40271428Y-87346428D01*
X40342857Y-87275000D01*
X40485714Y-87203571D01*
X40842857Y-87203571D01*
X41057142Y-87275000D01*
X41914285Y-88703571D02*
X41771428Y-88632142D01*
X41700000Y-88489285D01*
X41700000Y-87203571D01*
X42485714Y-88703571D02*
X42485714Y-87703571D01*
X42485714Y-87203571D02*
X42414285Y-87275000D01*
X42485714Y-87346428D01*
X42557142Y-87275000D01*
X42485714Y-87203571D01*
X42485714Y-87346428D01*
X43842857Y-88703571D02*
X43842857Y-87203571D01*
X43842857Y-88632142D02*
X43700000Y-88703571D01*
X43414285Y-88703571D01*
X43271428Y-88632142D01*
X43200000Y-88560714D01*
X43128571Y-88417857D01*
X43128571Y-87989285D01*
X43200000Y-87846428D01*
X43271428Y-87775000D01*
X43414285Y-87703571D01*
X43700000Y-87703571D01*
X43842857Y-87775000D01*
X45128571Y-88632142D02*
X44985714Y-88703571D01*
X44700000Y-88703571D01*
X44557142Y-88632142D01*
X44485714Y-88489285D01*
X44485714Y-87917857D01*
X44557142Y-87775000D01*
X44700000Y-87703571D01*
X44985714Y-87703571D01*
X45128571Y-87775000D01*
X45200000Y-87917857D01*
X45200000Y-88060714D01*
X44485714Y-88203571D01*
X45842857Y-88560714D02*
X45914285Y-88632142D01*
X45842857Y-88703571D01*
X45771428Y-88632142D01*
X45842857Y-88560714D01*
X45842857Y-88703571D01*
X45842857Y-88132142D02*
X45771428Y-87275000D01*
X45842857Y-87203571D01*
X45914285Y-87275000D01*
X45842857Y-88132142D01*
X45842857Y-87203571D01*
X31807142Y-91253571D02*
X31807142Y-89753571D01*
X31807142Y-90325000D02*
X31950000Y-90253571D01*
X32235714Y-90253571D01*
X32378571Y-90325000D01*
X32450000Y-90396428D01*
X32521428Y-90539285D01*
X32521428Y-90967857D01*
X32450000Y-91110714D01*
X32378571Y-91182142D01*
X32235714Y-91253571D01*
X31950000Y-91253571D01*
X31807142Y-91182142D01*
X33021428Y-90253571D02*
X33378571Y-91253571D01*
X33735714Y-90253571D02*
X33378571Y-91253571D01*
X33235714Y-91610714D01*
X33164285Y-91682142D01*
X33021428Y-91753571D01*
X34307142Y-91110714D02*
X34378571Y-91182142D01*
X34307142Y-91253571D01*
X34235714Y-91182142D01*
X34307142Y-91110714D01*
X34307142Y-91253571D01*
X34307142Y-90325000D02*
X34378571Y-90396428D01*
X34307142Y-90467857D01*
X34235714Y-90396428D01*
X34307142Y-90325000D01*
X34307142Y-90467857D01*
X36164285Y-91253571D02*
X36164285Y-89753571D01*
X36521428Y-89753571D01*
X36735714Y-89825000D01*
X36878571Y-89967857D01*
X36950000Y-90110714D01*
X37021428Y-90396428D01*
X37021428Y-90610714D01*
X36950000Y-90896428D01*
X36878571Y-91039285D01*
X36735714Y-91182142D01*
X36521428Y-91253571D01*
X36164285Y-91253571D01*
X37664285Y-91253571D02*
X37664285Y-90253571D01*
X37664285Y-90539285D02*
X37735714Y-90396428D01*
X37807142Y-90325000D01*
X37950000Y-90253571D01*
X38092857Y-90253571D01*
X38592857Y-91110714D02*
X38664285Y-91182142D01*
X38592857Y-91253571D01*
X38521428Y-91182142D01*
X38592857Y-91110714D01*
X38592857Y-91253571D01*
X40450000Y-91253571D02*
X40450000Y-89753571D01*
X40450000Y-90467857D02*
X41307142Y-90467857D01*
X41307142Y-91253571D02*
X41307142Y-89753571D01*
X42021428Y-91253571D02*
X42021428Y-90253571D01*
X42021428Y-89753571D02*
X41950000Y-89825000D01*
X42021428Y-89896428D01*
X42092857Y-89825000D01*
X42021428Y-89753571D01*
X42021428Y-89896428D01*
X43378571Y-90253571D02*
X43378571Y-91467857D01*
X43307142Y-91610714D01*
X43235714Y-91682142D01*
X43092857Y-91753571D01*
X42878571Y-91753571D01*
X42735714Y-91682142D01*
X43378571Y-91182142D02*
X43235714Y-91253571D01*
X42950000Y-91253571D01*
X42807142Y-91182142D01*
X42735714Y-91110714D01*
X42664285Y-90967857D01*
X42664285Y-90539285D01*
X42735714Y-90396428D01*
X42807142Y-90325000D01*
X42950000Y-90253571D01*
X43235714Y-90253571D01*
X43378571Y-90325000D01*
X44021428Y-91182142D02*
X44164285Y-91253571D01*
X44450000Y-91253571D01*
X44592857Y-91182142D01*
X44664285Y-91039285D01*
X44664285Y-90967857D01*
X44592857Y-90825000D01*
X44450000Y-90753571D01*
X44235714Y-90753571D01*
X44092857Y-90682142D01*
X44021428Y-90539285D01*
X44021428Y-90467857D01*
X44092857Y-90325000D01*
X44235714Y-90253571D01*
X44450000Y-90253571D01*
X44592857Y-90325000D01*
X45307142Y-91253571D02*
X45307142Y-89753571D01*
X45307142Y-90325000D02*
X45450000Y-90253571D01*
X45735714Y-90253571D01*
X45878571Y-90325000D01*
X45950000Y-90396428D01*
X46021428Y-90539285D01*
X46021428Y-90967857D01*
X45950000Y-91110714D01*
X45878571Y-91182142D01*
X45735714Y-91253571D01*
X45450000Y-91253571D01*
X45307142Y-91182142D01*
X46521428Y-90253571D02*
X46878571Y-91253571D01*
X47235714Y-90253571D02*
X46878571Y-91253571D01*
X46735714Y-91610714D01*
X46664285Y-91682142D01*
X46521428Y-91753571D01*
D11*
%TO.C,SLIDE1*%
X292858057Y-22327500D02*
X293608057Y-23077500D01*
X292108057Y-23077500D02*
X292858057Y-22327500D01*
X291358057Y-22327500D02*
X294358057Y-22327500D01*
X292858057Y-67327500D02*
X293608057Y-66577500D01*
X292108057Y-66577500D02*
X292858057Y-67327500D01*
X291358057Y-67327500D02*
X294358057Y-67327500D01*
X292858057Y-67327500D02*
X292858057Y-22327500D01*
X291608057Y-75752500D02*
X291108057Y-75252500D01*
X290608057Y-75752500D02*
X291608057Y-75752500D01*
X291108057Y-75252500D02*
X290608057Y-75752500D01*
X291931057Y-14707500D02*
X297478057Y-14707500D01*
X288238057Y-14707500D02*
X290285057Y-14707500D01*
X295431057Y-74947500D02*
X297478057Y-74947500D01*
X292283057Y-74947500D02*
X293786057Y-74947500D01*
X288238057Y-74947500D02*
X289933057Y-74947500D01*
X297478057Y-18091500D02*
X297478057Y-14707500D01*
X297478057Y-68291500D02*
X297478057Y-21362500D01*
X297478057Y-74947500D02*
X297478057Y-71562500D01*
X288238057Y-19291500D02*
X288238057Y-14707500D01*
X288238057Y-67091500D02*
X288238057Y-22562500D01*
X288238057Y-74947500D02*
X288238057Y-70362500D01*
%TO.C,RE1*%
X276849700Y-26194392D02*
G75*
G03*
X276849700Y-26194392I-3000000J0D01*
G01*
X267949700Y-24194392D02*
X267949700Y-20094392D01*
X279749700Y-20094392D02*
X279749700Y-24194392D01*
X279749700Y-28194392D02*
X279749700Y-32294392D01*
X267949700Y-28194392D02*
X267949700Y-32294392D01*
X267949700Y-32294392D02*
X279749700Y-32294392D01*
X270049700Y-33694392D02*
X269749700Y-33994392D01*
X269749700Y-33994392D02*
X269749700Y-33394392D01*
X269749700Y-33394392D02*
X270049700Y-33694392D01*
X267949700Y-20094392D02*
X270349700Y-20094392D01*
X272549700Y-20094392D02*
X275149700Y-20094392D01*
X277349700Y-20094392D02*
X279749700Y-20094392D01*
X273349700Y-26194392D02*
X274349700Y-26194392D01*
X273849700Y-26694392D02*
X273849700Y-25694392D01*
%TD*%
M02*
