M48
; DRILL file {KiCad (5.1.9)-1} date 09/16/21 08:02:47
; FORMAT={-:-/ absolute / inch / decimal}
; #@! TF.CreationDate,2021-09-16T08:02:47-07:00
; #@! TF.GenerationSoftware,Kicad,Pcbnew,(5.1.9)-1
; #@! TF.FileFunction,Plated,1,2,PTH
FMAT,2
INCH
T1C0.0157
T2C0.0236
T3C0.0394
T4C0.0472
T5C0.0579
T6C0.0669
T7C0.1024
%
G90
G05
T1
X0.8813Y-1.2671
X1.6313Y-1.2959
X2.3813Y-1.3136
X3.1313Y-1.3313
X3.8813Y-1.349
X4.6313Y-1.3668
X5.3813Y-1.3864
X6.1313Y-1.4042
X8.9862Y-3.4583
X9.4921Y-0.772
X9.5669Y-0.7717
X9.6551Y-0.6862
X9.6555Y-0.8685
X9.6569Y-1.0879
X9.6654Y-1.2083
X9.7047Y-1.2083
X9.7165Y-2.0154
X9.7317Y-1.0886
X9.7469Y-0.7732
X9.7559Y-2.0154
X9.8228Y-0.6511
X10.152Y-1.9583
X10.152Y-2.0527
X10.2913Y-1.4774
X10.3183Y-1.4199
X10.4872Y-1.3012
X10.5157Y-1.2382
X10.5443Y-1.3012
X10.8848Y-2.1959
X10.9435Y-1.9876
X11.0Y-2.7362
X11.0039Y-2.1494
X11.0157Y-1.4705
X11.0276Y-2.5807
X11.0366Y-2.0494
X11.0571Y-2.7362
X11.0889Y-2.1017
X11.0903Y-1.2626
X11.1178Y-2.1306
X11.1456Y-2.1584
X11.1646Y-3.1669
X11.1654Y-3.1098
X11.1936Y-2.1864
X11.2421Y-1.474
X11.2815Y-1.474
X11.3209Y-1.474
X11.3602Y-1.474
X11.4215Y-2.1555
X11.5325Y-1.3917
X11.5576Y-2.1284
X11.561Y-0.7735
X11.5878Y-2.2315
X11.5884Y-2.3372
X11.5896Y-1.3917
X11.6551Y-1.5472
X11.6816Y-2.0044
X11.7094Y-1.9766
X11.7185Y-1.5843
X11.7193Y-1.9252
T3
X10.6831Y-0.7557
X10.6831Y-1.3266
X10.7815Y-1.3266
X10.8799Y-0.7557
X10.8799Y-1.3266
T4
X11.4609Y-0.6133
X11.4609Y-2.9164
X11.5987Y-2.9164
T5
X0.8813Y-0.9313
X0.8813Y-3.1813
X0.975Y-1.6813
X1.0688Y-2.4313
X1.1313Y-0.8313
X1.1313Y-3.0813
X1.1625Y-2.4313
X1.225Y-1.5813
X1.3188Y-2.3313
X1.4125Y-2.3313
X1.6313Y-0.9313
X1.6313Y-3.1813
X1.8188Y-1.6813
X1.8813Y-0.8313
X1.8813Y-3.0813
X2.0063Y-2.4313
X2.0688Y-1.5813
X2.1938Y-2.4313
X2.2563Y-2.3313
X2.3813Y-0.9313
X2.3813Y-3.1813
X2.4438Y-2.3313
X2.475Y-3.1813
X2.5688Y-1.6813
X2.6313Y-0.8313
X2.6313Y-3.0813
X2.725Y-3.0813
X2.7563Y-2.4313
X2.8188Y-1.5813
X2.9438Y-2.4313
X3.0063Y-2.3313
X3.1313Y-0.9313
X3.1313Y-3.1813
X3.1938Y-2.3313
X3.3188Y-1.6813
X3.3813Y-0.8313
X3.3813Y-3.0813
X3.5063Y-2.4313
X3.5688Y-1.5813
X3.6938Y-2.4313
X3.7563Y-2.3313
X3.8813Y-0.9313
X3.9438Y-2.3313
X4.0688Y-3.1813
X4.0688Y-1.6813
X4.1313Y-0.8313
X4.2563Y-2.4313
X4.3188Y-3.0813
X4.3188Y-1.5813
X4.35Y-3.1813
X4.4438Y-2.4313
X4.5063Y-2.3313
X4.6Y-3.0813
X4.6313Y-0.9313
X4.6938Y-2.3313
X4.8188Y-1.6813
X4.8813Y-0.8313
X5.0063Y-2.4313
X5.0688Y-1.5813
X5.1Y-3.1813
X5.1938Y-2.4313
X5.1938Y-3.1813
X5.2563Y-2.3313
X5.35Y-3.0813
X5.3813Y-0.9313
X5.4438Y-2.3313
X5.4438Y-3.0813
X5.5688Y-1.6813
X5.6313Y-0.8313
X5.7563Y-2.4313
X5.8188Y-1.5813
X5.9438Y-2.4313
X5.9438Y-3.1813
X6.0063Y-2.3313
X6.1313Y-0.9313
X6.1938Y-2.3313
X6.1938Y-3.0813
X6.3188Y-3.1813
X6.3188Y-1.6813
X6.3813Y-0.8313
X6.5063Y-2.4313
X6.5688Y-3.0813
X6.5688Y-1.5813
X6.6938Y-2.4313
X6.7563Y-2.3313
X6.8813Y-0.9313
X6.9438Y-2.3313
X7.0688Y-1.6813
X7.0688Y-3.1813
X7.1313Y-0.8313
X7.2563Y-2.4313
X7.3188Y-1.5813
X7.3188Y-3.0813
X7.4438Y-2.4313
X7.5063Y-2.3313
X7.6313Y-0.9313
X7.6938Y-2.3313
X7.8188Y-1.6813
X7.8813Y-0.8313
X7.9125Y-3.1813
X8.0063Y-2.4313
X8.0688Y-1.5813
X8.1625Y-3.0813
X8.1938Y-2.4313
X8.2563Y-2.3313
X8.3813Y-0.9313
X8.4438Y-2.3313
X8.5688Y-1.6813
X8.6313Y-0.8313
X8.7563Y-2.4313
X8.8188Y-1.5813
X8.85Y-3.1813
X8.9438Y-2.4313
X9.0063Y-2.3313
X9.1Y-3.0813
X9.1313Y-0.9313
X9.1938Y-2.3313
X9.3188Y-1.6813
X9.3813Y-0.8313
X9.5688Y-1.5813
X9.6938Y-2.4313
X9.7875Y-2.4313
X9.8813Y-0.9313
X9.8813Y-3.1813
X9.9438Y-2.3313
X10.0375Y-2.3313
X10.1313Y-0.8313
X10.1313Y-3.0813
X10.35Y-1.6813
X10.6Y-1.5813
X10.6313Y-0.9313
X10.6313Y-2.4313
X10.6313Y-3.1813
X10.8813Y-0.8313
X10.8813Y-2.3313
X10.8813Y-3.0813
X11.3813Y-3.1813
X11.6313Y-3.0813
T6
X11.3645Y-0.8239
X11.3645Y-2.7058
X11.6952Y-0.7767
X11.6952Y-2.7531
T7
X10.561Y-1.0313
X11.002Y-1.0313
T2
G00X9.4862Y-0.3922
M15
G01X9.4862Y-0.4158
M16
G05
G00X9.4862Y-0.5469
M15
G01X9.4862Y-0.5902
M16
G05
G00X9.8263Y-0.3922
M15
G01X9.8263Y-0.4158
M16
G05
G00X9.8263Y-0.5469
M15
G01X9.8263Y-0.5902
M16
G05
T0
M30
