%TF.GenerationSoftware,KiCad,Pcbnew,(5.1.9)-1*%
%TF.CreationDate,2021-09-16T08:02:45-07:00*%
%TF.ProjectId,letItSlide,6c657449-7453-46c6-9964-652e6b696361,rev?*%
%TF.SameCoordinates,Original*%
%TF.FileFunction,Soldermask,Top*%
%TF.FilePolarity,Negative*%
%FSLAX46Y46*%
G04 Gerber Fmt 4.6, Leading zero omitted, Abs format (unit mm)*
G04 Created by KiCad (PCBNEW (5.1.9)-1) date 2021-09-16 08:02:45*
%MOMM*%
%LPD*%
G01*
G04 APERTURE LIST*
%ADD10O,1.000000X2.100000*%
%ADD11C,0.650000*%
%ADD12O,1.000000X1.600000*%
%ADD13C,2.700000*%
%ADD14C,1.750000*%
%ADD15R,1.750000X1.750000*%
%ADD16R,2.000000X2.000000*%
%ADD17C,2.000000*%
%ADD18C,3.200000*%
%ADD19C,3.987800*%
%ADD20C,3.048000*%
G04 APERTURE END LIST*
D10*
%TO.C,USB1*%
X249588956Y-14440947D03*
X240948956Y-14440947D03*
D11*
X242378956Y-13910947D03*
D12*
X240948956Y-10260947D03*
D11*
X248158956Y-13910947D03*
D12*
X249588956Y-10260947D03*
%TD*%
D13*
%TO.C,SLIDE1*%
X297058057Y-19727500D03*
X297058057Y-69927500D03*
X288658057Y-20927500D03*
X288658057Y-68727500D03*
D14*
X291108057Y-15577500D03*
X294608057Y-74077500D03*
D15*
X291108057Y-74077500D03*
%TD*%
D16*
%TO.C,RE1*%
X271349700Y-33694392D03*
D17*
X273849700Y-33694392D03*
X276349700Y-33694392D03*
D18*
X268249700Y-26194392D03*
X279449700Y-26194392D03*
D17*
X271349700Y-19194392D03*
X276349700Y-19194392D03*
%TD*%
D19*
%TO.C,MX44-6u1*%
X183356820Y-75089100D03*
X88106820Y-75089100D03*
D20*
X183356820Y-90329100D03*
X88106820Y-90329100D03*
D14*
X140811820Y-83344100D03*
X130651820Y-83344100D03*
D19*
X135731820Y-83344100D03*
%TD*%
%TO.C,MX44-6.25u1*%
X133350560Y-83344100D03*
D14*
X128270560Y-83344100D03*
X138430560Y-83344100D03*
D20*
X83350660Y-90329100D03*
X183350460Y-90329100D03*
D19*
X83350660Y-75089100D03*
X183350460Y-75089100D03*
%TD*%
%TO.C,MX44-3u1*%
X107156340Y-83343820D03*
D14*
X102076340Y-83343820D03*
X112236340Y-83343820D03*
D20*
X88106340Y-90328820D03*
X126206340Y-90328820D03*
D19*
X88106340Y-75088820D03*
X126206340Y-75088820D03*
%TD*%
%TO.C,MX45-3u1*%
X164306388Y-83343820D03*
D14*
X159226388Y-83343820D03*
X169386388Y-83343820D03*
D20*
X145256388Y-90328820D03*
X183356388Y-90328820D03*
D19*
X145256388Y-75088820D03*
X183356388Y-75088820D03*
%TD*%
%TO.C,MX42-1.25u1*%
X66675280Y-83344100D03*
D14*
X61595280Y-83344100D03*
X71755280Y-83344100D03*
%TD*%
%TO.C,MX30*%
X102711661Y-64294020D03*
X92551661Y-64294020D03*
D19*
X97631661Y-64294020D03*
%TD*%
D14*
%TO.C,MX37*%
X236062220Y-64294020D03*
X225902220Y-64294020D03*
D19*
X230982220Y-64294020D03*
%TD*%
D14*
%TO.C,MX35*%
X197962060Y-64294020D03*
X187802060Y-64294020D03*
D19*
X192882060Y-64294020D03*
%TD*%
D14*
%TO.C,MX33*%
X159861900Y-64294020D03*
X149701900Y-64294020D03*
D19*
X154781900Y-64294020D03*
%TD*%
D14*
%TO.C,MX31*%
X121761740Y-64294020D03*
X111601740Y-64294020D03*
D19*
X116681740Y-64294020D03*
%TD*%
D14*
%TO.C,MX29*%
X83661580Y-64294020D03*
X73501580Y-64294020D03*
D19*
X78581580Y-64294020D03*
%TD*%
D14*
%TO.C,MX36*%
X217012140Y-64294020D03*
X206852140Y-64294020D03*
D19*
X211932140Y-64294020D03*
%TD*%
D14*
%TO.C,MX32*%
X140811820Y-64294020D03*
X130651820Y-64294020D03*
D19*
X135731820Y-64294020D03*
%TD*%
D14*
%TO.C,MX34*%
X178911981Y-64294020D03*
X168751981Y-64294020D03*
D19*
X173831981Y-64294020D03*
%TD*%
D14*
%TO.C,MX28*%
X64611500Y-64294020D03*
X54451500Y-64294020D03*
D19*
X59531500Y-64294020D03*
%TD*%
%TO.C,MX37*%
X226219700Y-64294020D03*
D14*
X221139700Y-64294020D03*
X231299700Y-64294020D03*
%TD*%
D19*
%TO.C,MX36*%
X207169620Y-64294020D03*
D14*
X202089620Y-64294020D03*
X212249620Y-64294020D03*
%TD*%
D19*
%TO.C,MX35*%
X188119540Y-64294020D03*
D14*
X183039540Y-64294020D03*
X193199540Y-64294020D03*
%TD*%
D19*
%TO.C,MX34*%
X169069460Y-64294020D03*
D14*
X163989460Y-64294020D03*
X174149460Y-64294020D03*
%TD*%
D19*
%TO.C,MX33*%
X150019380Y-64294020D03*
D14*
X144939380Y-64294020D03*
X155099380Y-64294020D03*
%TD*%
D19*
%TO.C,MX32*%
X130969300Y-64294020D03*
D14*
X125889300Y-64294020D03*
X136049300Y-64294020D03*
%TD*%
D19*
%TO.C,MX31*%
X111919220Y-64294020D03*
D14*
X106839220Y-64294020D03*
X116999220Y-64294020D03*
%TD*%
D19*
%TO.C,MX30*%
X92869140Y-64294020D03*
D14*
X87789140Y-64294020D03*
X97949140Y-64294020D03*
%TD*%
D19*
%TO.C,MX29*%
X73819060Y-64294020D03*
D14*
X68739060Y-64294020D03*
X78899060Y-64294020D03*
%TD*%
D19*
%TO.C,MX28*%
X54768980Y-64294020D03*
D14*
X49688980Y-64294020D03*
X59848980Y-64294020D03*
%TD*%
D19*
%TO.C,MX38-1.25u1*%
X252413560Y-64294020D03*
D14*
X247333560Y-64294020D03*
X257493560Y-64294020D03*
%TD*%
D19*
%TO.C,MX27-1.75u1*%
X33337640Y-64294020D03*
D14*
X28257640Y-64294020D03*
X38417640Y-64294020D03*
%TD*%
D19*
%TO.C,MX52*%
X273844900Y-26193860D03*
D14*
X268764900Y-26193860D03*
X278924900Y-26193860D03*
%TD*%
D19*
%TO.C,MX51*%
X292894980Y-83344100D03*
D14*
X287814980Y-83344100D03*
X297974980Y-83344100D03*
%TD*%
D19*
%TO.C,MX50*%
X273844900Y-83344100D03*
D14*
X268764900Y-83344100D03*
X278924900Y-83344100D03*
%TD*%
D19*
%TO.C,MX49*%
X254794820Y-83344100D03*
D14*
X249714820Y-83344100D03*
X259874820Y-83344100D03*
%TD*%
D19*
%TO.C,MX48*%
X228600960Y-83344100D03*
D14*
X223520960Y-83344100D03*
X233680960Y-83344100D03*
%TD*%
D19*
%TO.C,MX47*%
X204788360Y-83344100D03*
D14*
X199708360Y-83344100D03*
X209868360Y-83344100D03*
%TD*%
D19*
%TO.C,MX46*%
X183357020Y-83344100D03*
D14*
X178277020Y-83344100D03*
X188437020Y-83344100D03*
%TD*%
D19*
%TO.C,MX45*%
X154781900Y-83344100D03*
D14*
X149701900Y-83344100D03*
X159861900Y-83344100D03*
D20*
X142875650Y-90329100D03*
X166688150Y-90329100D03*
D19*
X142875650Y-75089100D03*
X166688150Y-75089100D03*
%TD*%
%TO.C,MX44*%
X114300480Y-83344100D03*
D14*
X109220480Y-83344100D03*
X119380480Y-83344100D03*
D20*
X102394230Y-90329100D03*
X126206730Y-90329100D03*
D19*
X102394230Y-75089100D03*
X126206730Y-75089100D03*
%TD*%
%TO.C,MX43*%
X83344100Y-83344100D03*
D14*
X78264100Y-83344100D03*
X88424100Y-83344100D03*
%TD*%
D19*
%TO.C,MX42*%
X64294020Y-83344100D03*
D14*
X59214020Y-83344100D03*
X69374020Y-83344100D03*
%TD*%
D19*
%TO.C,MX41*%
X45243940Y-83344100D03*
D14*
X40163940Y-83344100D03*
X50323940Y-83344100D03*
%TD*%
D19*
%TO.C,MX40*%
X26193860Y-83344100D03*
D14*
X21113860Y-83344100D03*
X31273860Y-83344100D03*
%TD*%
D19*
%TO.C,MX39*%
X273844900Y-64294020D03*
D14*
X268764900Y-64294020D03*
X278924900Y-64294020D03*
%TD*%
D19*
%TO.C,MX38*%
X250032300Y-64294020D03*
D14*
X244952300Y-64294020D03*
X255112300Y-64294020D03*
%TD*%
D19*
%TO.C,MX27*%
X30956380Y-64294020D03*
D14*
X25876380Y-64294020D03*
X36036380Y-64294020D03*
%TD*%
D19*
%TO.C,MX26*%
X266701120Y-45243940D03*
D14*
X261621120Y-45243940D03*
X271781120Y-45243940D03*
%TD*%
D19*
%TO.C,MX25*%
X240507260Y-45243940D03*
D14*
X235427260Y-45243940D03*
X245587260Y-45243940D03*
%TD*%
D19*
%TO.C,MX24*%
X221457180Y-45243940D03*
D14*
X216377180Y-45243940D03*
X226537180Y-45243940D03*
%TD*%
D19*
%TO.C,MX23*%
X202407100Y-45243940D03*
D14*
X197327100Y-45243940D03*
X207487100Y-45243940D03*
%TD*%
D19*
%TO.C,MX22*%
X183357020Y-45243940D03*
D14*
X178277020Y-45243940D03*
X188437020Y-45243940D03*
%TD*%
D19*
%TO.C,MX21*%
X164306940Y-45243940D03*
D14*
X159226940Y-45243940D03*
X169386940Y-45243940D03*
%TD*%
D19*
%TO.C,MX20*%
X145256860Y-45243940D03*
D14*
X140176860Y-45243940D03*
X150336860Y-45243940D03*
%TD*%
D19*
%TO.C,MX19*%
X126206780Y-45243940D03*
D14*
X121126780Y-45243940D03*
X131286780Y-45243940D03*
%TD*%
D19*
%TO.C,MX18*%
X107156700Y-45243940D03*
D14*
X102076700Y-45243940D03*
X112236700Y-45243940D03*
%TD*%
D19*
%TO.C,MX17*%
X88106620Y-45243940D03*
D14*
X83026620Y-45243940D03*
X93186620Y-45243940D03*
%TD*%
D19*
%TO.C,MX16*%
X69056540Y-45243940D03*
D14*
X63976540Y-45243940D03*
X74136540Y-45243940D03*
%TD*%
D19*
%TO.C,MX15*%
X50006460Y-45243940D03*
D14*
X44926460Y-45243940D03*
X55086460Y-45243940D03*
%TD*%
D19*
%TO.C,MX14*%
X28575120Y-45243940D03*
D14*
X23495120Y-45243940D03*
X33655120Y-45243940D03*
%TD*%
D19*
%TO.C,MX13*%
X254794820Y-26193860D03*
D14*
X249714820Y-26193860D03*
X259874820Y-26193860D03*
%TD*%
D19*
%TO.C,MX12*%
X235744740Y-26193860D03*
D14*
X230664740Y-26193860D03*
X240824740Y-26193860D03*
%TD*%
D19*
%TO.C,MX11*%
X216694660Y-26193860D03*
D14*
X211614660Y-26193860D03*
X221774660Y-26193860D03*
%TD*%
D19*
%TO.C,MX10*%
X197644580Y-26193860D03*
D14*
X192564580Y-26193860D03*
X202724580Y-26193860D03*
%TD*%
D19*
%TO.C,MX9*%
X178594500Y-26193860D03*
D14*
X173514500Y-26193860D03*
X183674500Y-26193860D03*
%TD*%
D19*
%TO.C,MX8*%
X159544420Y-26193860D03*
D14*
X154464420Y-26193860D03*
X164624420Y-26193860D03*
%TD*%
D19*
%TO.C,MX7*%
X140494340Y-26193860D03*
D14*
X135414340Y-26193860D03*
X145574340Y-26193860D03*
%TD*%
D19*
%TO.C,MX6*%
X121444260Y-26193860D03*
D14*
X116364260Y-26193860D03*
X126524260Y-26193860D03*
%TD*%
D19*
%TO.C,MX5*%
X102394180Y-26193860D03*
D14*
X97314180Y-26193860D03*
X107474180Y-26193860D03*
%TD*%
D19*
%TO.C,MX4*%
X83344100Y-26193860D03*
D14*
X78264100Y-26193860D03*
X88424100Y-26193860D03*
%TD*%
D19*
%TO.C,MX3*%
X64294020Y-26193860D03*
D14*
X59214020Y-26193860D03*
X69374020Y-26193860D03*
%TD*%
D19*
%TO.C,MX2*%
X45243940Y-26193860D03*
D14*
X40163940Y-26193860D03*
X50323940Y-26193860D03*
%TD*%
D19*
%TO.C,MX1*%
X26193860Y-26193860D03*
D14*
X21113860Y-26193860D03*
X31273860Y-26193860D03*
%TD*%
M02*
