  0
SECTION
  2
HEADER
  9
$ACADVER
  1
AC1014
  9
$HANDSEED
  5
FFFF
  9
$MEASUREMENT
 70
     1
  0
ENDSEC
  0
SECTION
  2
TABLES
  0
TABLE
  2
VPORT
  5
8
330
0
100
AcDbSymbolTable
 70
     4
  0
VPORT
  5
2E
330
8
100
AcDbSymbolTableRecord
100
AcDbViewportTableRecord
  2
*ACTIVE
 70
     0
 10
0.0
 20
0.0
 11
1.0
 21
1.0
 12
210.0
 22
148.5
 13
0.0
 23
0.0
 14
10.0
 24
10.0
 15
10.0
 25
10.0
 16
0.0
 26
0.0
 36
1.0
 17
0.0
 27
0.0
 37
0.0
 40
341.0
 41
1.24
 42
50.0
 43
0.0
 44
0.0
 50
0.0
 51
0.0
 71
     0
 72
   100
 73
     1
 74
     3
 75
     0
 76
     0
 77
     0
 78
     0
  0
ENDTAB
  0
TABLE
  2
LTYPE
  5
5
330
0
100
AcDbSymbolTable
 70
     1
  0
LTYPE
  5
14
330
5
100
AcDbSymbolTableRecord
100
AcDbLinetypeTableRecord
  2
BYBLOCK
 70
     0
  3

 72
    65
 73
     0
 40
0.0
  0
LTYPE
  5
15
330
5
100
AcDbSymbolTableRecord
100
AcDbLinetypeTableRecord
  2
BYLAYER
 70
     0
  3

 72
    65
 73
     0
 40
0.0
  0
LTYPE
  5
16
330
5
100
AcDbSymbolTableRecord
100
AcDbLinetypeTableRecord
  2
CONTINUOUS
 70
     0
  3
Solid line
 72
    65
 73
     0
 40
0.0
  0
ENDTAB
  0
TABLE
  2
LAYER
  5
2
100
AcDbSymbolTable
 70
1
  0
LAYER
  5
50
100
AcDbSymbolTableRecord
100
AcDbLayerTableRecord
  2
0
 70
0
  6
CONTINUOUS
  0
ENDTAB
  0
TABLE
  2
STYLE
  5
3
330
0
100
AcDbSymbolTable
 70
     1
  0
STYLE
  5
11
330
3
100
AcDbSymbolTableRecord
100
AcDbTextStyleTableRecord
  2
STANDARD
 70
     0
 40
0.0
 41
1.0
 50
0.0
 71
     0
 42
2.5
  3
txt
  4

  0
ENDTAB
  0
TABLE
  2
VIEW
  5
6
330
0
100
AcDbSymbolTable
 70
     0
  0
ENDTAB
  0
TABLE
  2
UCS
  5
7
330
0
100
AcDbSymbolTable
 70
     0
  0
ENDTAB
  0
TABLE
  2
APPID
  5
9
330
0
100
AcDbSymbolTable
 70
     2
  0
APPID
  5
12
330
9
100
AcDbSymbolTableRecord
100
AcDbRegAppTableRecord
  2
ACAD
 70
     0
  0
ENDTAB
  0
TABLE
  2
DIMSTYLE
  5
A
330
0
100
AcDbSymbolTable
 70
     1
  0
DIMSTYLE
105
27
330
A
100
AcDbSymbolTableRecord
100
AcDbDimStyleTableRecord
  2
ISO-25
 70
     0
  3

  4

  5

  6

  7

 40
1.0
 41
2.5
 42
0.625
 43
3.75
 44
1.25
 45
0.0
 46
0.0
 47
0.0
 48
0.0
140
2.5
141
2.5
142
0.0
143
0.03937007874016
144
1.0
145
0.0
146
1.0
147
0.625
 71
     0
 72
     0
 73
     0
 74
     0
 75
     0
 76
     0
 77
     1
 78
     8
170
     0
171
     3
172
     1
173
     0
174
     0
175
     0
176
     0
177
     0
178
     0
270
     2
271
     2
272
     2
273
     2
274
     3
340
11
275
     0
280
     0
281
     0
282
     0
283
     0
284
     8
285
     0
286
     0
287
     3
288
     0
  0
ENDTAB
  0
TABLE
  2
BLOCK_RECORD
  5
1
330
0
100
AcDbSymbolTable
 70
     1
  0
BLOCK_RECORD
  5
1F
330
1
100
AcDbSymbolTableRecord
100
AcDbBlockTableRecord
  2
*MODEL_SPACE
  0
BLOCK_RECORD
  5
1B
330
1
100
AcDbSymbolTableRecord
100
AcDbBlockTableRecord
  2
*PAPER_SPACE
  0
ENDTAB
  0
ENDSEC
  0
SECTION
  2
BLOCKS
  0
BLOCK
  5
20
330
1F
100
AcDbEntity
  8
0
100
AcDbBlockBegin
  2
*MODEL_SPACE
 70
     0
 10
0.0
 20
0.0
 30
0.0
  3
*MODEL_SPACE
  1

  0
ENDBLK
  5
21
330
1F
100
AcDbEntity
  8
0
100
AcDbBlockEnd
  0
BLOCK
  5
1C
330
1B
100
AcDbEntity
 67
     1
  8
0
100
AcDbBlockBegin
  2
*PAPER_SPACE
  1

  0
ENDBLK
  5
1D
330
1B
100
AcDbEntity
 67
     1
  8
0
100
AcDbBlockEnd
  0
ENDSEC
  0
SECTION
  2
ENTITIES
  0
SPLINE
  5
100
100
AcDbEntity
  8
0
 62
7
100
AcDbSpline
 70
8
 71
3
 72
8
 73
4
 74
0
 40
0
 40
0
 40
0
 40
0
 40
1
 40
1
 40
1
 40
1
 10
221.338648
 20
-3.179524
 30
0.0
 10
220.510221
 20
-3.179524
 30
0.0
 10
219.838648
 20
-3.851096
 30
0.0
 10
219.838648
 20
-4.679523
 30
0.0
  0
SPLINE
  5
101
100
AcDbEntity
  8
0
 62
7
100
AcDbSpline
 70
8
 71
3
 72
8
 73
4
 74
0
 40
0
 40
0
 40
0
 40
0
 40
1
 40
1
 40
1
 40
1
 10
219.838648
 20
-4.679523
 30
0.0
 10
219.838648
 20
-5.507950
 30
0.0
 10
220.510221
 20
-6.179523
 30
0.0
 10
221.338648
 20
-6.179523
 30
0.0
  0
SPLINE
  5
102
100
AcDbEntity
  8
0
 62
7
100
AcDbSpline
 70
8
 71
3
 72
8
 73
4
 74
0
 40
0
 40
0
 40
0
 40
0
 40
1
 40
1
 40
1
 40
1
 10
221.338648
 20
-6.179523
 30
0.0
 10
222.167075
 20
-6.179523
 30
0.0
 10
222.838648
 20
-5.507950
 30
0.0
 10
222.838648
 20
-4.679523
 30
0.0
  0
SPLINE
  5
103
100
AcDbEntity
  8
0
 62
7
100
AcDbSpline
 70
8
 71
3
 72
8
 73
4
 74
0
 40
0
 40
0
 40
0
 40
0
 40
1
 40
1
 40
1
 40
1
 10
222.838648
 20
-4.679523
 30
0.0
 10
222.838648
 20
-4.281699
 30
0.0
 10
222.680612
 20
-3.900168
 30
0.0
 10
222.399308
 20
-3.618863
 30
0.0
  0
SPLINE
  5
104
100
AcDbEntity
  8
0
 62
7
100
AcDbSpline
 70
8
 71
3
 72
8
 73
4
 74
0
 40
0
 40
0
 40
0
 40
0
 40
1
 40
1
 40
1
 40
1
 10
222.399308
 20
-3.618863
 30
0.0
 10
222.118003
 20
-3.337559
 30
0.0
 10
221.736473
 20
-3.179524
 30
0.0
 10
221.338648
 20
-3.179524
 30
0.0
  0
LWPOLYLINE
  5
105
100
AcDbEntity
  8
0
 62
7
100
AcDbPolyline
 90
2
 70
0
 10
304.733960
 20
0.965322
 30
0.0
 10
7.830820
 20
0.967862
 30
0.0
  0
SPLINE
  5
106
100
AcDbEntity
  8
0
 62
7
100
AcDbSpline
 70
8
 71
3
 72
8
 73
4
 74
0
 40
0
 40
0
 40
0
 40
0
 40
1
 40
1
 40
1
 40
1
 10
49.886362
 20
-3.179524
 30
0.0
 10
49.279669
 20
-3.179524
 30
0.0
 10
48.732715
 20
-3.544987
 30
0.0
 10
48.500543
 20
-4.105498
 30
0.0
  0
SPLINE
  5
107
100
AcDbEntity
  8
0
 62
7
100
AcDbSpline
 70
8
 71
3
 72
8
 73
4
 74
0
 40
0
 40
0
 40
0
 40
0
 40
1
 40
1
 40
1
 40
1
 10
48.500543
 20
-4.105498
 30
0.0
 10
48.268372
 20
-4.666010
 30
0.0
 10
48.396705
 20
-5.311186
 30
0.0
 10
48.825702
 20
-5.740183
 30
0.0
  0
SPLINE
  5
108
100
AcDbEntity
  8
0
 62
7
100
AcDbSpline
 70
8
 71
3
 72
8
 73
4
 74
0
 40
0
 40
0
 40
0
 40
0
 40
1
 40
1
 40
1
 40
1
 10
48.825702
 20
-5.740183
 30
0.0
 10
49.254699
 20
-6.169180
 30
0.0
 10
49.899876
 20
-6.297514
 30
0.0
 10
50.460387
 20
-6.065342
 30
0.0
  0
SPLINE
  5
109
100
AcDbEntity
  8
0
 62
7
100
AcDbSpline
 70
8
 71
3
 72
8
 73
4
 74
0
 40
0
 40
0
 40
0
 40
0
 40
1
 40
1
 40
1
 40
1
 10
50.460387
 20
-6.065342
 30
0.0
 10
51.020898
 20
-5.833171
 30
0.0
 10
51.386362
 20
-5.286216
 30
0.0
 10
51.386362
 20
-4.679523
 30
0.0
  0
SPLINE
  5
10a
100
AcDbEntity
  8
0
 62
7
100
AcDbSpline
 70
8
 71
3
 72
8
 73
4
 74
0
 40
0
 40
0
 40
0
 40
0
 40
1
 40
1
 40
1
 40
1
 10
51.386362
 20
-4.679523
 30
0.0
 10
51.386362
 20
-4.281699
 30
0.0
 10
51.228326
 20
-3.900168
 30
0.0
 10
50.947022
 20
-3.618863
 30
0.0
  0
SPLINE
  5
10b
100
AcDbEntity
  8
0
 62
7
100
AcDbSpline
 70
8
 71
3
 72
8
 73
4
 74
0
 40
0
 40
0
 40
0
 40
0
 40
1
 40
1
 40
1
 40
1
 10
50.947022
 20
-3.618863
 30
0.0
 10
50.665717
 20
-3.337559
 30
0.0
 10
50.284187
 20
-3.179524
 30
0.0
 10
49.886362
 20
-3.179524
 30
0.0
  0
LWPOLYLINE
  5
10c
100
AcDbEntity
  8
0
 62
7
100
AcDbPolyline
 90
1
 70
1
 10
221.338648
 20
-3.179524
 30
0.0
  0
SPLINE
  5
10d
100
AcDbEntity
  8
0
 62
7
100
AcDbSpline
 70
8
 71
3
 72
8
 73
4
 74
0
 40
0
 40
0
 40
0
 40
0
 40
1
 40
1
 40
1
 40
1
 10
262.869680
 20
-3.179524
 30
0.0
 10
262.041253
 20
-3.179524
 30
0.0
 10
261.369680
 20
-3.851096
 30
0.0
 10
261.369680
 20
-4.679523
 30
0.0
  0
SPLINE
  5
10e
100
AcDbEntity
  8
0
 62
7
100
AcDbSpline
 70
8
 71
3
 72
8
 73
4
 74
0
 40
0
 40
0
 40
0
 40
0
 40
1
 40
1
 40
1
 40
1
 10
261.369680
 20
-4.679523
 30
0.0
 10
261.369680
 20
-5.507950
 30
0.0
 10
262.041253
 20
-6.179523
 30
0.0
 10
262.869680
 20
-6.179523
 30
0.0
  0
SPLINE
  5
10f
100
AcDbEntity
  8
0
 62
7
100
AcDbSpline
 70
8
 71
3
 72
8
 73
4
 74
0
 40
0
 40
0
 40
0
 40
0
 40
1
 40
1
 40
1
 40
1
 10
262.869680
 20
-6.179523
 30
0.0
 10
263.698107
 20
-6.179523
 30
0.0
 10
264.369680
 20
-5.507950
 30
0.0
 10
264.369680
 20
-4.679523
 30
0.0
  0
SPLINE
  5
110
100
AcDbEntity
  8
0
 62
7
100
AcDbSpline
 70
8
 71
3
 72
8
 73
4
 74
0
 40
0
 40
0
 40
0
 40
0
 40
1
 40
1
 40
1
 40
1
 10
264.369680
 20
-4.679523
 30
0.0
 10
264.369680
 20
-4.281699
 30
0.0
 10
264.211644
 20
-3.900168
 30
0.0
 10
263.930340
 20
-3.618863
 30
0.0
  0
SPLINE
  5
111
100
AcDbEntity
  8
0
 62
7
100
AcDbSpline
 70
8
 71
3
 72
8
 73
4
 74
0
 40
0
 40
0
 40
0
 40
0
 40
1
 40
1
 40
1
 40
1
 10
263.930340
 20
-3.618863
 30
0.0
 10
263.649035
 20
-3.337559
 30
0.0
 10
263.267505
 20
-3.179524
 30
0.0
 10
262.869680
 20
-3.179524
 30
0.0
  0
LWPOLYLINE
  5
112
100
AcDbEntity
  8
0
 62
7
100
AcDbPolyline
 90
1
 70
1
 10
49.886362
 20
-3.179524
 30
0.0
  0
SPLINE
  5
113
100
AcDbEntity
  8
0
 62
7
100
AcDbSpline
 70
8
 71
3
 72
8
 73
4
 74
0
 40
0
 40
0
 40
0
 40
0
 40
1
 40
1
 40
1
 40
1
 10
91.416378
 20
-3.179524
 30
0.0
 10
90.809685
 20
-3.179524
 30
0.0
 10
90.262731
 20
-3.544987
 30
0.0
 10
90.030559
 20
-4.105498
 30
0.0
  0
SPLINE
  5
114
100
AcDbEntity
  8
0
 62
7
100
AcDbSpline
 70
8
 71
3
 72
8
 73
4
 74
0
 40
0
 40
0
 40
0
 40
0
 40
1
 40
1
 40
1
 40
1
 10
90.030559
 20
-4.105498
 30
0.0
 10
89.798388
 20
-4.666010
 30
0.0
 10
89.926721
 20
-5.311186
 30
0.0
 10
90.355718
 20
-5.740183
 30
0.0
  0
SPLINE
  5
115
100
AcDbEntity
  8
0
 62
7
100
AcDbSpline
 70
8
 71
3
 72
8
 73
4
 74
0
 40
0
 40
0
 40
0
 40
0
 40
1
 40
1
 40
1
 40
1
 10
90.355718
 20
-5.740183
 30
0.0
 10
90.784715
 20
-6.169180
 30
0.0
 10
91.429892
 20
-6.297514
 30
0.0
 10
91.990403
 20
-6.065342
 30
0.0
  0
SPLINE
  5
116
100
AcDbEntity
  8
0
 62
7
100
AcDbSpline
 70
8
 71
3
 72
8
 73
4
 74
0
 40
0
 40
0
 40
0
 40
0
 40
1
 40
1
 40
1
 40
1
 10
91.990403
 20
-6.065342
 30
0.0
 10
92.550914
 20
-5.833171
 30
0.0
 10
92.916378
 20
-5.286216
 30
0.0
 10
92.916378
 20
-4.679523
 30
0.0
  0
SPLINE
  5
117
100
AcDbEntity
  8
0
 62
7
100
AcDbSpline
 70
8
 71
3
 72
8
 73
4
 74
0
 40
0
 40
0
 40
0
 40
0
 40
1
 40
1
 40
1
 40
1
 10
92.916378
 20
-4.679523
 30
0.0
 10
92.916378
 20
-4.281699
 30
0.0
 10
92.758342
 20
-3.900168
 30
0.0
 10
92.477038
 20
-3.618863
 30
0.0
  0
SPLINE
  5
118
100
AcDbEntity
  8
0
 62
7
100
AcDbSpline
 70
8
 71
3
 72
8
 73
4
 74
0
 40
0
 40
0
 40
0
 40
0
 40
1
 40
1
 40
1
 40
1
 10
92.477038
 20
-3.618863
 30
0.0
 10
92.195733
 20
-3.337559
 30
0.0
 10
91.814203
 20
-3.179524
 30
0.0
 10
91.416378
 20
-3.179524
 30
0.0
  0
LWPOLYLINE
  5
119
100
AcDbEntity
  8
0
 62
7
100
AcDbPolyline
 90
1
 70
1
 10
262.869680
 20
-3.179524
 30
0.0
  0
LWPOLYLINE
  5
11a
100
AcDbEntity
  8
0
 62
7
100
AcDbPolyline
 90
1
 70
1
 10
91.416378
 20
-3.179524
 30
0.0
  0
SPLINE
  5
11b
100
AcDbEntity
  8
0
 62
7
100
AcDbSpline
 70
8
 71
3
 72
8
 73
4
 74
0
 40
0
 40
0
 40
0
 40
0
 40
1
 40
1
 40
1
 40
1
 10
5.017846
 20
-91.541986
 30
0.0
 10
4.007353
 20
-92.552488
 30
0.0
 10
3.612712
 20
-94.025321
 30
0.0
 10
3.982583
 20
-95.405686
 30
0.0
  0
SPLINE
  5
11c
100
AcDbEntity
  8
0
 62
7
100
AcDbSpline
 70
8
 71
3
 72
8
 73
4
 74
0
 40
0
 40
0
 40
0
 40
0
 40
1
 40
1
 40
1
 40
1
 10
3.982583
 20
-95.405686
 30
0.0
 10
4.352454
 20
-96.786051
 30
0.0
 10
5.430644
 20
-97.864236
 30
0.0
 10
6.811010
 20
-98.234101
 30
0.0
  0
SPLINE
  5
11d
100
AcDbEntity
  8
0
 62
7
100
AcDbSpline
 70
8
 71
3
 72
8
 73
4
 74
0
 40
0
 40
0
 40
0
 40
0
 40
1
 40
1
 40
1
 40
1
 10
6.811010
 20
-98.234101
 30
0.0
 10
8.191377
 20
-98.603966
 30
0.0
 10
9.664208
 20
-98.209318
 30
0.0
 10
10.674704
 20
-97.198818
 30
0.0
  0
SPLINE
  5
11e
100
AcDbEntity
  8
0
 62
7
100
AcDbSpline
 70
8
 71
3
 72
8
 73
4
 74
0
 40
0
 40
0
 40
0
 40
0
 40
1
 40
1
 40
1
 40
1
 10
10.674807
 20
-4.027150
 30
0.0
 10
9.112705
 20
-2.465064
 30
0.0
 10
6.580050
 20
-2.465064
 30
0.0
 10
5.017956
 20
-4.027158
 30
0.0
  0
SPLINE
  5
11f
100
AcDbEntity
  8
0
 62
7
100
AcDbSpline
 70
8
 71
3
 72
8
 73
4
 74
0
 40
0
 40
0
 40
0
 40
0
 40
1
 40
1
 40
1
 40
1
 10
5.017956
 20
-4.027158
 30
0.0
 10
3.455862
 20
-5.589252
 30
0.0
 10
3.455862
 20
-8.121907
 30
0.0
 10
5.017956
 20
-9.684001
 30
0.0
  0
LWPOLYLINE
  5
120
100
AcDbEntity
  8
0
 62
7
100
AcDbPolyline
 90
2
 70
0
 10
10.673080
 20
-4.025778
 30
0.0
 10
15.247620
 20
-8.574918
 30
0.0
  0
LWPOLYLINE
  5
121
100
AcDbEntity
  8
0
 62
7
100
AcDbPolyline
 90
2
 70
0
 10
307.738780
 20
-9.682358
 30
0.0
 10
300.502320
 20
-16.918818
 30
0.0
  0
SPLINE
  5
122
100
AcDbEntity
  8
0
 62
7
100
AcDbSpline
 70
8
 71
3
 72
8
 73
4
 74
0
 40
0
 40
0
 40
0
 40
0
 40
1
 40
1
 40
1
 40
1
 10
307.738780
 20
-9.684009
 30
0.0
 10
309.283330
 20
-8.119010
 30
0.0
 10
309.275081
 20
-5.600743
 30
0.0
 10
307.720311
 20
-4.045897
 30
0.0
  0
SPLINE
  5
123
100
AcDbEntity
  8
0
 62
7
100
AcDbSpline
 70
8
 71
3
 72
8
 73
4
 74
0
 40
0
 40
0
 40
0
 40
0
 40
1
 40
1
 40
1
 40
1
 10
307.720311
 20
-4.045897
 30
0.0
 10
306.165542
 20
-2.491050
 30
0.0
 10
303.647275
 20
-2.482677
 30
0.0
 10
302.082200
 20
-4.027150
 30
0.0
  0
LWPOLYLINE
  5
124
100
AcDbEntity
  8
0
 62
7
100
AcDbPolyline
 90
2
 70
0
 10
0.022860
 20
-94.381198
 30
0.0
 10
0.025400
 20
-7.028058
 30
0.0
  0
LWPOLYLINE
  5
125
100
AcDbEntity
  8
0
 62
7
100
AcDbPolyline
 90
2
 70
0
 10
312.729880
 20
-6.840098
 30
0.0
 10
312.729880
 20
-94.193238
 30
0.0
  0
LWPOLYLINE
  5
126
100
AcDbEntity
  8
0
 62
7
100
AcDbPolyline
 90
2
 70
0
 10
307.738780
 20
-91.538938
 30
0.0
 10
300.502320
 20
-84.317718
 30
0.0
  0
LWPOLYLINE
  5
127
100
AcDbEntity
  8
0
 62
7
100
AcDbPolyline
 90
2
 70
0
 10
5.016500
 20
-91.541478
 30
0.0
 10
12.252960
 20
-84.317718
 30
0.0
  0
SPLINE
  5
128
100
AcDbEntity
  8
0
 62
7
100
AcDbSpline
 70
8
 71
3
 72
8
 73
4
 74
0
 40
0
 40
0
 40
0
 40
0
 40
1
 40
1
 40
1
 40
1
 10
0.025001
 20
-94.383484
 30
0.0
 10
0.028541
 20
-96.485770
 30
0.0
 10
0.878249
 20
-98.498118
 30
0.0
 10
2.382511
 20
-99.966728
 30
0.0
  0
SPLINE
  5
129
100
AcDbEntity
  8
0
 62
7
100
AcDbSpline
 70
8
 71
3
 72
8
 73
4
 74
0
 40
0
 40
0
 40
0
 40
0
 40
1
 40
1
 40
1
 40
1
 10
2.382511
 20
-99.966728
 30
0.0
 10
3.886772
 20
-101.435337
 30
0.0
 10
5.918919
 20
-102.236543
 30
0.0
 10
8.020685
 20
-102.189666
 30
0.0
  0
SPLINE
  5
12a
100
AcDbEntity
  8
0
 62
7
100
AcDbSpline
 70
8
 71
3
 72
8
 73
4
 74
0
 40
0
 40
0
 40
0
 40
0
 40
1
 40
1
 40
1
 40
1
 10
302.082200
 20
-97.198058
 30
0.0
 10
303.645171
 20
-98.755345
 30
0.0
 10
306.173951
 20
-98.752985
 30
0.0
 10
307.734013
 20
-97.192783
 30
0.0
  0
SPLINE
  5
12b
100
AcDbEntity
  8
0
 62
7
100
AcDbSpline
 70
8
 71
3
 72
8
 73
4
 74
0
 40
0
 40
0
 40
0
 40
0
 40
1
 40
1
 40
1
 40
1
 10
307.734013
 20
-97.192783
 30
0.0
 10
309.294074
 20
-95.632581
 30
0.0
 10
309.296207
 20
-93.103802
 30
0.0
 10
307.738780
 20
-91.540970
 30
0.0
  0
LWPOLYLINE
  5
12c
100
AcDbEntity
  8
0
 62
7
100
AcDbPolyline
 90
2
 70
0
 10
302.082200
 20
-97.195518
 30
0.0
 10
294.848280
 20
-89.961598
 30
0.0
  0
SPLINE
  5
12d
100
AcDbEntity
  8
0
 62
7
100
AcDbSpline
 70
8
 71
3
 72
8
 73
4
 74
0
 40
0
 40
0
 40
0
 40
0
 40
1
 40
1
 40
1
 40
1
 10
304.924460
 20
-102.190682
 30
0.0
 10
307.026610
 20
-102.186938
 30
0.0
 10
309.038758
 20
-101.337142
 30
0.0
 10
310.507202
 20
-99.832907
 30
0.0
  0
SPLINE
  5
12e
100
AcDbEntity
  8
0
 62
7
100
AcDbSpline
 70
8
 71
3
 72
8
 73
4
 74
0
 40
0
 40
0
 40
0
 40
0
 40
1
 40
1
 40
1
 40
1
 10
310.507202
 20
-99.832907
 30
0.0
 10
311.975645
 20
-98.328672
 30
0.0
 10
312.776750
 20
-96.296647
 30
0.0
 10
312.729880
 20
-94.195016
 30
0.0
  0
SPLINE
  5
12f
100
AcDbEntity
  8
0
 62
7
100
AcDbSpline
 70
8
 71
3
 72
8
 73
4
 74
0
 40
0
 40
0
 40
0
 40
0
 40
1
 40
1
 40
1
 40
1
 10
7.833233
 20
0.965710
 30
0.0
 10
5.730946
 20
0.962176
 30
0.0
 10
3.718594
 20
0.112471
 30
0.0
 10
2.249980
 20
-1.391789
 30
0.0
  0
SPLINE
  5
130
100
AcDbEntity
  8
0
 62
7
100
AcDbSpline
 70
8
 71
3
 72
8
 73
4
 74
0
 40
0
 40
0
 40
0
 40
0
 40
1
 40
1
 40
1
 40
1
 10
2.249980
 20
-1.391789
 30
0.0
 10
0.781366
 20
-2.896048
 30
0.0
 10
-0.019844
 20
-4.928196
 30
0.0
 10
0.027030
 20
-7.029963
 30
0.0
  0
LWPOLYLINE
  5
131
100
AcDbEntity
  8
0
 62
7
100
AcDbPolyline
 90
2
 70
0
 10
304.921920
 20
-102.189158
 30
0.0
 10
8.018780
 20
-102.189158
 30
0.0
  0
LWPOLYLINE
  5
132
100
AcDbEntity
  8
0
 62
7
100
AcDbPolyline
 90
2
 70
0
 10
10.673080
 20
-97.198058
 30
0.0
 10
17.947640
 20
-89.961598
 30
0.0
  0
SPLINE
  5
133
100
AcDbEntity
  8
0
 62
7
100
AcDbSpline
 70
8
 71
3
 72
8
 73
4
 74
0
 40
0
 40
0
 40
0
 40
0
 40
1
 40
1
 40
1
 40
1
 10
312.729880
 20
-6.842435
 30
0.0
 10
312.726350
 20
-4.740102
 30
0.0
 10
311.876612
 20
-2.727709
 30
0.0
 10
310.372298
 20
-1.259086
 30
0.0
  0
SPLINE
  5
134
100
AcDbEntity
  8
0
 62
7
100
AcDbSpline
 70
8
 71
3
 72
8
 73
4
 74
0
 40
0
 40
0
 40
0
 40
0
 40
1
 40
1
 40
1
 40
1
 10
310.372298
 20
-1.259086
 30
0.0
 10
308.867984
 20
0.209537
 30
0.0
 10
306.835771
 20
1.010718
 30
0.0
 10
304.733960
 20
0.963776
 30
0.0
  0
LWPOLYLINE
  5
135
100
AcDbEntity
  8
0
 62
7
100
AcDbPolyline
 90
2
 70
0
 10
5.016500
 20
-9.682358
 30
0.0
 10
12.252960
 20
-16.918818
 30
0.0
  0
LWPOLYLINE
  5
136
100
AcDbEntity
  8
0
 62
7
100
AcDbPolyline
 90
2
 70
0
 10
15.247620
 20
-8.574918
 30
0.0
 10
269.806420
 20
-8.574918
 30
0.0
  0
LWPOLYLINE
  5
137
100
AcDbEntity
  8
0
 62
7
100
AcDbPolyline
 90
2
 70
0
 10
294.848280
 20
-89.961598
 30
0.0
 10
17.947640
 20
-89.961598
 30
0.0
  0
LWPOLYLINE
  5
138
100
AcDbEntity
  8
0
 62
7
100
AcDbPolyline
 90
2
 70
0
 10
300.502320
 20
-16.918818
 30
0.0
 10
300.502320
 20
-84.317718
 30
0.0
  0
LWPOLYLINE
  5
139
100
AcDbEntity
  8
0
 62
7
100
AcDbPolyline
 90
2
 70
0
 10
12.252960
 20
-84.317718
 30
0.0
 10
12.252960
 20
-16.918818
 30
0.0
  0
LWPOLYLINE
  5
13a
100
AcDbEntity
  8
0
 62
7
100
AcDbPolyline
 90
3
 70
0
 10
302.082200
 20
-4.025778
 30
0.0
 10
269.806420
 20
-4.025778
 30
0.0
 10
269.806420
 20
-8.574918
 30
0.0
  0
ENDSEC
  0
SECTION
  2
OBJECTS
  0
DICTIONARY
  5
C
330
0
100
AcDbDictionary
  3
ACAD_GROUP
350
D
  3
ACAD_MLINESTYLE
350
17
  0
DICTIONARY
  5
D
330
C
100
AcDbDictionary
  0
DICTIONARY
  5
1A
330
C
100
AcDbDictionary
  0
DICTIONARY
  5
17
330
C
100
AcDbDictionary
  3
STANDARD
350
18
  0
DICTIONARY
  5
19
330
C
100
AcDbDictionary
  0
ENDSEC
  0
EOF
