  0
SECTION
  2
HEADER
  9
$ACADVER
  1
AC1014
  9
$HANDSEED
  5
FFFF
  9
$MEASUREMENT
 70
     1
  0
ENDSEC
  0
SECTION
  2
TABLES
  0
TABLE
  2
VPORT
  5
8
330
0
100
AcDbSymbolTable
 70
     4
  0
VPORT
  5
2E
330
8
100
AcDbSymbolTableRecord
100
AcDbViewportTableRecord
  2
*ACTIVE
 70
     0
 10
0.0
 20
0.0
 11
1.0
 21
1.0
 12
210.0
 22
148.5
 13
0.0
 23
0.0
 14
10.0
 24
10.0
 15
10.0
 25
10.0
 16
0.0
 26
0.0
 36
1.0
 17
0.0
 27
0.0
 37
0.0
 40
341.0
 41
1.24
 42
50.0
 43
0.0
 44
0.0
 50
0.0
 51
0.0
 71
     0
 72
   100
 73
     1
 74
     3
 75
     0
 76
     0
 77
     0
 78
     0
  0
ENDTAB
  0
TABLE
  2
LTYPE
  5
5
330
0
100
AcDbSymbolTable
 70
     1
  0
LTYPE
  5
14
330
5
100
AcDbSymbolTableRecord
100
AcDbLinetypeTableRecord
  2
BYBLOCK
 70
     0
  3

 72
    65
 73
     0
 40
0.0
  0
LTYPE
  5
15
330
5
100
AcDbSymbolTableRecord
100
AcDbLinetypeTableRecord
  2
BYLAYER
 70
     0
  3

 72
    65
 73
     0
 40
0.0
  0
LTYPE
  5
16
330
5
100
AcDbSymbolTableRecord
100
AcDbLinetypeTableRecord
  2
CONTINUOUS
 70
     0
  3
Solid line
 72
    65
 73
     0
 40
0.0
  0
ENDTAB
  0
TABLE
  2
LAYER
  5
2
100
AcDbSymbolTable
 70
1
  0
LAYER
  5
50
100
AcDbSymbolTableRecord
100
AcDbLayerTableRecord
  2
0
 70
0
  6
CONTINUOUS
  0
ENDTAB
  0
TABLE
  2
STYLE
  5
3
330
0
100
AcDbSymbolTable
 70
     1
  0
STYLE
  5
11
330
3
100
AcDbSymbolTableRecord
100
AcDbTextStyleTableRecord
  2
STANDARD
 70
     0
 40
0.0
 41
1.0
 50
0.0
 71
     0
 42
2.5
  3
txt
  4

  0
ENDTAB
  0
TABLE
  2
VIEW
  5
6
330
0
100
AcDbSymbolTable
 70
     0
  0
ENDTAB
  0
TABLE
  2
UCS
  5
7
330
0
100
AcDbSymbolTable
 70
     0
  0
ENDTAB
  0
TABLE
  2
APPID
  5
9
330
0
100
AcDbSymbolTable
 70
     2
  0
APPID
  5
12
330
9
100
AcDbSymbolTableRecord
100
AcDbRegAppTableRecord
  2
ACAD
 70
     0
  0
ENDTAB
  0
TABLE
  2
DIMSTYLE
  5
A
330
0
100
AcDbSymbolTable
 70
     1
  0
DIMSTYLE
105
27
330
A
100
AcDbSymbolTableRecord
100
AcDbDimStyleTableRecord
  2
ISO-25
 70
     0
  3

  4

  5

  6

  7

 40
1.0
 41
2.5
 42
0.625
 43
3.75
 44
1.25
 45
0.0
 46
0.0
 47
0.0
 48
0.0
140
2.5
141
2.5
142
0.0
143
0.03937007874016
144
1.0
145
0.0
146
1.0
147
0.625
 71
     0
 72
     0
 73
     0
 74
     0
 75
     0
 76
     0
 77
     1
 78
     8
170
     0
171
     3
172
     1
173
     0
174
     0
175
     0
176
     0
177
     0
178
     0
270
     2
271
     2
272
     2
273
     2
274
     3
340
11
275
     0
280
     0
281
     0
282
     0
283
     0
284
     8
285
     0
286
     0
287
     3
288
     0
  0
ENDTAB
  0
TABLE
  2
BLOCK_RECORD
  5
1
330
0
100
AcDbSymbolTable
 70
     1
  0
BLOCK_RECORD
  5
1F
330
1
100
AcDbSymbolTableRecord
100
AcDbBlockTableRecord
  2
*MODEL_SPACE
  0
BLOCK_RECORD
  5
1B
330
1
100
AcDbSymbolTableRecord
100
AcDbBlockTableRecord
  2
*PAPER_SPACE
  0
ENDTAB
  0
ENDSEC
  0
SECTION
  2
BLOCKS
  0
BLOCK
  5
20
330
1F
100
AcDbEntity
  8
0
100
AcDbBlockBegin
  2
*MODEL_SPACE
 70
     0
 10
0.0
 20
0.0
 30
0.0
  3
*MODEL_SPACE
  1

  0
ENDBLK
  5
21
330
1F
100
AcDbEntity
  8
0
100
AcDbBlockEnd
  0
BLOCK
  5
1C
330
1B
100
AcDbEntity
 67
     1
  8
0
100
AcDbBlockBegin
  2
*PAPER_SPACE
  1

  0
ENDBLK
  5
1D
330
1B
100
AcDbEntity
 67
     1
  8
0
100
AcDbBlockEnd
  0
ENDSEC
  0
SECTION
  2
ENTITIES
  0
SPLINE
  5
100
100
AcDbEntity
  8
0
 62
7
100
AcDbSpline
 70
8
 71
3
 72
8
 73
4
 74
0
 40
0
 40
0
 40
0
 40
0
 40
1
 40
1
 40
1
 40
1
 10
304.911760
 20
-4.255572
 30
0.0
 10
303.860160
 20
-4.255572
 30
0.0
 10
302.912108
 20
-4.889040
 30
0.0
 10
302.509678
 20
-5.860592
 30
0.0
  0
SPLINE
  5
101
100
AcDbEntity
  8
0
 62
7
100
AcDbSpline
 70
8
 71
3
 72
8
 73
4
 74
0
 40
0
 40
0
 40
0
 40
0
 40
1
 40
1
 40
1
 40
1
 10
302.509678
 20
-5.860592
 30
0.0
 10
302.107248
 20
-6.832143
 30
0.0
 10
302.329693
 20
-7.950447
 30
0.0
 10
303.073286
 20
-8.694041
 30
0.0
  0
SPLINE
  5
102
100
AcDbEntity
  8
0
 62
7
100
AcDbSpline
 70
8
 71
3
 72
8
 73
4
 74
0
 40
0
 40
0
 40
0
 40
0
 40
1
 40
1
 40
1
 40
1
 10
303.073286
 20
-8.694041
 30
0.0
 10
303.816879
 20
-9.437634
 30
0.0
 10
304.935183
 20
-9.660078
 30
0.0
 10
305.906735
 20
-9.257649
 30
0.0
  0
SPLINE
  5
103
100
AcDbEntity
  8
0
 62
7
100
AcDbSpline
 70
8
 71
3
 72
8
 73
4
 74
0
 40
0
 40
0
 40
0
 40
0
 40
1
 40
1
 40
1
 40
1
 10
305.906735
 20
-9.257649
 30
0.0
 10
306.878286
 20
-8.855219
 30
0.0
 10
307.511755
 20
-7.907166
 30
0.0
 10
307.511755
 20
-6.855567
 30
0.0
  0
SPLINE
  5
104
100
AcDbEntity
  8
0
 62
7
100
AcDbSpline
 70
8
 71
3
 72
8
 73
4
 74
0
 40
0
 40
0
 40
0
 40
0
 40
1
 40
1
 40
1
 40
1
 10
307.511755
 20
-6.855567
 30
0.0
 10
307.511755
 20
-6.166005
 30
0.0
 10
307.237828
 20
-5.504686
 30
0.0
 10
306.750234
 20
-5.017093
 30
0.0
  0
SPLINE
  5
105
100
AcDbEntity
  8
0
 62
7
100
AcDbSpline
 70
8
 71
3
 72
8
 73
4
 74
0
 40
0
 40
0
 40
0
 40
0
 40
1
 40
1
 40
1
 40
1
 10
306.750234
 20
-5.017093
 30
0.0
 10
306.262640
 20
-4.529499
 30
0.0
 10
305.601321
 20
-4.255572
 30
0.0
 10
304.911760
 20
-4.255572
 30
0.0
  0
SPLINE
  5
106
100
AcDbEntity
  8
0
 62
7
100
AcDbSpline
 70
8
 71
3
 72
8
 73
4
 74
0
 40
0
 40
0
 40
0
 40
0
 40
1
 40
1
 40
1
 40
1
 10
251.033026
 20
-37.814982
 30
0.0
 10
250.191060
 20
-37.814982
 30
0.0
 10
249.431999
 20
-38.322170
 30
0.0
 10
249.109793
 20
-39.100045
 30
0.0
  0
SPLINE
  5
107
100
AcDbEntity
  8
0
 62
7
100
AcDbSpline
 70
8
 71
3
 72
8
 73
4
 74
0
 40
0
 40
0
 40
0
 40
0
 40
1
 40
1
 40
1
 40
1
 10
249.109793
 20
-39.100045
 30
0.0
 10
248.787586
 20
-39.877920
 30
0.0
 10
248.965687
 20
-40.773293
 30
0.0
 10
249.561047
 20
-41.368653
 30
0.0
  0
SPLINE
  5
108
100
AcDbEntity
  8
0
 62
7
100
AcDbSpline
 70
8
 71
3
 72
8
 73
4
 74
0
 40
0
 40
0
 40
0
 40
0
 40
1
 40
1
 40
1
 40
1
 10
249.561047
 20
-41.368653
 30
0.0
 10
250.156407
 20
-41.964013
 30
0.0
 10
251.051780
 20
-42.142114
 30
0.0
 10
251.829655
 20
-41.819907
 30
0.0
  0
SPLINE
  5
109
100
AcDbEntity
  8
0
 62
7
100
AcDbSpline
 70
8
 71
3
 72
8
 73
4
 74
0
 40
0
 40
0
 40
0
 40
0
 40
1
 40
1
 40
1
 40
1
 10
251.829655
 20
-41.819907
 30
0.0
 10
252.607530
 20
-41.497701
 30
0.0
 10
253.114719
 20
-40.738640
 30
0.0
 10
253.114719
 20
-39.896674
 30
0.0
  0
SPLINE
  5
10a
100
AcDbEntity
  8
0
 62
7
100
AcDbSpline
 70
8
 71
3
 72
8
 73
4
 74
0
 40
0
 40
0
 40
0
 40
0
 40
1
 40
1
 40
1
 40
1
 10
253.114719
 20
-39.896674
 30
0.0
 10
253.114719
 20
-38.746987
 30
0.0
 10
252.182713
 20
-37.814982
 30
0.0
 10
251.033026
 20
-37.814982
 30
0.0
  0
LWPOLYLINE
  5
10b
100
AcDbEntity
  8
0
 62
7
100
AcDbPolyline
 90
1
 70
1
 10
304.911760
 20
-4.255572
 30
0.0
  0
LWPOLYLINE
  5
10c
100
AcDbEntity
  8
0
 62
7
100
AcDbPolyline
 90
1
 70
1
 10
251.033026
 20
-37.814982
 30
0.0
  0
SPLINE
  5
10d
100
AcDbEntity
  8
0
 62
7
100
AcDbSpline
 70
8
 71
3
 72
8
 73
4
 74
0
 40
0
 40
0
 40
0
 40
0
 40
1
 40
1
 40
1
 40
1
 10
262.869680
 20
-2.079528
 30
0.0
 10
261.818080
 20
-2.079528
 30
0.0
 10
260.870028
 20
-2.712997
 30
0.0
 10
260.467598
 20
-3.684548
 30
0.0
  0
SPLINE
  5
10e
100
AcDbEntity
  8
0
 62
7
100
AcDbSpline
 70
8
 71
3
 72
8
 73
4
 74
0
 40
0
 40
0
 40
0
 40
0
 40
1
 40
1
 40
1
 40
1
 10
260.467598
 20
-3.684548
 30
0.0
 10
260.065168
 20
-4.656100
 30
0.0
 10
260.287613
 20
-5.774404
 30
0.0
 10
261.031206
 20
-6.517997
 30
0.0
  0
SPLINE
  5
10f
100
AcDbEntity
  8
0
 62
7
100
AcDbSpline
 70
8
 71
3
 72
8
 73
4
 74
0
 40
0
 40
0
 40
0
 40
0
 40
1
 40
1
 40
1
 40
1
 10
261.031206
 20
-6.517997
 30
0.0
 10
261.774799
 20
-7.261591
 30
0.0
 10
262.893103
 20
-7.484035
 30
0.0
 10
263.864655
 20
-7.081605
 30
0.0
  0
SPLINE
  5
110
100
AcDbEntity
  8
0
 62
7
100
AcDbSpline
 70
8
 71
3
 72
8
 73
4
 74
0
 40
0
 40
0
 40
0
 40
0
 40
1
 40
1
 40
1
 40
1
 10
263.864655
 20
-7.081605
 30
0.0
 10
264.836206
 20
-6.679175
 30
0.0
 10
265.469675
 20
-5.731123
 30
0.0
 10
265.469675
 20
-4.679523
 30
0.0
  0
SPLINE
  5
111
100
AcDbEntity
  8
0
 62
7
100
AcDbSpline
 70
8
 71
3
 72
8
 73
4
 74
0
 40
0
 40
0
 40
0
 40
0
 40
1
 40
1
 40
1
 40
1
 10
265.469675
 20
-4.679523
 30
0.0
 10
265.469675
 20
-3.989962
 30
0.0
 10
265.195748
 20
-3.328643
 30
0.0
 10
264.708154
 20
-2.841049
 30
0.0
  0
SPLINE
  5
112
100
AcDbEntity
  8
0
 62
7
100
AcDbSpline
 70
8
 71
3
 72
8
 73
4
 74
0
 40
0
 40
0
 40
0
 40
0
 40
1
 40
1
 40
1
 40
1
 10
264.708154
 20
-2.841049
 30
0.0
 10
264.220560
 20
-2.353456
 30
0.0
 10
263.559241
 20
-2.079528
 30
0.0
 10
262.869680
 20
-2.079528
 30
0.0
  0
LWPOLYLINE
  5
113
100
AcDbEntity
  8
0
 62
7
100
AcDbPolyline
 90
2
 70
0
 10
304.733960
 20
0.965322
 30
0.0
 10
7.830820
 20
0.967862
 30
0.0
  0
SPLINE
  5
114
100
AcDbEntity
  8
0
 62
7
100
AcDbSpline
 70
8
 71
3
 72
8
 73
4
 74
0
 40
0
 40
0
 40
0
 40
0
 40
1
 40
1
 40
1
 40
1
 10
91.416378
 20
-2.079528
 30
0.0
 10
89.980441
 20
-2.079528
 30
0.0
 10
88.816383
 20
-3.243586
 30
0.0
 10
88.816383
 20
-4.679523
 30
0.0
  0
SPLINE
  5
115
100
AcDbEntity
  8
0
 62
7
100
AcDbSpline
 70
8
 71
3
 72
8
 73
4
 74
0
 40
0
 40
0
 40
0
 40
0
 40
1
 40
1
 40
1
 40
1
 10
88.816383
 20
-4.679523
 30
0.0
 10
88.816383
 20
-6.115461
 30
0.0
 10
89.980441
 20
-7.279518
 30
0.0
 10
91.416378
 20
-7.279518
 30
0.0
  0
SPLINE
  5
116
100
AcDbEntity
  8
0
 62
7
100
AcDbSpline
 70
8
 71
3
 72
8
 73
4
 74
0
 40
0
 40
0
 40
0
 40
0
 40
1
 40
1
 40
1
 40
1
 10
91.416378
 20
-7.279518
 30
0.0
 10
92.852315
 20
-7.279518
 30
0.0
 10
94.016373
 20
-6.115461
 30
0.0
 10
94.016373
 20
-4.679523
 30
0.0
  0
SPLINE
  5
117
100
AcDbEntity
  8
0
 62
7
100
AcDbSpline
 70
8
 71
3
 72
8
 73
4
 74
0
 40
0
 40
0
 40
0
 40
0
 40
1
 40
1
 40
1
 40
1
 10
94.016373
 20
-4.679523
 30
0.0
 10
94.016373
 20
-3.989962
 30
0.0
 10
93.742446
 20
-3.328643
 30
0.0
 10
93.254852
 20
-2.841049
 30
0.0
  0
SPLINE
  5
118
100
AcDbEntity
  8
0
 62
7
100
AcDbSpline
 70
8
 71
3
 72
8
 73
4
 74
0
 40
0
 40
0
 40
0
 40
0
 40
1
 40
1
 40
1
 40
1
 10
93.254852
 20
-2.841049
 30
0.0
 10
92.767258
 20
-2.353456
 30
0.0
 10
92.105939
 20
-2.079528
 30
0.0
 10
91.416378
 20
-2.079528
 30
0.0
  0
LWPOLYLINE
  5
119
100
AcDbEntity
  8
0
 62
7
100
AcDbPolyline
 90
1
 70
1
 10
262.869680
 20
-2.079528
 30
0.0
  0
SPLINE
  5
11a
100
AcDbEntity
  8
0
 62
7
100
AcDbSpline
 70
8
 71
3
 72
8
 73
4
 74
0
 40
0
 40
0
 40
0
 40
0
 40
1
 40
1
 40
1
 40
1
 10
49.886362
 20
-2.079528
 30
0.0
 10
48.834762
 20
-2.079528
 30
0.0
 10
47.886710
 20
-2.712997
 30
0.0
 10
47.484280
 20
-3.684548
 30
0.0
  0
SPLINE
  5
11b
100
AcDbEntity
  8
0
 62
7
100
AcDbSpline
 70
8
 71
3
 72
8
 73
4
 74
0
 40
0
 40
0
 40
0
 40
0
 40
1
 40
1
 40
1
 40
1
 10
47.484280
 20
-3.684548
 30
0.0
 10
47.081850
 20
-4.656100
 30
0.0
 10
47.304295
 20
-5.774404
 30
0.0
 10
48.047888
 20
-6.517997
 30
0.0
  0
SPLINE
  5
11c
100
AcDbEntity
  8
0
 62
7
100
AcDbSpline
 70
8
 71
3
 72
8
 73
4
 74
0
 40
0
 40
0
 40
0
 40
0
 40
1
 40
1
 40
1
 40
1
 10
48.047888
 20
-6.517997
 30
0.0
 10
48.791481
 20
-7.261591
 30
0.0
 10
49.909785
 20
-7.484035
 30
0.0
 10
50.881337
 20
-7.081605
 30
0.0
  0
SPLINE
  5
11d
100
AcDbEntity
  8
0
 62
7
100
AcDbSpline
 70
8
 71
3
 72
8
 73
4
 74
0
 40
0
 40
0
 40
0
 40
0
 40
1
 40
1
 40
1
 40
1
 10
50.881337
 20
-7.081605
 30
0.0
 10
51.852888
 20
-6.679175
 30
0.0
 10
52.486357
 20
-5.731123
 30
0.0
 10
52.486357
 20
-4.679523
 30
0.0
  0
SPLINE
  5
11e
100
AcDbEntity
  8
0
 62
7
100
AcDbSpline
 70
8
 71
3
 72
8
 73
4
 74
0
 40
0
 40
0
 40
0
 40
0
 40
1
 40
1
 40
1
 40
1
 10
52.486357
 20
-4.679523
 30
0.0
 10
52.486357
 20
-3.989962
 30
0.0
 10
52.212430
 20
-3.328643
 30
0.0
 10
51.724836
 20
-2.841049
 30
0.0
  0
SPLINE
  5
11f
100
AcDbEntity
  8
0
 62
7
100
AcDbSpline
 70
8
 71
3
 72
8
 73
4
 74
0
 40
0
 40
0
 40
0
 40
0
 40
1
 40
1
 40
1
 40
1
 10
51.724836
 20
-2.841049
 30
0.0
 10
51.237242
 20
-2.353456
 30
0.0
 10
50.575923
 20
-2.079528
 30
0.0
 10
49.886362
 20
-2.079528
 30
0.0
  0
LWPOLYLINE
  5
120
100
AcDbEntity
  8
0
 62
7
100
AcDbPolyline
 90
1
 70
1
 10
91.416378
 20
-2.079528
 30
0.0
  0
SPLINE
  5
121
100
AcDbEntity
  8
0
 62
7
100
AcDbSpline
 70
8
 71
3
 72
8
 73
4
 74
0
 40
0
 40
0
 40
0
 40
0
 40
1
 40
1
 40
1
 40
1
 10
221.338648
 20
-2.079528
 30
0.0
 10
220.287048
 20
-2.079528
 30
0.0
 10
219.338996
 20
-2.712997
 30
0.0
 10
218.936566
 20
-3.684548
 30
0.0
  0
SPLINE
  5
122
100
AcDbEntity
  8
0
 62
7
100
AcDbSpline
 70
8
 71
3
 72
8
 73
4
 74
0
 40
0
 40
0
 40
0
 40
0
 40
1
 40
1
 40
1
 40
1
 10
218.936566
 20
-3.684548
 30
0.0
 10
218.534136
 20
-4.656100
 30
0.0
 10
218.756581
 20
-5.774404
 30
0.0
 10
219.500174
 20
-6.517997
 30
0.0
  0
SPLINE
  5
123
100
AcDbEntity
  8
0
 62
7
100
AcDbSpline
 70
8
 71
3
 72
8
 73
4
 74
0
 40
0
 40
0
 40
0
 40
0
 40
1
 40
1
 40
1
 40
1
 10
219.500174
 20
-6.517997
 30
0.0
 10
220.243767
 20
-7.261591
 30
0.0
 10
221.362071
 20
-7.484035
 30
0.0
 10
222.333623
 20
-7.081605
 30
0.0
  0
SPLINE
  5
124
100
AcDbEntity
  8
0
 62
7
100
AcDbSpline
 70
8
 71
3
 72
8
 73
4
 74
0
 40
0
 40
0
 40
0
 40
0
 40
1
 40
1
 40
1
 40
1
 10
222.333623
 20
-7.081605
 30
0.0
 10
223.305174
 20
-6.679175
 30
0.0
 10
223.938643
 20
-5.731123
 30
0.0
 10
223.938643
 20
-4.679523
 30
0.0
  0
SPLINE
  5
125
100
AcDbEntity
  8
0
 62
7
100
AcDbSpline
 70
8
 71
3
 72
8
 73
4
 74
0
 40
0
 40
0
 40
0
 40
0
 40
1
 40
1
 40
1
 40
1
 10
223.938643
 20
-4.679523
 30
0.0
 10
223.938643
 20
-3.243586
 30
0.0
 10
222.774585
 20
-2.079528
 30
0.0
 10
221.338648
 20
-2.079528
 30
0.0
  0
LWPOLYLINE
  5
126
100
AcDbEntity
  8
0
 62
7
100
AcDbPolyline
 90
1
 70
1
 10
49.886362
 20
-2.079528
 30
0.0
  0
SPLINE
  5
127
100
AcDbEntity
  8
0
 62
7
100
AcDbSpline
 70
8
 71
3
 72
8
 73
4
 74
0
 40
0
 40
0
 40
0
 40
0
 40
1
 40
1
 40
1
 40
1
 10
312.729880
 20
-6.842435
 30
0.0
 10
312.726350
 20
-4.740102
 30
0.0
 10
311.876612
 20
-2.727709
 30
0.0
 10
310.372298
 20
-1.259086
 30
0.0
  0
SPLINE
  5
128
100
AcDbEntity
  8
0
 62
7
100
AcDbSpline
 70
8
 71
3
 72
8
 73
4
 74
0
 40
0
 40
0
 40
0
 40
0
 40
1
 40
1
 40
1
 40
1
 10
310.372298
 20
-1.259086
 30
0.0
 10
308.867984
 20
0.209537
 30
0.0
 10
306.835771
 20
1.010718
 30
0.0
 10
304.733960
 20
0.963776
 30
0.0
  0
LWPOLYLINE
  5
129
100
AcDbEntity
  8
0
 62
7
100
AcDbPolyline
 90
1
 70
1
 10
221.338648
 20
-2.079528
 30
0.0
  0
SPLINE
  5
12a
100
AcDbEntity
  8
0
 62
7
100
AcDbSpline
 70
8
 71
3
 72
8
 73
4
 74
0
 40
0
 40
0
 40
0
 40
0
 40
1
 40
1
 40
1
 40
1
 10
0.025001
 20
-94.383484
 30
0.0
 10
0.028541
 20
-96.485770
 30
0.0
 10
0.878249
 20
-98.498118
 30
0.0
 10
2.382511
 20
-99.966728
 30
0.0
  0
SPLINE
  5
12b
100
AcDbEntity
  8
0
 62
7
100
AcDbSpline
 70
8
 71
3
 72
8
 73
4
 74
0
 40
0
 40
0
 40
0
 40
0
 40
1
 40
1
 40
1
 40
1
 10
2.382511
 20
-99.966728
 30
0.0
 10
3.886772
 20
-101.435337
 30
0.0
 10
5.918919
 20
-102.236543
 30
0.0
 10
8.020685
 20
-102.189666
 30
0.0
  0
SPLINE
  5
12c
100
AcDbEntity
  8
0
 62
7
100
AcDbSpline
 70
8
 71
3
 72
8
 73
4
 74
0
 40
0
 40
0
 40
0
 40
0
 40
1
 40
1
 40
1
 40
1
 10
7.846390
 20
-4.255572
 30
0.0
 10
6.794790
 20
-4.255572
 30
0.0
 10
5.846738
 20
-4.889040
 30
0.0
 10
5.444308
 20
-5.860592
 30
0.0
  0
SPLINE
  5
12d
100
AcDbEntity
  8
0
 62
7
100
AcDbSpline
 70
8
 71
3
 72
8
 73
4
 74
0
 40
0
 40
0
 40
0
 40
0
 40
1
 40
1
 40
1
 40
1
 10
5.444308
 20
-5.860592
 30
0.0
 10
5.041878
 20
-6.832143
 30
0.0
 10
5.264323
 20
-7.950447
 30
0.0
 10
6.007916
 20
-8.694041
 30
0.0
  0
SPLINE
  5
12e
100
AcDbEntity
  8
0
 62
7
100
AcDbSpline
 70
8
 71
3
 72
8
 73
4
 74
0
 40
0
 40
0
 40
0
 40
0
 40
1
 40
1
 40
1
 40
1
 10
6.007916
 20
-8.694041
 30
0.0
 10
6.751510
 20
-9.437634
 30
0.0
 10
7.869814
 20
-9.660078
 30
0.0
 10
8.841365
 20
-9.257649
 30
0.0
  0
SPLINE
  5
12f
100
AcDbEntity
  8
0
 62
7
100
AcDbSpline
 70
8
 71
3
 72
8
 73
4
 74
0
 40
0
 40
0
 40
0
 40
0
 40
1
 40
1
 40
1
 40
1
 10
8.841365
 20
-9.257649
 30
0.0
 10
9.812917
 20
-8.855219
 30
0.0
 10
10.446385
 20
-7.907166
 30
0.0
 10
10.446385
 20
-6.855567
 30
0.0
  0
SPLINE
  5
130
100
AcDbEntity
  8
0
 62
7
100
AcDbSpline
 70
8
 71
3
 72
8
 73
4
 74
0
 40
0
 40
0
 40
0
 40
0
 40
1
 40
1
 40
1
 40
1
 10
10.446385
 20
-6.855567
 30
0.0
 10
10.446385
 20
-5.419629
 30
0.0
 10
9.282328
 20
-4.255572
 30
0.0
 10
7.846390
 20
-4.255572
 30
0.0
  0
LWPOLYLINE
  5
131
100
AcDbEntity
  8
0
 62
7
100
AcDbPolyline
 90
2
 70
0
 10
0.022860
 20
-94.381198
 30
0.0
 10
0.025400
 20
-7.028058
 30
0.0
  0
SPLINE
  5
132
100
AcDbEntity
  8
0
 62
7
100
AcDbSpline
 70
8
 71
3
 72
8
 73
4
 74
0
 40
0
 40
0
 40
0
 40
0
 40
1
 40
1
 40
1
 40
1
 10
304.911760
 20
-91.769519
 30
0.0
 10
303.860160
 20
-91.769519
 30
0.0
 10
302.912108
 20
-92.402988
 30
0.0
 10
302.509678
 20
-93.374539
 30
0.0
  0
SPLINE
  5
133
100
AcDbEntity
  8
0
 62
7
100
AcDbSpline
 70
8
 71
3
 72
8
 73
4
 74
0
 40
0
 40
0
 40
0
 40
0
 40
1
 40
1
 40
1
 40
1
 10
302.509678
 20
-93.374539
 30
0.0
 10
302.107248
 20
-94.346091
 30
0.0
 10
302.329693
 20
-95.464395
 30
0.0
 10
303.073286
 20
-96.207988
 30
0.0
  0
SPLINE
  5
134
100
AcDbEntity
  8
0
 62
7
100
AcDbSpline
 70
8
 71
3
 72
8
 73
4
 74
0
 40
0
 40
0
 40
0
 40
0
 40
1
 40
1
 40
1
 40
1
 10
303.073286
 20
-96.207988
 30
0.0
 10
303.816879
 20
-96.951581
 30
0.0
 10
304.935183
 20
-97.174026
 30
0.0
 10
305.906735
 20
-96.771596
 30
0.0
  0
SPLINE
  5
135
100
AcDbEntity
  8
0
 62
7
100
AcDbSpline
 70
8
 71
3
 72
8
 73
4
 74
0
 40
0
 40
0
 40
0
 40
0
 40
1
 40
1
 40
1
 40
1
 10
305.906735
 20
-96.771596
 30
0.0
 10
306.878286
 20
-96.369166
 30
0.0
 10
307.511755
 20
-95.421114
 30
0.0
 10
307.511755
 20
-94.369514
 30
0.0
  0
SPLINE
  5
136
100
AcDbEntity
  8
0
 62
7
100
AcDbSpline
 70
8
 71
3
 72
8
 73
4
 74
0
 40
0
 40
0
 40
0
 40
0
 40
1
 40
1
 40
1
 40
1
 10
307.511755
 20
-94.369514
 30
0.0
 10
307.511755
 20
-93.679953
 30
0.0
 10
307.237828
 20
-93.018634
 30
0.0
 10
306.750234
 20
-92.531040
 30
0.0
  0
SPLINE
  5
137
100
AcDbEntity
  8
0
 62
7
100
AcDbSpline
 70
8
 71
3
 72
8
 73
4
 74
0
 40
0
 40
0
 40
0
 40
0
 40
1
 40
1
 40
1
 40
1
 10
306.750234
 20
-92.531040
 30
0.0
 10
306.262640
 20
-92.043447
 30
0.0
 10
305.601321
 20
-91.769519
 30
0.0
 10
304.911760
 20
-91.769519
 30
0.0
  0
LWPOLYLINE
  5
138
100
AcDbEntity
  8
0
 62
7
100
AcDbPolyline
 90
1
 70
1
 10
7.846390
 20
-4.255572
 30
0.0
  0
SPLINE
  5
139
100
AcDbEntity
  8
0
 62
7
100
AcDbSpline
 70
8
 71
3
 72
8
 73
4
 74
0
 40
0
 40
0
 40
0
 40
0
 40
1
 40
1
 40
1
 40
1
 10
7.833233
 20
0.965710
 30
0.0
 10
5.730946
 20
0.962176
 30
0.0
 10
3.718594
 20
0.112471
 30
0.0
 10
2.249980
 20
-1.391789
 30
0.0
  0
SPLINE
  5
13a
100
AcDbEntity
  8
0
 62
7
100
AcDbSpline
 70
8
 71
3
 72
8
 73
4
 74
0
 40
0
 40
0
 40
0
 40
0
 40
1
 40
1
 40
1
 40
1
 10
2.249980
 20
-1.391789
 30
0.0
 10
0.781366
 20
-2.896048
 30
0.0
 10
-0.019844
 20
-4.928196
 30
0.0
 10
0.027030
 20
-7.029963
 30
0.0
  0
LWPOLYLINE
  5
13b
100
AcDbEntity
  8
0
 62
7
100
AcDbPolyline
 90
1
 70
1
 10
304.911760
 20
-91.769519
 30
0.0
  0
SPLINE
  5
13c
100
AcDbEntity
  8
0
 62
7
100
AcDbSpline
 70
8
 71
3
 72
8
 73
4
 74
0
 40
0
 40
0
 40
0
 40
0
 40
1
 40
1
 40
1
 40
1
 10
7.846289
 20
-91.770535
 30
0.0
 10
6.794689
 20
-91.770535
 30
0.0
 10
5.846636
 20
-92.404004
 30
0.0
 10
5.444207
 20
-93.375555
 30
0.0
  0
SPLINE
  5
13d
100
AcDbEntity
  8
0
 62
7
100
AcDbSpline
 70
8
 71
3
 72
8
 73
4
 74
0
 40
0
 40
0
 40
0
 40
0
 40
1
 40
1
 40
1
 40
1
 10
5.444207
 20
-93.375555
 30
0.0
 10
5.041777
 20
-94.347107
 30
0.0
 10
5.264221
 20
-95.465411
 30
0.0
 10
6.007815
 20
-96.209004
 30
0.0
  0
SPLINE
  5
13e
100
AcDbEntity
  8
0
 62
7
100
AcDbSpline
 70
8
 71
3
 72
8
 73
4
 74
0
 40
0
 40
0
 40
0
 40
0
 40
1
 40
1
 40
1
 40
1
 10
6.007815
 20
-96.209004
 30
0.0
 10
6.751408
 20
-96.952597
 30
0.0
 10
7.869712
 20
-97.175042
 30
0.0
 10
8.841264
 20
-96.772612
 30
0.0
  0
SPLINE
  5
13f
100
AcDbEntity
  8
0
 62
7
100
AcDbSpline
 70
8
 71
3
 72
8
 73
4
 74
0
 40
0
 40
0
 40
0
 40
0
 40
1
 40
1
 40
1
 40
1
 10
8.841264
 20
-96.772612
 30
0.0
 10
9.812815
 20
-96.370182
 30
0.0
 10
10.446283
 20
-95.422130
 30
0.0
 10
10.446283
 20
-94.370530
 30
0.0
  0
SPLINE
  5
140
100
AcDbEntity
  8
0
 62
7
100
AcDbSpline
 70
8
 71
3
 72
8
 73
4
 74
0
 40
0
 40
0
 40
0
 40
0
 40
1
 40
1
 40
1
 40
1
 10
10.446283
 20
-94.370530
 30
0.0
 10
10.446283
 20
-92.934593
 30
0.0
 10
9.282226
 20
-91.770535
 30
0.0
 10
7.846289
 20
-91.770535
 30
0.0
  0
LWPOLYLINE
  5
141
100
AcDbEntity
  8
0
 62
7
100
AcDbPolyline
 90
2
 70
0
 10
304.921920
 20
-102.189158
 30
0.0
 10
8.018780
 20
-102.189158
 30
0.0
  0
LWPOLYLINE
  5
142
100
AcDbEntity
  8
0
 62
7
100
AcDbPolyline
 90
1
 70
1
 10
7.846289
 20
-91.770535
 30
0.0
  0
SPLINE
  5
143
100
AcDbEntity
  8
0
 62
7
100
AcDbSpline
 70
8
 71
3
 72
8
 73
4
 74
0
 40
0
 40
0
 40
0
 40
0
 40
1
 40
1
 40
1
 40
1
 10
304.924460
 20
-102.190682
 30
0.0
 10
307.026610
 20
-102.186938
 30
0.0
 10
309.038758
 20
-101.337142
 30
0.0
 10
310.507202
 20
-99.832907
 30
0.0
  0
SPLINE
  5
144
100
AcDbEntity
  8
0
 62
7
100
AcDbSpline
 70
8
 71
3
 72
8
 73
4
 74
0
 40
0
 40
0
 40
0
 40
0
 40
1
 40
1
 40
1
 40
1
 10
310.507202
 20
-99.832907
 30
0.0
 10
311.975645
 20
-98.328672
 30
0.0
 10
312.776750
 20
-96.296647
 30
0.0
 10
312.729880
 20
-94.195016
 30
0.0
  0
LWPOLYLINE
  5
145
100
AcDbEntity
  8
0
 62
7
100
AcDbPolyline
 90
2
 70
0
 10
312.729880
 20
-6.840098
 30
0.0
 10
312.729880
 20
-94.193238
 30
0.0
  0
ENDSEC
  0
SECTION
  2
OBJECTS
  0
DICTIONARY
  5
C
330
0
100
AcDbDictionary
  3
ACAD_GROUP
350
D
  3
ACAD_MLINESTYLE
350
17
  0
DICTIONARY
  5
D
330
C
100
AcDbDictionary
  0
DICTIONARY
  5
1A
330
C
100
AcDbDictionary
  0
DICTIONARY
  5
17
330
C
100
AcDbDictionary
  3
STANDARD
350
18
  0
DICTIONARY
  5
19
330
C
100
AcDbDictionary
  0
ENDSEC
  0
EOF
