  0
SECTION
  2
HEADER
  9
$ACADVER
  1
AC1014
  9
$HANDSEED
  5
FFFF
  9
$MEASUREMENT
 70
     1
  0
ENDSEC
  0
SECTION
  2
TABLES
  0
TABLE
  2
VPORT
  5
8
330
0
100
AcDbSymbolTable
 70
     4
  0
VPORT
  5
2E
330
8
100
AcDbSymbolTableRecord
100
AcDbViewportTableRecord
  2
*ACTIVE
 70
     0
 10
0.0
 20
0.0
 11
1.0
 21
1.0
 12
210.0
 22
148.5
 13
0.0
 23
0.0
 14
10.0
 24
10.0
 15
10.0
 25
10.0
 16
0.0
 26
0.0
 36
1.0
 17
0.0
 27
0.0
 37
0.0
 40
341.0
 41
1.24
 42
50.0
 43
0.0
 44
0.0
 50
0.0
 51
0.0
 71
     0
 72
   100
 73
     1
 74
     3
 75
     0
 76
     0
 77
     0
 78
     0
  0
ENDTAB
  0
TABLE
  2
LTYPE
  5
5
330
0
100
AcDbSymbolTable
 70
     1
  0
LTYPE
  5
14
330
5
100
AcDbSymbolTableRecord
100
AcDbLinetypeTableRecord
  2
BYBLOCK
 70
     0
  3

 72
    65
 73
     0
 40
0.0
  0
LTYPE
  5
15
330
5
100
AcDbSymbolTableRecord
100
AcDbLinetypeTableRecord
  2
BYLAYER
 70
     0
  3

 72
    65
 73
     0
 40
0.0
  0
LTYPE
  5
16
330
5
100
AcDbSymbolTableRecord
100
AcDbLinetypeTableRecord
  2
CONTINUOUS
 70
     0
  3
Solid line
 72
    65
 73
     0
 40
0.0
  0
ENDTAB
  0
TABLE
  2
LAYER
  5
2
100
AcDbSymbolTable
 70
1
  0
LAYER
  5
50
100
AcDbSymbolTableRecord
100
AcDbLayerTableRecord
  2
0
 70
0
  6
CONTINUOUS
  0
ENDTAB
  0
TABLE
  2
STYLE
  5
3
330
0
100
AcDbSymbolTable
 70
     1
  0
STYLE
  5
11
330
3
100
AcDbSymbolTableRecord
100
AcDbTextStyleTableRecord
  2
STANDARD
 70
     0
 40
0.0
 41
1.0
 50
0.0
 71
     0
 42
2.5
  3
txt
  4

  0
ENDTAB
  0
TABLE
  2
VIEW
  5
6
330
0
100
AcDbSymbolTable
 70
     0
  0
ENDTAB
  0
TABLE
  2
UCS
  5
7
330
0
100
AcDbSymbolTable
 70
     0
  0
ENDTAB
  0
TABLE
  2
APPID
  5
9
330
0
100
AcDbSymbolTable
 70
     2
  0
APPID
  5
12
330
9
100
AcDbSymbolTableRecord
100
AcDbRegAppTableRecord
  2
ACAD
 70
     0
  0
ENDTAB
  0
TABLE
  2
DIMSTYLE
  5
A
330
0
100
AcDbSymbolTable
 70
     1
  0
DIMSTYLE
105
27
330
A
100
AcDbSymbolTableRecord
100
AcDbDimStyleTableRecord
  2
ISO-25
 70
     0
  3

  4

  5

  6

  7

 40
1.0
 41
2.5
 42
0.625
 43
3.75
 44
1.25
 45
0.0
 46
0.0
 47
0.0
 48
0.0
140
2.5
141
2.5
142
0.0
143
0.03937007874016
144
1.0
145
0.0
146
1.0
147
0.625
 71
     0
 72
     0
 73
     0
 74
     0
 75
     0
 76
     0
 77
     1
 78
     8
170
     0
171
     3
172
     1
173
     0
174
     0
175
     0
176
     0
177
     0
178
     0
270
     2
271
     2
272
     2
273
     2
274
     3
340
11
275
     0
280
     0
281
     0
282
     0
283
     0
284
     8
285
     0
286
     0
287
     3
288
     0
  0
ENDTAB
  0
TABLE
  2
BLOCK_RECORD
  5
1
330
0
100
AcDbSymbolTable
 70
     1
  0
BLOCK_RECORD
  5
1F
330
1
100
AcDbSymbolTableRecord
100
AcDbBlockTableRecord
  2
*MODEL_SPACE
  0
BLOCK_RECORD
  5
1B
330
1
100
AcDbSymbolTableRecord
100
AcDbBlockTableRecord
  2
*PAPER_SPACE
  0
ENDTAB
  0
ENDSEC
  0
SECTION
  2
BLOCKS
  0
BLOCK
  5
20
330
1F
100
AcDbEntity
  8
0
100
AcDbBlockBegin
  2
*MODEL_SPACE
 70
     0
 10
0.0
 20
0.0
 30
0.0
  3
*MODEL_SPACE
  1

  0
ENDBLK
  5
21
330
1F
100
AcDbEntity
  8
0
100
AcDbBlockEnd
  0
BLOCK
  5
1C
330
1B
100
AcDbEntity
 67
     1
  8
0
100
AcDbBlockBegin
  2
*PAPER_SPACE
  1

  0
ENDBLK
  5
1D
330
1B
100
AcDbEntity
 67
     1
  8
0
100
AcDbBlockEnd
  0
ENDSEC
  0
SECTION
  2
ENTITIES
  0
SPLINE
  5
100
100
AcDbEntity
  8
0
 62
7
100
AcDbSpline
 70
8
 71
3
 72
8
 73
4
 74
0
 40
0
 40
0
 40
0
 40
0
 40
1
 40
1
 40
1
 40
1
 10
304.909220
 20
-4.260347
 30
0.0
 10
303.857620
 20
-4.260347
 30
0.0
 10
302.909568
 20
-4.893815
 30
0.0
 10
302.507138
 20
-5.865367
 30
0.0
  0
SPLINE
  5
101
100
AcDbEntity
  8
0
 62
7
100
AcDbSpline
 70
8
 71
3
 72
8
 73
4
 74
0
 40
0
 40
0
 40
0
 40
0
 40
1
 40
1
 40
1
 40
1
 10
302.507138
 20
-5.865367
 30
0.0
 10
302.104708
 20
-6.836918
 30
0.0
 10
302.327153
 20
-7.955223
 30
0.0
 10
303.070746
 20
-8.698816
 30
0.0
  0
SPLINE
  5
102
100
AcDbEntity
  8
0
 62
7
100
AcDbSpline
 70
8
 71
3
 72
8
 73
4
 74
0
 40
0
 40
0
 40
0
 40
0
 40
1
 40
1
 40
1
 40
1
 10
303.070746
 20
-8.698816
 30
0.0
 10
303.814339
 20
-9.442409
 30
0.0
 10
304.932643
 20
-9.664854
 30
0.0
 10
305.904195
 20
-9.262424
 30
0.0
  0
SPLINE
  5
103
100
AcDbEntity
  8
0
 62
7
100
AcDbSpline
 70
8
 71
3
 72
8
 73
4
 74
0
 40
0
 40
0
 40
0
 40
0
 40
1
 40
1
 40
1
 40
1
 10
305.904195
 20
-9.262424
 30
0.0
 10
306.875746
 20
-8.859994
 30
0.0
 10
307.509215
 20
-7.911942
 30
0.0
 10
307.509215
 20
-6.860342
 30
0.0
  0
SPLINE
  5
104
100
AcDbEntity
  8
0
 62
7
100
AcDbSpline
 70
8
 71
3
 72
8
 73
4
 74
0
 40
0
 40
0
 40
0
 40
0
 40
1
 40
1
 40
1
 40
1
 10
307.509215
 20
-6.860342
 30
0.0
 10
307.509215
 20
-6.170780
 30
0.0
 10
307.235288
 20
-5.509462
 30
0.0
 10
306.747694
 20
-5.021868
 30
0.0
  0
SPLINE
  5
105
100
AcDbEntity
  8
0
 62
7
100
AcDbSpline
 70
8
 71
3
 72
8
 73
4
 74
0
 40
0
 40
0
 40
0
 40
0
 40
1
 40
1
 40
1
 40
1
 10
306.747694
 20
-5.021868
 30
0.0
 10
306.260100
 20
-4.534274
 30
0.0
 10
305.598781
 20
-4.260347
 30
0.0
 10
304.909220
 20
-4.260347
 30
0.0
  0
SPLINE
  5
106
100
AcDbEntity
  8
0
 62
7
100
AcDbSpline
 70
8
 71
3
 72
8
 73
4
 74
0
 40
0
 40
0
 40
0
 40
0
 40
1
 40
1
 40
1
 40
1
 10
49.886362
 20
-2.084278
 30
0.0
 10
48.834762
 20
-2.084278
 30
0.0
 10
47.886710
 20
-2.717747
 30
0.0
 10
47.484280
 20
-3.689298
 30
0.0
  0
SPLINE
  5
107
100
AcDbEntity
  8
0
 62
7
100
AcDbSpline
 70
8
 71
3
 72
8
 73
4
 74
0
 40
0
 40
0
 40
0
 40
0
 40
1
 40
1
 40
1
 40
1
 10
47.484280
 20
-3.689298
 30
0.0
 10
47.081850
 20
-4.660850
 30
0.0
 10
47.304295
 20
-5.779154
 30
0.0
 10
48.047888
 20
-6.522747
 30
0.0
  0
SPLINE
  5
108
100
AcDbEntity
  8
0
 62
7
100
AcDbSpline
 70
8
 71
3
 72
8
 73
4
 74
0
 40
0
 40
0
 40
0
 40
0
 40
1
 40
1
 40
1
 40
1
 10
48.047888
 20
-6.522747
 30
0.0
 10
48.791481
 20
-7.266340
 30
0.0
 10
49.909785
 20
-7.488785
 30
0.0
 10
50.881337
 20
-7.086355
 30
0.0
  0
SPLINE
  5
109
100
AcDbEntity
  8
0
 62
7
100
AcDbSpline
 70
8
 71
3
 72
8
 73
4
 74
0
 40
0
 40
0
 40
0
 40
0
 40
1
 40
1
 40
1
 40
1
 10
50.881337
 20
-7.086355
 30
0.0
 10
51.852888
 20
-6.683925
 30
0.0
 10
52.486357
 20
-5.735873
 30
0.0
 10
52.486357
 20
-4.684273
 30
0.0
  0
SPLINE
  5
10a
100
AcDbEntity
  8
0
 62
7
100
AcDbSpline
 70
8
 71
3
 72
8
 73
4
 74
0
 40
0
 40
0
 40
0
 40
0
 40
1
 40
1
 40
1
 40
1
 10
52.486357
 20
-4.684273
 30
0.0
 10
52.486357
 20
-3.994712
 30
0.0
 10
52.212430
 20
-3.333393
 30
0.0
 10
51.724836
 20
-2.845799
 30
0.0
  0
SPLINE
  5
10b
100
AcDbEntity
  8
0
 62
7
100
AcDbSpline
 70
8
 71
3
 72
8
 73
4
 74
0
 40
0
 40
0
 40
0
 40
0
 40
1
 40
1
 40
1
 40
1
 10
51.724836
 20
-2.845799
 30
0.0
 10
51.237242
 20
-2.358206
 30
0.0
 10
50.575923
 20
-2.084278
 30
0.0
 10
49.886362
 20
-2.084278
 30
0.0
  0
LWPOLYLINE
  5
10c
100
AcDbEntity
  8
0
 62
7
100
AcDbPolyline
 90
1
 70
1
 10
304.909220
 20
-4.260347
 30
0.0
  0
SPLINE
  5
10d
100
AcDbEntity
  8
0
 62
7
100
AcDbSpline
 70
8
 71
3
 72
8
 73
4
 74
0
 40
0
 40
0
 40
0
 40
0
 40
1
 40
1
 40
1
 40
1
 10
91.416378
 20
-2.084278
 30
0.0
 10
89.980441
 20
-2.084278
 30
0.0
 10
88.816383
 20
-3.248336
 30
0.0
 10
88.816383
 20
-4.684273
 30
0.0
  0
SPLINE
  5
10e
100
AcDbEntity
  8
0
 62
7
100
AcDbSpline
 70
8
 71
3
 72
8
 73
4
 74
0
 40
0
 40
0
 40
0
 40
0
 40
1
 40
1
 40
1
 40
1
 10
88.816383
 20
-4.684273
 30
0.0
 10
88.816383
 20
-6.120211
 30
0.0
 10
89.980441
 20
-7.284268
 30
0.0
 10
91.416378
 20
-7.284268
 30
0.0
  0
SPLINE
  5
10f
100
AcDbEntity
  8
0
 62
7
100
AcDbSpline
 70
8
 71
3
 72
8
 73
4
 74
0
 40
0
 40
0
 40
0
 40
0
 40
1
 40
1
 40
1
 40
1
 10
91.416378
 20
-7.284268
 30
0.0
 10
92.852315
 20
-7.284268
 30
0.0
 10
94.016373
 20
-6.120211
 30
0.0
 10
94.016373
 20
-4.684273
 30
0.0
  0
SPLINE
  5
110
100
AcDbEntity
  8
0
 62
7
100
AcDbSpline
 70
8
 71
3
 72
8
 73
4
 74
0
 40
0
 40
0
 40
0
 40
0
 40
1
 40
1
 40
1
 40
1
 10
94.016373
 20
-4.684273
 30
0.0
 10
94.016373
 20
-3.994712
 30
0.0
 10
93.742446
 20
-3.333393
 30
0.0
 10
93.254852
 20
-2.845799
 30
0.0
  0
SPLINE
  5
111
100
AcDbEntity
  8
0
 62
7
100
AcDbSpline
 70
8
 71
3
 72
8
 73
4
 74
0
 40
0
 40
0
 40
0
 40
0
 40
1
 40
1
 40
1
 40
1
 10
93.254852
 20
-2.845799
 30
0.0
 10
92.767258
 20
-2.358206
 30
0.0
 10
92.105939
 20
-2.084278
 30
0.0
 10
91.416378
 20
-2.084278
 30
0.0
  0
LWPOLYLINE
  5
112
100
AcDbEntity
  8
0
 62
7
100
AcDbPolyline
 90
1
 70
1
 10
49.886362
 20
-2.084278
 30
0.0
  0
SPLINE
  5
113
100
AcDbEntity
  8
0
 62
7
100
AcDbSpline
 70
8
 71
3
 72
8
 73
4
 74
0
 40
0
 40
0
 40
0
 40
0
 40
1
 40
1
 40
1
 40
1
 10
262.869680
 20
-2.084278
 30
0.0
 10
261.818080
 20
-2.084278
 30
0.0
 10
260.870028
 20
-2.717747
 30
0.0
 10
260.467598
 20
-3.689298
 30
0.0
  0
SPLINE
  5
114
100
AcDbEntity
  8
0
 62
7
100
AcDbSpline
 70
8
 71
3
 72
8
 73
4
 74
0
 40
0
 40
0
 40
0
 40
0
 40
1
 40
1
 40
1
 40
1
 10
260.467598
 20
-3.689298
 30
0.0
 10
260.065168
 20
-4.660850
 30
0.0
 10
260.287613
 20
-5.779154
 30
0.0
 10
261.031206
 20
-6.522747
 30
0.0
  0
SPLINE
  5
115
100
AcDbEntity
  8
0
 62
7
100
AcDbSpline
 70
8
 71
3
 72
8
 73
4
 74
0
 40
0
 40
0
 40
0
 40
0
 40
1
 40
1
 40
1
 40
1
 10
261.031206
 20
-6.522747
 30
0.0
 10
261.774799
 20
-7.266340
 30
0.0
 10
262.893103
 20
-7.488785
 30
0.0
 10
263.864655
 20
-7.086355
 30
0.0
  0
SPLINE
  5
116
100
AcDbEntity
  8
0
 62
7
100
AcDbSpline
 70
8
 71
3
 72
8
 73
4
 74
0
 40
0
 40
0
 40
0
 40
0
 40
1
 40
1
 40
1
 40
1
 10
263.864655
 20
-7.086355
 30
0.0
 10
264.836206
 20
-6.683925
 30
0.0
 10
265.469675
 20
-5.735873
 30
0.0
 10
265.469675
 20
-4.684273
 30
0.0
  0
SPLINE
  5
117
100
AcDbEntity
  8
0
 62
7
100
AcDbSpline
 70
8
 71
3
 72
8
 73
4
 74
0
 40
0
 40
0
 40
0
 40
0
 40
1
 40
1
 40
1
 40
1
 10
265.469675
 20
-4.684273
 30
0.0
 10
265.469675
 20
-3.994712
 30
0.0
 10
265.195748
 20
-3.333393
 30
0.0
 10
264.708154
 20
-2.845799
 30
0.0
  0
SPLINE
  5
118
100
AcDbEntity
  8
0
 62
7
100
AcDbSpline
 70
8
 71
3
 72
8
 73
4
 74
0
 40
0
 40
0
 40
0
 40
0
 40
1
 40
1
 40
1
 40
1
 10
264.708154
 20
-2.845799
 30
0.0
 10
264.220560
 20
-2.358206
 30
0.0
 10
263.559241
 20
-2.084278
 30
0.0
 10
262.869680
 20
-2.084278
 30
0.0
  0
LWPOLYLINE
  5
119
100
AcDbEntity
  8
0
 62
7
100
AcDbPolyline
 90
1
 70
1
 10
91.416378
 20
-2.084278
 30
0.0
  0
SPLINE
  5
11a
100
AcDbEntity
  8
0
 62
7
100
AcDbSpline
 70
8
 71
3
 72
8
 73
4
 74
0
 40
0
 40
0
 40
0
 40
0
 40
1
 40
1
 40
1
 40
1
 10
221.338648
 20
-2.084278
 30
0.0
 10
220.287048
 20
-2.084278
 30
0.0
 10
219.338996
 20
-2.717747
 30
0.0
 10
218.936566
 20
-3.689298
 30
0.0
  0
SPLINE
  5
11b
100
AcDbEntity
  8
0
 62
7
100
AcDbSpline
 70
8
 71
3
 72
8
 73
4
 74
0
 40
0
 40
0
 40
0
 40
0
 40
1
 40
1
 40
1
 40
1
 10
218.936566
 20
-3.689298
 30
0.0
 10
218.534136
 20
-4.660850
 30
0.0
 10
218.756581
 20
-5.779154
 30
0.0
 10
219.500174
 20
-6.522747
 30
0.0
  0
SPLINE
  5
11c
100
AcDbEntity
  8
0
 62
7
100
AcDbSpline
 70
8
 71
3
 72
8
 73
4
 74
0
 40
0
 40
0
 40
0
 40
0
 40
1
 40
1
 40
1
 40
1
 10
219.500174
 20
-6.522747
 30
0.0
 10
220.243767
 20
-7.266340
 30
0.0
 10
221.362071
 20
-7.488785
 30
0.0
 10
222.333623
 20
-7.086355
 30
0.0
  0
SPLINE
  5
11d
100
AcDbEntity
  8
0
 62
7
100
AcDbSpline
 70
8
 71
3
 72
8
 73
4
 74
0
 40
0
 40
0
 40
0
 40
0
 40
1
 40
1
 40
1
 40
1
 10
222.333623
 20
-7.086355
 30
0.0
 10
223.305174
 20
-6.683925
 30
0.0
 10
223.938643
 20
-5.735873
 30
0.0
 10
223.938643
 20
-4.684273
 30
0.0
  0
SPLINE
  5
11e
100
AcDbEntity
  8
0
 62
7
100
AcDbSpline
 70
8
 71
3
 72
8
 73
4
 74
0
 40
0
 40
0
 40
0
 40
0
 40
1
 40
1
 40
1
 40
1
 10
223.938643
 20
-4.684273
 30
0.0
 10
223.938643
 20
-3.248336
 30
0.0
 10
222.774585
 20
-2.084278
 30
0.0
 10
221.338648
 20
-2.084278
 30
0.0
  0
LWPOLYLINE
  5
11f
100
AcDbEntity
  8
0
 62
7
100
AcDbPolyline
 90
1
 70
1
 10
262.869680
 20
-2.084278
 30
0.0
  0
LWPOLYLINE
  5
120
100
AcDbEntity
  8
0
 62
7
100
AcDbPolyline
 90
1
 70
1
 10
221.338648
 20
-2.084278
 30
0.0
  0
SPLINE
  5
121
100
AcDbEntity
  8
0
 62
7
100
AcDbSpline
 70
8
 71
3
 72
8
 73
4
 74
0
 40
0
 40
0
 40
0
 40
0
 40
1
 40
1
 40
1
 40
1
 10
312.729880
 20
-6.847185
 30
0.0
 10
312.726347
 20
-4.744854
 30
0.0
 10
311.876609
 20
-2.732463
 30
0.0
 10
310.372295
 20
-1.263841
 30
0.0
  0
SPLINE
  5
122
100
AcDbEntity
  8
0
 62
7
100
AcDbSpline
 70
8
 71
3
 72
8
 73
4
 74
0
 40
0
 40
0
 40
0
 40
0
 40
1
 40
1
 40
1
 40
1
 10
310.372295
 20
-1.263841
 30
0.0
 10
308.867981
 20
0.204780
 30
0.0
 10
306.835770
 20
1.005960
 30
0.0
 10
304.733960
 20
0.959018
 30
0.0
  0
LWPOLYLINE
  5
123
100
AcDbEntity
  8
0
 62
7
100
AcDbPolyline
 90
2
 70
0
 10
304.733960
 20
0.960242
 30
0.0
 10
250.868180
 20
0.967862
 30
0.0
  0
LWPOLYLINE
  5
124
100
AcDbEntity
  8
0
 62
7
100
AcDbPolyline
 90
2
 70
0
 10
300.253400
 20
-10.322438
 30
0.0
 10
296.026840
 20
-10.322438
 30
0.0
  0
SPLINE
  5
125
100
AcDbEntity
  8
0
 62
7
100
AcDbSpline
 70
8
 71
3
 72
8
 73
4
 74
0
 40
0
 40
0
 40
0
 40
0
 40
1
 40
1
 40
1
 40
1
 10
250.868688
 20
0.965721
 30
0.0
 10
250.316404
 20
0.965720
 30
0.0
 10
249.868690
 20
0.518004
 30
0.0
 10
249.868690
 20
-0.034280
 30
0.0
  0
SPLINE
  5
126
100
AcDbEntity
  8
0
 62
7
100
AcDbSpline
 70
8
 71
3
 72
8
 73
4
 74
0
 40
0
 40
0
 40
0
 40
0
 40
1
 40
1
 40
1
 40
1
 10
233.338624
 20
-10.324267
 30
0.0
 10
233.890907
 20
-10.324265
 30
0.0
 10
234.338621
 20
-9.876552
 30
0.0
 10
234.338622
 20
-9.324269
 30
0.0
  0
LWPOLYLINE
  5
127
100
AcDbEntity
  8
0
 62
7
100
AcDbPolyline
 90
2
 70
0
 10
295.927780
 20
-10.126858
 30
0.0
 10
295.927780
 20
-10.223378
 30
0.0
  0
SPLINE
  5
128
100
AcDbEntity
  8
0
 62
7
100
AcDbSpline
 70
8
 71
3
 72
8
 73
4
 74
0
 40
0
 40
0
 40
0
 40
0
 40
1
 40
1
 40
1
 40
1
 10
249.868690
 20
-9.324269
 30
0.0
 10
249.868691
 20
-9.876552
 30
0.0
 10
250.316405
 20
-10.324265
 30
0.0
 10
250.868688
 20
-10.324267
 30
0.0
  0
SPLINE
  5
129
100
AcDbEntity
  8
0
 62
7
100
AcDbSpline
 70
8
 71
3
 72
8
 73
4
 74
0
 40
0
 40
0
 40
0
 40
0
 40
1
 40
1
 40
1
 40
1
 10
234.338622
 20
-0.034280
 30
0.0
 10
234.338622
 20
0.518004
 30
0.0
 10
233.890908
 20
0.965720
 30
0.0
 10
233.338624
 20
0.965721
 30
0.0
  0
LWPOLYLINE
  5
12a
100
AcDbEntity
  8
0
 62
7
100
AcDbPolyline
 90
2
 70
0
 10
234.337860
 20
-0.012578
 30
0.0
 10
234.337860
 20
-9.324218
 30
0.0
  0
LWPOLYLINE
  5
12b
100
AcDbEntity
  8
0
 62
7
100
AcDbPolyline
 90
2
 70
0
 10
283.418280
 20
-10.322438
 30
0.0
 10
250.868180
 20
-10.322438
 30
0.0
  0
LWPOLYLINE
  5
12c
100
AcDbEntity
  8
0
 62
7
100
AcDbPolyline
 90
2
 70
0
 10
249.867420
 20
-0.032898
 30
0.0
 10
249.867420
 20
-9.324218
 30
0.0
  0
SPLINE
  5
12d
100
AcDbEntity
  8
0
 62
7
100
AcDbSpline
 70
8
 71
3
 72
8
 73
4
 74
0
 40
0
 40
0
 40
0
 40
0
 40
1
 40
1
 40
1
 40
1
 10
284.815280
 20
-8.836767
 30
0.0
 10
284.099508
 20
-8.837925
 30
0.0
 10
283.519875
 20
-9.418502
 30
0.0
 10
283.519880
 20
-10.134275
 30
0.0
  0
LWPOLYLINE
  5
12e
100
AcDbEntity
  8
0
 62
7
100
AcDbPolyline
 90
2
 70
0
 10
294.629840
 20
-8.828918
 30
0.0
 10
284.815280
 20
-8.836538
 30
0.0
  0
SPLINE
  5
12f
100
AcDbEntity
  8
0
 62
7
100
AcDbSpline
 70
8
 71
3
 72
8
 73
4
 74
0
 40
0
 40
0
 40
0
 40
0
 40
1
 40
1
 40
1
 40
1
 10
295.930320
 20
-10.128331
 30
0.0
 10
295.930322
 20
-9.784135
 30
0.0
 10
295.793562
 20
-9.454042
 30
0.0
 10
295.550138
 20
-9.210700
 30
0.0
  0
SPLINE
  5
130
100
AcDbEntity
  8
0
 62
7
100
AcDbSpline
 70
8
 71
3
 72
8
 73
4
 74
0
 40
0
 40
0
 40
0
 40
0
 40
1
 40
1
 40
1
 40
1
 10
295.550138
 20
-9.210700
 30
0.0
 10
295.306714
 20
-8.967357
 30
0.0
 10
294.976576
 20
-8.830707
 30
0.0
 10
294.632380
 20
-8.830823
 30
0.0
  0
LWPOLYLINE
  5
131
100
AcDbEntity
  8
0
 62
7
100
AcDbPolyline
 90
2
 70
0
 10
283.517340
 20
-10.131938
 30
0.0
 10
283.517340
 20
-10.223378
 30
0.0
  0
LWPOLYLINE
  5
132
100
AcDbEntity
  8
0
 62
7
100
AcDbPolyline
 90
2
 70
0
 10
0.022860
 20
-94.386278
 30
0.0
 10
0.025400
 20
-7.033138
 30
0.0
  0
SPLINE
  5
133
100
AcDbEntity
  8
0
 62
7
100
AcDbSpline
 70
8
 71
3
 72
8
 73
4
 74
0
 40
0
 40
0
 40
0
 40
0
 40
1
 40
1
 40
1
 40
1
 10
304.924460
 20
-102.195508
 30
0.0
 10
307.026610
 20
-102.191764
 30
0.0
 10
309.038758
 20
-101.341968
 30
0.0
 10
310.507202
 20
-99.837733
 30
0.0
  0
SPLINE
  5
134
100
AcDbEntity
  8
0
 62
7
100
AcDbSpline
 70
8
 71
3
 72
8
 73
4
 74
0
 40
0
 40
0
 40
0
 40
0
 40
1
 40
1
 40
1
 40
1
 10
310.507202
 20
-99.837733
 30
0.0
 10
311.975645
 20
-98.333498
 30
0.0
 10
312.776750
 20
-96.301473
 30
0.0
 10
312.729880
 20
-94.199842
 30
0.0
  0
LWPOLYLINE
  5
135
100
AcDbEntity
  8
0
 62
7
100
AcDbPolyline
 90
2
 70
0
 10
304.921920
 20
-102.194238
 30
0.0
 10
8.018780
 20
-102.194238
 30
0.0
  0
SPLINE
  5
136
100
AcDbEntity
  8
0
 62
7
100
AcDbSpline
 70
8
 71
3
 72
8
 73
4
 74
0
 40
0
 40
0
 40
0
 40
0
 40
1
 40
1
 40
1
 40
1
 10
7.833233
 20
0.960952
 30
0.0
 10
5.730947
 20
0.957418
 30
0.0
 10
3.718596
 20
0.107714
 30
0.0
 10
2.249983
 20
-1.396544
 30
0.0
  0
SPLINE
  5
137
100
AcDbEntity
  8
0
 62
7
100
AcDbSpline
 70
8
 71
3
 72
8
 73
4
 74
0
 40
0
 40
0
 40
0
 40
0
 40
1
 40
1
 40
1
 40
1
 10
2.249983
 20
-1.396544
 30
0.0
 10
0.781369
 20
-2.900802
 30
0.0
 10
-0.019841
 20
-4.932947
 30
0.0
 10
0.027030
 20
-7.034713
 30
0.0
  0
LWPOLYLINE
  5
138
100
AcDbEntity
  8
0
 62
7
100
AcDbPolyline
 90
2
 70
0
 10
7.830820
 20
0.962782
 30
0.0
 10
233.337100
 20
0.967862
 30
0.0
  0
LWPOLYLINE
  5
139
100
AcDbEntity
  8
0
 62
7
100
AcDbPolyline
 90
2
 70
0
 10
300.253400
 20
-89.715218
 30
0.0
 10
12.501880
 20
-89.717758
 30
0.0
  0
SPLINE
  5
13a
100
AcDbEntity
  8
0
 62
7
100
AcDbSpline
 70
8
 71
3
 72
8
 73
4
 74
0
 40
0
 40
0
 40
0
 40
0
 40
1
 40
1
 40
1
 40
1
 10
7.846390
 20
-4.260347
 30
0.0
 10
6.794790
 20
-4.260347
 30
0.0
 10
5.846738
 20
-4.893815
 30
0.0
 10
5.444308
 20
-5.865367
 30
0.0
  0
SPLINE
  5
13b
100
AcDbEntity
  8
0
 62
7
100
AcDbSpline
 70
8
 71
3
 72
8
 73
4
 74
0
 40
0
 40
0
 40
0
 40
0
 40
1
 40
1
 40
1
 40
1
 10
5.444308
 20
-5.865367
 30
0.0
 10
5.041878
 20
-6.836918
 30
0.0
 10
5.264323
 20
-7.955223
 30
0.0
 10
6.007916
 20
-8.698816
 30
0.0
  0
SPLINE
  5
13c
100
AcDbEntity
  8
0
 62
7
100
AcDbSpline
 70
8
 71
3
 72
8
 73
4
 74
0
 40
0
 40
0
 40
0
 40
0
 40
1
 40
1
 40
1
 40
1
 10
6.007916
 20
-8.698816
 30
0.0
 10
6.751510
 20
-9.442409
 30
0.0
 10
7.869814
 20
-9.664854
 30
0.0
 10
8.841365
 20
-9.262424
 30
0.0
  0
SPLINE
  5
13d
100
AcDbEntity
  8
0
 62
7
100
AcDbSpline
 70
8
 71
3
 72
8
 73
4
 74
0
 40
0
 40
0
 40
0
 40
0
 40
1
 40
1
 40
1
 40
1
 10
8.841365
 20
-9.262424
 30
0.0
 10
9.812917
 20
-8.859994
 30
0.0
 10
10.446385
 20
-7.911942
 30
0.0
 10
10.446385
 20
-6.860342
 30
0.0
  0
SPLINE
  5
13e
100
AcDbEntity
  8
0
 62
7
100
AcDbSpline
 70
8
 71
3
 72
8
 73
4
 74
0
 40
0
 40
0
 40
0
 40
0
 40
1
 40
1
 40
1
 40
1
 10
10.446385
 20
-6.860342
 30
0.0
 10
10.446385
 20
-5.424404
 30
0.0
 10
9.282328
 20
-4.260347
 30
0.0
 10
7.846390
 20
-4.260347
 30
0.0
  0
LWPOLYLINE
  5
13f
100
AcDbEntity
  8
0
 62
7
100
AcDbPolyline
 90
2
 70
0
 10
312.729880
 20
-6.845178
 30
0.0
 10
312.729880
 20
-94.198318
 30
0.0
  0
SPLINE
  5
140
100
AcDbEntity
  8
0
 62
7
100
AcDbSpline
 70
8
 71
3
 72
8
 73
4
 74
0
 40
0
 40
0
 40
0
 40
0
 40
1
 40
1
 40
1
 40
1
 10
304.911760
 20
-91.774345
 30
0.0
 10
303.860160
 20
-91.774345
 30
0.0
 10
302.912108
 20
-92.407814
 30
0.0
 10
302.509678
 20
-93.379365
 30
0.0
  0
SPLINE
  5
141
100
AcDbEntity
  8
0
 62
7
100
AcDbSpline
 70
8
 71
3
 72
8
 73
4
 74
0
 40
0
 40
0
 40
0
 40
0
 40
1
 40
1
 40
1
 40
1
 10
302.509678
 20
-93.379365
 30
0.0
 10
302.107248
 20
-94.350917
 30
0.0
 10
302.329693
 20
-95.469221
 30
0.0
 10
303.073286
 20
-96.212814
 30
0.0
  0
SPLINE
  5
142
100
AcDbEntity
  8
0
 62
7
100
AcDbSpline
 70
8
 71
3
 72
8
 73
4
 74
0
 40
0
 40
0
 40
0
 40
0
 40
1
 40
1
 40
1
 40
1
 10
303.073286
 20
-96.212814
 30
0.0
 10
303.816879
 20
-96.956407
 30
0.0
 10
304.935183
 20
-97.178852
 30
0.0
 10
305.906735
 20
-96.776422
 30
0.0
  0
SPLINE
  5
143
100
AcDbEntity
  8
0
 62
7
100
AcDbSpline
 70
8
 71
3
 72
8
 73
4
 74
0
 40
0
 40
0
 40
0
 40
0
 40
1
 40
1
 40
1
 40
1
 10
305.906735
 20
-96.776422
 30
0.0
 10
306.878286
 20
-96.373992
 30
0.0
 10
307.511755
 20
-95.425940
 30
0.0
 10
307.511755
 20
-94.374340
 30
0.0
  0
SPLINE
  5
144
100
AcDbEntity
  8
0
 62
7
100
AcDbSpline
 70
8
 71
3
 72
8
 73
4
 74
0
 40
0
 40
0
 40
0
 40
0
 40
1
 40
1
 40
1
 40
1
 10
307.511755
 20
-94.374340
 30
0.0
 10
307.511755
 20
-93.684779
 30
0.0
 10
307.237828
 20
-93.023460
 30
0.0
 10
306.750234
 20
-92.535866
 30
0.0
  0
SPLINE
  5
145
100
AcDbEntity
  8
0
 62
7
100
AcDbSpline
 70
8
 71
3
 72
8
 73
4
 74
0
 40
0
 40
0
 40
0
 40
0
 40
1
 40
1
 40
1
 40
1
 10
306.750234
 20
-92.535866
 30
0.0
 10
306.262640
 20
-92.048273
 30
0.0
 10
305.601321
 20
-91.774345
 30
0.0
 10
304.911760
 20
-91.774345
 30
0.0
  0
LWPOLYLINE
  5
146
100
AcDbEntity
  8
0
 62
7
100
AcDbPolyline
 90
1
 70
1
 10
7.846390
 20
-4.260347
 30
0.0
  0
LWPOLYLINE
  5
147
100
AcDbEntity
  8
0
 62
7
100
AcDbPolyline
 90
1
 70
1
 10
304.911760
 20
-91.774345
 30
0.0
  0
SPLINE
  5
148
100
AcDbEntity
  8
0
 62
7
100
AcDbSpline
 70
8
 71
3
 72
8
 73
4
 74
0
 40
0
 40
0
 40
0
 40
0
 40
1
 40
1
 40
1
 40
1
 10
0.025001
 20
-94.388310
 30
0.0
 10
0.028541
 20
-96.490596
 30
0.0
 10
0.878249
 20
-98.502944
 30
0.0
 10
2.382511
 20
-99.971554
 30
0.0
  0
SPLINE
  5
149
100
AcDbEntity
  8
0
 62
7
100
AcDbSpline
 70
8
 71
3
 72
8
 73
4
 74
0
 40
0
 40
0
 40
0
 40
0
 40
1
 40
1
 40
1
 40
1
 10
2.382511
 20
-99.971554
 30
0.0
 10
3.886772
 20
-101.440163
 30
0.0
 10
5.918919
 20
-102.241369
 30
0.0
 10
8.020685
 20
-102.194492
 30
0.0
  0
SPLINE
  5
14a
100
AcDbEntity
  8
0
 62
7
100
AcDbSpline
 70
8
 71
3
 72
8
 73
4
 74
0
 40
0
 40
0
 40
0
 40
0
 40
1
 40
1
 40
1
 40
1
 10
7.846289
 20
-91.775107
 30
0.0
 10
6.794689
 20
-91.775107
 30
0.0
 10
5.846636
 20
-92.408576
 30
0.0
 10
5.444207
 20
-93.380127
 30
0.0
  0
SPLINE
  5
14b
100
AcDbEntity
  8
0
 62
7
100
AcDbSpline
 70
8
 71
3
 72
8
 73
4
 74
0
 40
0
 40
0
 40
0
 40
0
 40
1
 40
1
 40
1
 40
1
 10
5.444207
 20
-93.380127
 30
0.0
 10
5.041777
 20
-94.351679
 30
0.0
 10
5.264221
 20
-95.469983
 30
0.0
 10
6.007815
 20
-96.213576
 30
0.0
  0
SPLINE
  5
14c
100
AcDbEntity
  8
0
 62
7
100
AcDbSpline
 70
8
 71
3
 72
8
 73
4
 74
0
 40
0
 40
0
 40
0
 40
0
 40
1
 40
1
 40
1
 40
1
 10
6.007815
 20
-96.213576
 30
0.0
 10
6.751408
 20
-96.957169
 30
0.0
 10
7.869712
 20
-97.179614
 30
0.0
 10
8.841264
 20
-96.777184
 30
0.0
  0
SPLINE
  5
14d
100
AcDbEntity
  8
0
 62
7
100
AcDbSpline
 70
8
 71
3
 72
8
 73
4
 74
0
 40
0
 40
0
 40
0
 40
0
 40
1
 40
1
 40
1
 40
1
 10
8.841264
 20
-96.777184
 30
0.0
 10
9.812815
 20
-96.374754
 30
0.0
 10
10.446283
 20
-95.426702
 30
0.0
 10
10.446283
 20
-94.375102
 30
0.0
  0
SPLINE
  5
14e
100
AcDbEntity
  8
0
 62
7
100
AcDbSpline
 70
8
 71
3
 72
8
 73
4
 74
0
 40
0
 40
0
 40
0
 40
0
 40
1
 40
1
 40
1
 40
1
 10
10.446283
 20
-94.375102
 30
0.0
 10
10.446283
 20
-92.939165
 30
0.0
 10
9.282226
 20
-91.775107
 30
0.0
 10
7.846289
 20
-91.775107
 30
0.0
  0
LWPOLYLINE
  5
14f
100
AcDbEntity
  8
0
 62
7
100
AcDbPolyline
 90
3
 70
0
 10
12.501880
 20
-89.717758
 30
0.0
 10
12.501880
 20
-10.322438
 30
0.0
 10
233.337100
 20
-10.322438
 30
0.0
  0
LWPOLYLINE
  5
150
100
AcDbEntity
  8
0
 62
7
100
AcDbPolyline
 90
1
 70
1
 10
7.846289
 20
-91.775107
 30
0.0
  0
SPLINE
  5
151
100
AcDbEntity
  8
0
 62
7
100
AcDbSpline
 70
8
 71
3
 72
8
 73
4
 74
0
 40
0
 40
0
 40
0
 40
0
 40
1
 40
1
 40
1
 40
1
 10
283.418280
 20
-10.324267
 30
0.0
 10
283.445078
 20
-10.324696
 30
0.0
 10
283.470926
 20
-10.314350
 30
0.0
 10
283.490027
 20
-10.295549
 30
0.0
  0
SPLINE
  5
152
100
AcDbEntity
  8
0
 62
7
100
AcDbSpline
 70
8
 71
3
 72
8
 73
4
 74
0
 40
0
 40
0
 40
0
 40
0
 40
1
 40
1
 40
1
 40
1
 10
283.490027
 20
-10.295549
 30
0.0
 10
283.509128
 20
-10.276749
 30
0.0
 10
283.519883
 20
-10.251068
 30
0.0
 10
283.519880
 20
-10.224267
 30
0.0
  0
SPLINE
  5
153
100
AcDbEntity
  8
0
 62
7
100
AcDbSpline
 70
8
 71
3
 72
8
 73
4
 74
0
 40
0
 40
0
 40
0
 40
0
 40
1
 40
1
 40
1
 40
1
 10
295.927780
 20
-10.224267
 30
0.0
 10
295.927777
 20
-10.251068
 30
0.0
 10
295.938532
 20
-10.276749
 30
0.0
 10
295.957633
 20
-10.295549
 30
0.0
  0
SPLINE
  5
154
100
AcDbEntity
  8
0
 62
7
100
AcDbSpline
 70
8
 71
3
 72
8
 73
4
 74
0
 40
0
 40
0
 40
0
 40
0
 40
1
 40
1
 40
1
 40
1
 10
295.957633
 20
-10.295549
 30
0.0
 10
295.976734
 20
-10.314350
 30
0.0
 10
296.002582
 20
-10.324696
 30
0.0
 10
296.029380
 20
-10.324267
 30
0.0
  0
LWPOLYLINE
  5
155
100
AcDbEntity
  8
0
 62
7
100
AcDbPolyline
 90
2
 70
0
 10
300.253400
 20
-89.715218
 30
0.0
 10
300.253400
 20
-10.322438
 30
0.0
  0
ENDSEC
  0
SECTION
  2
OBJECTS
  0
DICTIONARY
  5
C
330
0
100
AcDbDictionary
  3
ACAD_GROUP
350
D
  3
ACAD_MLINESTYLE
350
17
  0
DICTIONARY
  5
D
330
C
100
AcDbDictionary
  0
DICTIONARY
  5
1A
330
C
100
AcDbDictionary
  0
DICTIONARY
  5
17
330
C
100
AcDbDictionary
  3
STANDARD
350
18
  0
DICTIONARY
  5
19
330
C
100
AcDbDictionary
  0
ENDSEC
  0
EOF
