  0
SECTION
  2
HEADER
  9
$ACADVER
  1
AC1014
  9
$HANDSEED
  5
FFFF
  9
$MEASUREMENT
 70
     1
  0
ENDSEC
  0
SECTION
  2
TABLES
  0
TABLE
  2
VPORT
  5
8
330
0
100
AcDbSymbolTable
 70
     4
  0
VPORT
  5
2E
330
8
100
AcDbSymbolTableRecord
100
AcDbViewportTableRecord
  2
*ACTIVE
 70
     0
 10
0.0
 20
0.0
 11
1.0
 21
1.0
 12
210.0
 22
148.5
 13
0.0
 23
0.0
 14
10.0
 24
10.0
 15
10.0
 25
10.0
 16
0.0
 26
0.0
 36
1.0
 17
0.0
 27
0.0
 37
0.0
 40
341.0
 41
1.24
 42
50.0
 43
0.0
 44
0.0
 50
0.0
 51
0.0
 71
     0
 72
   100
 73
     1
 74
     3
 75
     0
 76
     0
 77
     0
 78
     0
  0
ENDTAB
  0
TABLE
  2
LTYPE
  5
5
330
0
100
AcDbSymbolTable
 70
     1
  0
LTYPE
  5
14
330
5
100
AcDbSymbolTableRecord
100
AcDbLinetypeTableRecord
  2
BYBLOCK
 70
     0
  3

 72
    65
 73
     0
 40
0.0
  0
LTYPE
  5
15
330
5
100
AcDbSymbolTableRecord
100
AcDbLinetypeTableRecord
  2
BYLAYER
 70
     0
  3

 72
    65
 73
     0
 40
0.0
  0
LTYPE
  5
16
330
5
100
AcDbSymbolTableRecord
100
AcDbLinetypeTableRecord
  2
CONTINUOUS
 70
     0
  3
Solid line
 72
    65
 73
     0
 40
0.0
  0
ENDTAB
  0
TABLE
  2
LAYER
  5
2
100
AcDbSymbolTable
 70
1
  0
LAYER
  5
50
100
AcDbSymbolTableRecord
100
AcDbLayerTableRecord
  2
0
 70
0
  6
CONTINUOUS
  0
ENDTAB
  0
TABLE
  2
STYLE
  5
3
330
0
100
AcDbSymbolTable
 70
     1
  0
STYLE
  5
11
330
3
100
AcDbSymbolTableRecord
100
AcDbTextStyleTableRecord
  2
STANDARD
 70
     0
 40
0.0
 41
1.0
 50
0.0
 71
     0
 42
2.5
  3
txt
  4

  0
ENDTAB
  0
TABLE
  2
VIEW
  5
6
330
0
100
AcDbSymbolTable
 70
     0
  0
ENDTAB
  0
TABLE
  2
UCS
  5
7
330
0
100
AcDbSymbolTable
 70
     0
  0
ENDTAB
  0
TABLE
  2
APPID
  5
9
330
0
100
AcDbSymbolTable
 70
     2
  0
APPID
  5
12
330
9
100
AcDbSymbolTableRecord
100
AcDbRegAppTableRecord
  2
ACAD
 70
     0
  0
ENDTAB
  0
TABLE
  2
DIMSTYLE
  5
A
330
0
100
AcDbSymbolTable
 70
     1
  0
DIMSTYLE
105
27
330
A
100
AcDbSymbolTableRecord
100
AcDbDimStyleTableRecord
  2
ISO-25
 70
     0
  3

  4

  5

  6

  7

 40
1.0
 41
2.5
 42
0.625
 43
3.75
 44
1.25
 45
0.0
 46
0.0
 47
0.0
 48
0.0
140
2.5
141
2.5
142
0.0
143
0.03937007874016
144
1.0
145
0.0
146
1.0
147
0.625
 71
     0
 72
     0
 73
     0
 74
     0
 75
     0
 76
     0
 77
     1
 78
     8
170
     0
171
     3
172
     1
173
     0
174
     0
175
     0
176
     0
177
     0
178
     0
270
     2
271
     2
272
     2
273
     2
274
     3
340
11
275
     0
280
     0
281
     0
282
     0
283
     0
284
     8
285
     0
286
     0
287
     3
288
     0
  0
ENDTAB
  0
TABLE
  2
BLOCK_RECORD
  5
1
330
0
100
AcDbSymbolTable
 70
     1
  0
BLOCK_RECORD
  5
1F
330
1
100
AcDbSymbolTableRecord
100
AcDbBlockTableRecord
  2
*MODEL_SPACE
  0
BLOCK_RECORD
  5
1B
330
1
100
AcDbSymbolTableRecord
100
AcDbBlockTableRecord
  2
*PAPER_SPACE
  0
ENDTAB
  0
ENDSEC
  0
SECTION
  2
BLOCKS
  0
BLOCK
  5
20
330
1F
100
AcDbEntity
  8
0
100
AcDbBlockBegin
  2
*MODEL_SPACE
 70
     0
 10
0.0
 20
0.0
 30
0.0
  3
*MODEL_SPACE
  1

  0
ENDBLK
  5
21
330
1F
100
AcDbEntity
  8
0
100
AcDbBlockEnd
  0
BLOCK
  5
1C
330
1B
100
AcDbEntity
 67
     1
  8
0
100
AcDbBlockBegin
  2
*PAPER_SPACE
  1

  0
ENDBLK
  5
1D
330
1B
100
AcDbEntity
 67
     1
  8
0
100
AcDbBlockEnd
  0
ENDSEC
  0
SECTION
  2
ENTITIES
  0
LWPOLYLINE
  5
100
100
AcDbEntity
  8
0
 62
7
100
AcDbPolyline
 90
4
 70
1
 10
266.712700
 20
-30.337374
 30
0.0
 10
266.712700
 20
-44.337854
 30
0.0
 10
252.712220
 20
-44.337854
 30
0.0
 10
252.712220
 20
-30.337374
 30
0.0
  0
LWPOLYLINE
  5
101
100
AcDbEntity
  8
0
 62
7
100
AcDbPolyline
 90
4
 70
1
 10
74.117200
 20
-30.337374
 30
0.0
 10
88.117680
 20
-30.337374
 30
0.0
 10
88.117680
 20
-44.337854
 30
0.0
 10
74.117200
 20
-44.337854
 30
0.0
  0
LWPOLYLINE
  5
102
100
AcDbEntity
  8
0
 62
7
100
AcDbPolyline
 90
4
 70
1
 10
169.369740
 20
-30.337374
 30
0.0
 10
183.367680
 20
-30.337374
 30
0.0
 10
183.367680
 20
-44.337854
 30
0.0
 10
169.369740
 20
-44.337854
 30
0.0
  0
LWPOLYLINE
  5
103
100
AcDbEntity
  8
0
 62
7
100
AcDbPolyline
 90
4
 70
1
 10
55.067200
 20
-30.337374
 30
0.0
 10
69.067680
 20
-30.337374
 30
0.0
 10
69.067680
 20
-44.337854
 30
0.0
 10
55.067200
 20
-44.337854
 30
0.0
  0
LWPOLYLINE
  5
104
100
AcDbEntity
  8
0
 62
7
100
AcDbPolyline
 90
4
 70
1
 10
131.269740
 20
-30.337374
 30
0.0
 10
145.267680
 20
-30.337374
 30
0.0
 10
145.267680
 20
-44.337854
 30
0.0
 10
131.269740
 20
-44.337854
 30
0.0
  0
LWPOLYLINE
  5
105
100
AcDbEntity
  8
0
 62
7
100
AcDbPolyline
 90
4
 70
1
 10
226.519740
 20
-30.337374
 30
0.0
 10
240.520220
 20
-30.337374
 30
0.0
 10
240.520220
 20
-44.337854
 30
0.0
 10
226.519740
 20
-44.337854
 30
0.0
  0
LWPOLYLINE
  5
106
100
AcDbEntity
  8
0
 62
7
100
AcDbPolyline
 90
4
 70
1
 10
202.707240
 20
-11.287374
 30
0.0
 10
216.707720
 20
-11.287374
 30
0.0
 10
216.707720
 20
-25.287854
 30
0.0
 10
202.707240
 20
-25.287854
 30
0.0
  0
LWPOLYLINE
  5
107
100
AcDbEntity
  8
0
 62
7
100
AcDbPolyline
 90
4
 70
1
 10
207.469740
 20
-30.337374
 30
0.0
 10
221.470220
 20
-30.337374
 30
0.0
 10
221.470220
 20
-44.337854
 30
0.0
 10
207.469740
 20
-44.337854
 30
0.0
  0
LWPOLYLINE
  5
108
100
AcDbEntity
  8
0
 62
7
100
AcDbPolyline
 90
4
 70
1
 10
188.419740
 20
-30.337374
 30
0.0
 10
202.417680
 20
-30.337374
 30
0.0
 10
202.417680
 20
-44.337854
 30
0.0
 10
188.419740
 20
-44.337854
 30
0.0
  0
LWPOLYLINE
  5
109
100
AcDbEntity
  8
0
 62
7
100
AcDbPolyline
 90
4
 70
1
 10
69.354700
 20
-11.287374
 30
0.0
 10
83.355180
 20
-11.287374
 30
0.0
 10
83.355180
 20
-25.287854
 30
0.0
 10
69.354700
 20
-25.287854
 30
0.0
  0
LWPOLYLINE
  5
10a
100
AcDbEntity
  8
0
 62
7
100
AcDbPolyline
 90
4
 70
1
 10
164.607240
 20
-11.287374
 30
0.0
 10
178.605180
 20
-11.287374
 30
0.0
 10
178.605180
 20
-25.287854
 30
0.0
 10
164.607240
 20
-25.287854
 30
0.0
  0
LWPOLYLINE
  5
10b
100
AcDbEntity
  8
0
 62
7
100
AcDbPolyline
 90
4
 70
1
 10
145.557240
 20
-11.287374
 30
0.0
 10
159.555180
 20
-11.287374
 30
0.0
 10
159.555180
 20
-25.287854
 30
0.0
 10
145.557240
 20
-25.287854
 30
0.0
  0
LWPOLYLINE
  5
10c
100
AcDbEntity
  8
0
 62
7
100
AcDbPolyline
 90
4
 70
1
 10
88.407240
 20
-11.287374
 30
0.0
 10
102.405180
 20
-11.287374
 30
0.0
 10
102.405180
 20
-25.287854
 30
0.0
 10
88.407240
 20
-25.287854
 30
0.0
  0
LWPOLYLINE
  5
10d
100
AcDbEntity
  8
0
 62
7
100
AcDbPolyline
 90
4
 70
1
 10
31.254700
 20
-11.287374
 30
0.0
 10
45.255180
 20
-11.287374
 30
0.0
 10
45.255180
 20
-25.287854
 30
0.0
 10
31.254700
 20
-25.287854
 30
0.0
  0
LWPOLYLINE
  5
10e
100
AcDbEntity
  8
0
 62
7
100
AcDbPolyline
 90
4
 70
1
 10
36.017200
 20
-30.337374
 30
0.0
 10
50.017680
 20
-30.337374
 30
0.0
 10
50.017680
 20
-44.337854
 30
0.0
 10
36.017200
 20
-44.337854
 30
0.0
  0
LWPOLYLINE
  5
10f
100
AcDbEntity
  8
0
 62
7
100
AcDbPolyline
 90
4
 70
1
 10
150.319740
 20
-30.337374
 30
0.0
 10
164.317680
 20
-30.337374
 30
0.0
 10
164.317680
 20
-44.337854
 30
0.0
 10
150.319740
 20
-44.337854
 30
0.0
  0
LWPOLYLINE
  5
110
100
AcDbEntity
  8
0
 62
7
100
AcDbPolyline
 90
4
 70
1
 10
107.457240
 20
-11.287374
 30
0.0
 10
121.455180
 20
-11.287374
 30
0.0
 10
121.455180
 20
-25.287854
 30
0.0
 10
107.457240
 20
-25.287854
 30
0.0
  0
LWPOLYLINE
  5
111
100
AcDbEntity
  8
0
 62
7
100
AcDbPolyline
 90
4
 70
1
 10
221.757240
 20
-11.287374
 30
0.0
 10
235.757720
 20
-11.287374
 30
0.0
 10
235.757720
 20
-25.287854
 30
0.0
 10
221.757240
 20
-25.287854
 30
0.0
  0
LWPOLYLINE
  5
112
100
AcDbEntity
  8
0
 62
7
100
AcDbPolyline
 90
4
 70
1
 10
93.169740
 20
-30.337374
 30
0.0
 10
107.167680
 20
-30.337374
 30
0.0
 10
107.167680
 20
-44.337854
 30
0.0
 10
93.169740
 20
-44.337854
 30
0.0
  0
LWPOLYLINE
  5
113
100
AcDbEntity
  8
0
 62
7
100
AcDbPolyline
 90
4
 70
1
 10
183.657240
 20
-11.287374
 30
0.0
 10
197.655180
 20
-11.287374
 30
0.0
 10
197.655180
 20
-25.287854
 30
0.0
 10
183.657240
 20
-25.287854
 30
0.0
  0
LWPOLYLINE
  5
114
100
AcDbEntity
  8
0
 62
7
100
AcDbPolyline
 90
4
 70
1
 10
240.807240
 20
-11.287374
 30
0.0
 10
254.807720
 20
-11.287374
 30
0.0
 10
254.807720
 20
-25.287854
 30
0.0
 10
240.807240
 20
-25.287854
 30
0.0
  0
LWPOLYLINE
  5
115
100
AcDbEntity
  8
0
 62
7
100
AcDbPolyline
 90
4
 70
1
 10
14.587220
 20
-30.337374
 30
0.0
 10
28.587700
 20
-30.337374
 30
0.0
 10
28.587700
 20
-44.337854
 30
0.0
 10
14.587220
 20
-44.337854
 30
0.0
  0
LWPOLYLINE
  5
116
100
AcDbEntity
  8
0
 62
7
100
AcDbPolyline
 90
4
 70
1
 10
126.507240
 20
-11.287374
 30
0.0
 10
140.505180
 20
-11.287374
 30
0.0
 10
140.505180
 20
-25.287854
 30
0.0
 10
126.507240
 20
-25.287854
 30
0.0
  0
LWPOLYLINE
  5
117
100
AcDbEntity
  8
0
 62
7
100
AcDbPolyline
 90
4
 70
1
 10
50.304700
 20
-11.287374
 30
0.0
 10
64.305180
 20
-11.287374
 30
0.0
 10
64.305180
 20
-25.287854
 30
0.0
 10
50.304700
 20
-25.287854
 30
0.0
  0
LWPOLYLINE
  5
118
100
AcDbEntity
  8
0
 62
7
100
AcDbPolyline
 90
4
 70
1
 10
112.219740
 20
-30.337374
 30
0.0
 10
126.217680
 20
-30.337374
 30
0.0
 10
126.217680
 20
-44.337854
 30
0.0
 10
112.219740
 20
-44.337854
 30
0.0
  0
LWPOLYLINE
  5
119
100
AcDbEntity
  8
0
 62
7
100
AcDbPolyline
 90
4
 70
1
 10
278.907240
 20
-68.437374
 30
0.0
 10
292.907720
 20
-68.437374
 30
0.0
 10
292.907720
 20
-82.437854
 30
0.0
 10
278.907240
 20
-82.437854
 30
0.0
  0
LWPOLYLINE
  5
11a
100
AcDbEntity
  8
0
 62
7
100
AcDbPolyline
 90
4
 70
1
 10
31.254700
 20
-68.437374
 30
0.0
 10
45.255180
 20
-68.437374
 30
0.0
 10
45.255180
 20
-82.437854
 30
0.0
 10
31.254700
 20
-82.437854
 30
0.0
  0
LWPOLYLINE
  5
11b
100
AcDbEntity
  8
0
 62
7
100
AcDbPolyline
 90
4
 70
1
 10
12.204700
 20
-68.437374
 30
0.0
 10
26.205180
 20
-68.437374
 30
0.0
 10
26.205180
 20
-82.437854
 30
0.0
 10
12.204700
 20
-82.437854
 30
0.0
  0
LWPOLYLINE
  5
11c
100
AcDbEntity
  8
0
 62
7
100
AcDbPolyline
 90
4
 70
1
 10
259.857240
 20
-49.387374
 30
0.0
 10
273.857720
 20
-49.387374
 30
0.0
 10
273.857720
 20
-63.387854
 30
0.0
 10
259.857240
 20
-63.387854
 30
0.0
  0
LWPOLYLINE
  5
11d
100
AcDbEntity
  8
0
 62
7
100
AcDbPolyline
 90
4
 70
1
 10
190.799720
 20
-68.437374
 30
0.0
 10
204.800200
 20
-68.437374
 30
0.0
 10
204.800200
 20
-82.437854
 30
0.0
 10
190.799720
 20
-82.437854
 30
0.0
  0
LWPOLYLINE
  5
11e
100
AcDbEntity
  8
0
 62
7
100
AcDbPolyline
 90
4
 70
1
 10
259.857240
 20
-11.287374
 30
0.0
 10
273.857720
 20
-11.287374
 30
0.0
 10
273.857720
 20
-25.287854
 30
0.0
 10
259.857240
 20
-25.287854
 30
0.0
  0
LWPOLYLINE
  5
11f
100
AcDbEntity
  8
0
 62
7
100
AcDbPolyline
 90
4
 70
1
 10
240.807240
 20
-68.437374
 30
0.0
 10
254.807720
 20
-68.437374
 30
0.0
 10
254.807720
 20
-82.437854
 30
0.0
 10
240.807240
 20
-82.437854
 30
0.0
  0
LWPOLYLINE
  5
120
100
AcDbEntity
  8
0
 62
7
100
AcDbPolyline
 90
4
 70
1
 10
12.204700
 20
-11.287374
 30
0.0
 10
26.205180
 20
-11.287374
 30
0.0
 10
26.205180
 20
-25.287854
 30
0.0
 10
12.204700
 20
-25.287854
 30
0.0
  0
LWPOLYLINE
  5
121
100
AcDbEntity
  8
0
 62
7
100
AcDbPolyline
 90
4
 70
1
 10
214.612220
 20
-68.437374
 30
0.0
 10
228.612700
 20
-68.437374
 30
0.0
 10
228.612700
 20
-82.437854
 30
0.0
 10
214.612220
 20
-82.437854
 30
0.0
  0
LWPOLYLINE
  5
122
100
AcDbEntity
  8
0
 62
7
100
AcDbPolyline
 90
4
 70
1
 10
259.857240
 20
-68.437374
 30
0.0
 10
273.857720
 20
-68.437374
 30
0.0
 10
273.857720
 20
-82.437854
 30
0.0
 10
259.857240
 20
-82.437854
 30
0.0
  0
LWPOLYLINE
  5
123
100
AcDbEntity
  8
0
 62
7
100
AcDbPolyline
 90
2
 70
0
 10
230.995220
 20
-49.387374
 30
0.0
 10
230.995220
 20
-63.387854
 30
0.0
  0
LWPOLYLINE
  5
124
100
AcDbEntity
  8
0
 62
7
100
AcDbPolyline
 90
2
 70
0
 10
40.779700
 20
-63.387854
 30
0.0
 10
40.779700
 20
-49.387374
 30
0.0
  0
LWPOLYLINE
  5
125
100
AcDbEntity
  8
0
 62
7
100
AcDbPolyline
 90
2
 70
0
 10
230.995220
 20
-63.387854
 30
0.0
 10
40.779700
 20
-63.387854
 30
0.0
  0
LWPOLYLINE
  5
126
100
AcDbEntity
  8
0
 62
7
100
AcDbPolyline
 90
2
 70
0
 10
40.779700
 20
-49.387374
 30
0.0
 10
230.995220
 20
-49.387374
 30
0.0
  0
LWPOLYLINE
  5
127
100
AcDbEntity
  8
0
 62
7
100
AcDbPolyline
 90
2
 70
0
 10
281.165300
 20
-6.720454
 30
0.0
 10
281.165300
 20
-67.119114
 30
0.0
  0
LWPOLYLINE
  5
128
100
AcDbEntity
  8
0
 62
7
100
AcDbPolyline
 90
2
 70
0
 10
1.196340
 20
-87.792174
 30
0.0
 10
8.681720
 20
-80.319494
 30
0.0
  0
LWPOLYLINE
  5
129
100
AcDbEntity
  8
0
 62
7
100
AcDbPolyline
 90
2
 70
0
 10
281.165300
 20
-67.119114
 30
0.0
 10
290.576000
 20
-67.119114
 30
0.0
  0
LWPOLYLINE
  5
12a
100
AcDbEntity
  8
0
 62
7
100
AcDbPolyline
 90
2
 70
0
 10
281.165300
 20
-6.720454
 30
0.0
 10
290.576000
 20
-6.720454
 30
0.0
  0
LWPOLYLINE
  5
12b
100
AcDbEntity
  8
0
 62
7
100
AcDbPolyline
 90
2
 70
0
 10
265.737340
 20
-5.077074
 30
0.0
 10
11.676380
 20
-5.077074
 30
0.0
  0
SPLINE
  5
12c
100
AcDbEntity
  8
0
 62
7
100
AcDbSpline
 70
8
 71
3
 72
8
 73
4
 74
0
 40
0
 40
0
 40
0
 40
0
 40
1
 40
1
 40
1
 40
1
 10
303.918620
 20
-5.936102
 30
0.0
 10
305.462989
 20
-4.371073
 30
0.0
 10
305.454654
 20
-1.852954
 30
0.0
 10
303.899959
 20
-0.298182
 30
0.0
  0
SPLINE
  5
12d
100
AcDbEntity
  8
0
 62
7
100
AcDbSpline
 70
8
 71
3
 72
8
 73
4
 74
0
 40
0
 40
0
 40
0
 40
0
 40
1
 40
1
 40
1
 40
1
 10
303.899959
 20
-0.298182
 30
0.0
 10
302.345263
 20
1.256589
 30
0.0
 10
299.827144
 20
1.265046
 30
0.0
 10
298.262040
 20
-0.279248
 30
0.0
  0
LWPOLYLINE
  5
12e
100
AcDbEntity
  8
0
 62
7
100
AcDbPolyline
 90
2
 70
0
 10
290.576000
 20
-6.720454
 30
0.0
 10
290.576000
 20
-67.119114
 30
0.0
  0
SPLINE
  5
12f
100
AcDbEntity
  8
0
 62
7
100
AcDbSpline
 70
8
 71
3
 72
8
 73
4
 74
0
 40
0
 40
0
 40
0
 40
0
 40
1
 40
1
 40
1
 40
1
 10
6.853530
 20
-0.279248
 30
0.0
 10
5.291429
 20
1.282840
 30
0.0
 10
2.758774
 20
1.282841
 30
0.0
 10
1.196680
 20
-0.279252
 30
0.0
  0
SPLINE
  5
130
100
AcDbEntity
  8
0
 62
7
100
AcDbSpline
 70
8
 71
3
 72
8
 73
4
 74
0
 40
0
 40
0
 40
0
 40
0
 40
1
 40
1
 40
1
 40
1
 10
1.196680
 20
-0.279252
 30
0.0
 10
-0.365415
 20
-1.841345
 30
0.0
 10
-0.365416
 20
-4.374000
 30
0.0
 10
1.196677
 20
-5.936095
 30
0.0
  0
LWPOLYLINE
  5
131
100
AcDbEntity
  8
0
 62
7
100
AcDbPolyline
 90
2
 70
0
 10
298.259500
 20
-93.448754
 30
0.0
 10
290.776660
 20
-85.963374
 30
0.0
  0
LWPOLYLINE
  5
132
100
AcDbEntity
  8
0
 62
7
100
AcDbPolyline
 90
2
 70
0
 10
303.916080
 20
-5.935594
 30
0.0
 10
296.430700
 20
-13.420974
 30
0.0
  0
LWPOLYLINE
  5
133
100
AcDbEntity
  8
0
 62
7
100
AcDbPolyline
 90
2
 70
0
 10
303.916080
 20
-87.792174
 30
0.0
 10
296.430700
 20
-80.319494
 30
0.0
  0
LWPOLYLINE
  5
134
100
AcDbEntity
  8
0
 62
7
100
AcDbPolyline
 90
2
 70
0
 10
6.852920
 20
-0.279014
 30
0.0
 10
11.676380
 20
-5.077074
 30
0.0
  0
SPLINE
  5
135
100
AcDbEntity
  8
0
 62
7
100
AcDbSpline
 70
8
 71
3
 72
8
 73
4
 74
0
 40
0
 40
0
 40
0
 40
0
 40
1
 40
1
 40
1
 40
1
 10
298.262040
 20
-93.450024
 30
0.0
 10
299.827256
 20
-94.993617
 30
0.0
 10
302.344799
 20
-94.984834
 30
0.0
 10
303.899206
 20
-93.430357
 30
0.0
  0
SPLINE
  5
136
100
AcDbEntity
  8
0
 62
7
100
AcDbSpline
 70
8
 71
3
 72
8
 73
4
 74
0
 40
0
 40
0
 40
0
 40
0
 40
1
 40
1
 40
1
 40
1
 10
303.899206
 20
-93.430357
 30
0.0
 10
305.453614
 20
-91.875880
 30
0.0
 10
305.462284
 20
-89.358336
 30
0.0
 10
303.918620
 20
-87.793190
 30
0.0
  0
SPLINE
  5
137
100
AcDbEntity
  8
0
 62
7
100
AcDbSpline
 70
8
 71
3
 72
8
 73
4
 74
0
 40
0
 40
0
 40
0
 40
0
 40
1
 40
1
 40
1
 40
1
 10
1.196574
 20
-87.794206
 30
0.0
 10
-0.365517
 20
-89.356303
 30
0.0
 10
-0.365512
 20
-91.888958
 30
0.0
 10
1.196584
 20
-93.451049
 30
0.0
  0
SPLINE
  5
138
100
AcDbEntity
  8
0
 62
7
100
AcDbSpline
 70
8
 71
3
 72
8
 73
4
 74
0
 40
0
 40
0
 40
0
 40
0
 40
1
 40
1
 40
1
 40
1
 10
1.196584
 20
-93.451049
 30
0.0
 10
2.758681
 20
-95.013141
 30
0.0
 10
5.291336
 20
-95.013136
 30
0.0
 10
6.853427
 20
-93.451039
 30
0.0
  0
LWPOLYLINE
  5
139
100
AcDbEntity
  8
0
 62
7
100
AcDbPolyline
 90
2
 70
0
 10
1.196340
 20
-5.935594
 30
0.0
 10
8.681720
 20
-13.420974
 30
0.0
  0
SPLINE
  5
13a
100
AcDbEntity
  8
0
 62
7
100
AcDbSpline
 70
8
 71
3
 72
8
 73
4
 74
0
 40
0
 40
0
 40
0
 40
0
 40
1
 40
1
 40
1
 40
1
 10
301.089060
 20
-88.021739
 30
0.0
 10
300.037460
 20
-88.021739
 30
0.0
 10
299.089408
 20
-88.655208
 30
0.0
 10
298.686978
 20
-89.626759
 30
0.0
  0
SPLINE
  5
13b
100
AcDbEntity
  8
0
 62
7
100
AcDbSpline
 70
8
 71
3
 72
8
 73
4
 74
0
 40
0
 40
0
 40
0
 40
0
 40
1
 40
1
 40
1
 40
1
 10
298.686978
 20
-89.626759
 30
0.0
 10
298.284548
 20
-90.598310
 30
0.0
 10
298.506993
 20
-91.716615
 30
0.0
 10
299.250586
 20
-92.460208
 30
0.0
  0
SPLINE
  5
13c
100
AcDbEntity
  8
0
 62
7
100
AcDbSpline
 70
8
 71
3
 72
8
 73
4
 74
0
 40
0
 40
0
 40
0
 40
0
 40
1
 40
1
 40
1
 40
1
 10
299.250586
 20
-92.460208
 30
0.0
 10
299.994179
 20
-93.203801
 30
0.0
 10
301.112483
 20
-93.426246
 30
0.0
 10
302.084035
 20
-93.023816
 30
0.0
  0
SPLINE
  5
13d
100
AcDbEntity
  8
0
 62
7
100
AcDbSpline
 70
8
 71
3
 72
8
 73
4
 74
0
 40
0
 40
0
 40
0
 40
0
 40
1
 40
1
 40
1
 40
1
 10
302.084035
 20
-93.023816
 30
0.0
 10
303.055586
 20
-92.621386
 30
0.0
 10
303.689055
 20
-91.673334
 30
0.0
 10
303.689055
 20
-90.621734
 30
0.0
  0
SPLINE
  5
13e
100
AcDbEntity
  8
0
 62
7
100
AcDbSpline
 70
8
 71
3
 72
8
 73
4
 74
0
 40
0
 40
0
 40
0
 40
0
 40
1
 40
1
 40
1
 40
1
 10
303.689055
 20
-90.621734
 30
0.0
 10
303.689055
 20
-89.932172
 30
0.0
 10
303.415128
 20
-89.270854
 30
0.0
 10
302.927534
 20
-88.783260
 30
0.0
  0
SPLINE
  5
13f
100
AcDbEntity
  8
0
 62
7
100
AcDbSpline
 70
8
 71
3
 72
8
 73
4
 74
0
 40
0
 40
0
 40
0
 40
0
 40
1
 40
1
 40
1
 40
1
 10
302.927534
 20
-88.783260
 30
0.0
 10
302.439940
 20
-88.295666
 30
0.0
 10
301.778621
 20
-88.021739
 30
0.0
 10
301.089060
 20
-88.021739
 30
0.0
  0
LWPOLYLINE
  5
140
100
AcDbEntity
  8
0
 62
7
100
AcDbPolyline
 90
2
 70
0
 10
6.852920
 20
-93.448754
 30
0.0
 10
14.376400
 20
-85.963374
 30
0.0
  0
SPLINE
  5
141
100
AcDbEntity
  8
0
 62
7
100
AcDbSpline
 70
8
 71
3
 72
8
 73
4
 74
0
 40
0
 40
0
 40
0
 40
0
 40
1
 40
1
 40
1
 40
1
 10
301.089060
 20
-0.507690
 30
0.0
 10
300.037460
 20
-0.507690
 30
0.0
 10
299.089408
 20
-1.141159
 30
0.0
 10
298.686978
 20
-2.112710
 30
0.0
  0
SPLINE
  5
142
100
AcDbEntity
  8
0
 62
7
100
AcDbSpline
 70
8
 71
3
 72
8
 73
4
 74
0
 40
0
 40
0
 40
0
 40
0
 40
1
 40
1
 40
1
 40
1
 10
298.686978
 20
-2.112710
 30
0.0
 10
298.284548
 20
-3.084261
 30
0.0
 10
298.506993
 20
-4.202566
 30
0.0
 10
299.250586
 20
-4.946159
 30
0.0
  0
SPLINE
  5
143
100
AcDbEntity
  8
0
 62
7
100
AcDbSpline
 70
8
 71
3
 72
8
 73
4
 74
0
 40
0
 40
0
 40
0
 40
0
 40
1
 40
1
 40
1
 40
1
 10
299.250586
 20
-4.946159
 30
0.0
 10
299.994179
 20
-5.689752
 30
0.0
 10
301.112483
 20
-5.912197
 30
0.0
 10
302.084035
 20
-5.509767
 30
0.0
  0
SPLINE
  5
144
100
AcDbEntity
  8
0
 62
7
100
AcDbSpline
 70
8
 71
3
 72
8
 73
4
 74
0
 40
0
 40
0
 40
0
 40
0
 40
1
 40
1
 40
1
 40
1
 10
302.084035
 20
-5.509767
 30
0.0
 10
303.055586
 20
-5.107337
 30
0.0
 10
303.689055
 20
-4.159285
 30
0.0
 10
303.689055
 20
-3.107685
 30
0.0
  0
SPLINE
  5
145
100
AcDbEntity
  8
0
 62
7
100
AcDbSpline
 70
8
 71
3
 72
8
 73
4
 74
0
 40
0
 40
0
 40
0
 40
0
 40
1
 40
1
 40
1
 40
1
 10
303.689055
 20
-3.107685
 30
0.0
 10
303.689055
 20
-2.418123
 30
0.0
 10
303.415128
 20
-1.756805
 30
0.0
 10
302.927534
 20
-1.269211
 30
0.0
  0
SPLINE
  5
146
100
AcDbEntity
  8
0
 62
7
100
AcDbSpline
 70
8
 71
3
 72
8
 73
4
 74
0
 40
0
 40
0
 40
0
 40
0
 40
1
 40
1
 40
1
 40
1
 10
302.927534
 20
-1.269211
 30
0.0
 10
302.439940
 20
-0.781617
 30
0.0
 10
301.778621
 20
-0.507690
 30
0.0
 10
301.089060
 20
-0.507690
 30
0.0
  0
LWPOLYLINE
  5
147
100
AcDbEntity
  8
0
 62
7
100
AcDbPolyline
 90
1
 70
1
 10
301.089060
 20
-88.021739
 30
0.0
  0
LWPOLYLINE
  5
148
100
AcDbEntity
  8
0
 62
7
100
AcDbPolyline
 90
1
 70
1
 10
301.089060
 20
-0.507690
 30
0.0
  0
LWPOLYLINE
  5
149
100
AcDbEntity
  8
0
 62
7
100
AcDbPolyline
 90
2
 70
0
 10
290.776660
 20
-85.963374
 30
0.0
 10
14.376400
 20
-85.963374
 30
0.0
  0
SPLINE
  5
14a
100
AcDbEntity
  8
0
 62
7
100
AcDbSpline
 70
8
 71
3
 72
8
 73
4
 74
0
 40
0
 40
0
 40
0
 40
0
 40
1
 40
1
 40
1
 40
1
 10
4.025087
 20
-0.507690
 30
0.0
 10
2.973487
 20
-0.507690
 30
0.0
 10
2.025435
 20
-1.141159
 30
0.0
 10
1.623005
 20
-2.112710
 30
0.0
  0
SPLINE
  5
14b
100
AcDbEntity
  8
0
 62
7
100
AcDbSpline
 70
8
 71
3
 72
8
 73
4
 74
0
 40
0
 40
0
 40
0
 40
0
 40
1
 40
1
 40
1
 40
1
 10
1.623005
 20
-2.112710
 30
0.0
 10
1.220575
 20
-3.084261
 30
0.0
 10
1.443020
 20
-4.202566
 30
0.0
 10
2.186613
 20
-4.946159
 30
0.0
  0
SPLINE
  5
14c
100
AcDbEntity
  8
0
 62
7
100
AcDbSpline
 70
8
 71
3
 72
8
 73
4
 74
0
 40
0
 40
0
 40
0
 40
0
 40
1
 40
1
 40
1
 40
1
 10
2.186613
 20
-4.946159
 30
0.0
 10
2.930207
 20
-5.689752
 30
0.0
 10
4.048511
 20
-5.912197
 30
0.0
 10
5.020062
 20
-5.509767
 30
0.0
  0
SPLINE
  5
14d
100
AcDbEntity
  8
0
 62
7
100
AcDbSpline
 70
8
 71
3
 72
8
 73
4
 74
0
 40
0
 40
0
 40
0
 40
0
 40
1
 40
1
 40
1
 40
1
 10
5.020062
 20
-5.509767
 30
0.0
 10
5.991614
 20
-5.107337
 30
0.0
 10
6.625082
 20
-4.159285
 30
0.0
 10
6.625082
 20
-3.107685
 30
0.0
  0
SPLINE
  5
14e
100
AcDbEntity
  8
0
 62
7
100
AcDbSpline
 70
8
 71
3
 72
8
 73
4
 74
0
 40
0
 40
0
 40
0
 40
0
 40
1
 40
1
 40
1
 40
1
 10
6.625082
 20
-3.107685
 30
0.0
 10
6.625082
 20
-2.418123
 30
0.0
 10
6.351155
 20
-1.756805
 30
0.0
 10
5.863561
 20
-1.269211
 30
0.0
  0
SPLINE
  5
14f
100
AcDbEntity
  8
0
 62
7
100
AcDbSpline
 70
8
 71
3
 72
8
 73
4
 74
0
 40
0
 40
0
 40
0
 40
0
 40
1
 40
1
 40
1
 40
1
 10
5.863561
 20
-1.269211
 30
0.0
 10
5.375968
 20
-0.781617
 30
0.0
 10
4.714649
 20
-0.507690
 30
0.0
 10
4.025087
 20
-0.507690
 30
0.0
  0
LWPOLYLINE
  5
150
100
AcDbEntity
  8
0
 62
7
100
AcDbPolyline
 90
2
 70
0
 10
8.681720
 20
-80.319494
 30
0.0
 10
8.681720
 20
-13.420974
 30
0.0
  0
SPLINE
  5
151
100
AcDbEntity
  8
0
 62
7
100
AcDbSpline
 70
8
 71
3
 72
8
 73
4
 74
0
 40
0
 40
0
 40
0
 40
0
 40
1
 40
1
 40
1
 40
1
 10
4.025011
 20
-88.022501
 30
0.0
 10
2.973411
 20
-88.022501
 30
0.0
 10
2.025359
 20
-88.655970
 30
0.0
 10
1.622929
 20
-89.627521
 30
0.0
  0
SPLINE
  5
152
100
AcDbEntity
  8
0
 62
7
100
AcDbSpline
 70
8
 71
3
 72
8
 73
4
 74
0
 40
0
 40
0
 40
0
 40
0
 40
1
 40
1
 40
1
 40
1
 10
1.622929
 20
-89.627521
 30
0.0
 10
1.220499
 20
-90.599072
 30
0.0
 10
1.442944
 20
-91.717377
 30
0.0
 10
2.186537
 20
-92.460970
 30
0.0
  0
SPLINE
  5
153
100
AcDbEntity
  8
0
 62
7
100
AcDbSpline
 70
8
 71
3
 72
8
 73
4
 74
0
 40
0
 40
0
 40
0
 40
0
 40
1
 40
1
 40
1
 40
1
 10
2.186537
 20
-92.460970
 30
0.0
 10
2.930130
 20
-93.204563
 30
0.0
 10
4.048434
 20
-93.427008
 30
0.0
 10
5.019986
 20
-93.024578
 30
0.0
  0
SPLINE
  5
154
100
AcDbEntity
  8
0
 62
7
100
AcDbSpline
 70
8
 71
3
 72
8
 73
4
 74
0
 40
0
 40
0
 40
0
 40
0
 40
1
 40
1
 40
1
 40
1
 10
5.019986
 20
-93.024578
 30
0.0
 10
5.991537
 20
-92.622148
 30
0.0
 10
6.625006
 20
-91.674096
 30
0.0
 10
6.625006
 20
-90.622496
 30
0.0
  0
SPLINE
  5
155
100
AcDbEntity
  8
0
 62
7
100
AcDbSpline
 70
8
 71
3
 72
8
 73
4
 74
0
 40
0
 40
0
 40
0
 40
0
 40
1
 40
1
 40
1
 40
1
 10
6.625006
 20
-90.622496
 30
0.0
 10
6.625006
 20
-89.186558
 30
0.0
 10
5.460948
 20
-88.022501
 30
0.0
 10
4.025011
 20
-88.022501
 30
0.0
  0
LWPOLYLINE
  5
156
100
AcDbEntity
  8
0
 62
7
100
AcDbPolyline
 90
1
 70
1
 10
4.025087
 20
-0.507690
 30
0.0
  0
LWPOLYLINE
  5
157
100
AcDbEntity
  8
0
 62
7
100
AcDbPolyline
 90
1
 70
1
 10
4.025011
 20
-88.022501
 30
0.0
  0
LWPOLYLINE
  5
158
100
AcDbEntity
  8
0
 62
7
100
AcDbPolyline
 90
2
 70
0
 10
296.430700
 20
-80.319494
 30
0.0
 10
296.430700
 20
-13.420974
 30
0.0
  0
LWPOLYLINE
  5
159
100
AcDbEntity
  8
0
 62
7
100
AcDbPolyline
 90
3
 70
0
 10
69.354700
 20
-82.437854
 30
0.0
 10
183.367680
 20
-82.437854
 30
0.0
 10
183.367680
 20
-68.437374
 30
0.0
  0
LWPOLYLINE
  5
15a
100
AcDbEntity
  8
0
 62
7
100
AcDbPolyline
 90
2
 70
0
 10
16.967200
 20
-49.387374
 30
0.0
 10
16.967200
 20
-63.387854
 30
0.0
  0
LWPOLYLINE
  5
15b
100
AcDbEntity
  8
0
 62
7
100
AcDbPolyline
 90
2
 70
0
 10
33.350200
 20
-49.387374
 30
0.0
 10
16.967200
 20
-49.387374
 30
0.0
  0
LWPOLYLINE
  5
15c
100
AcDbEntity
  8
0
 62
7
100
AcDbPolyline
 90
2
 70
0
 10
69.354700
 20
-68.437374
 30
0.0
 10
69.354700
 20
-82.437854
 30
0.0
  0
LWPOLYLINE
  5
15d
100
AcDbEntity
  8
0
 62
7
100
AcDbPolyline
 90
2
 70
0
 10
252.425200
 20
-49.387374
 30
0.0
 10
236.044740
 20
-49.387374
 30
0.0
  0
LWPOLYLINE
  5
15e
100
AcDbEntity
  8
0
 62
7
100
AcDbPolyline
 90
2
 70
0
 10
236.044740
 20
-63.387854
 30
0.0
 10
252.425200
 20
-63.387854
 30
0.0
  0
LWPOLYLINE
  5
15f
100
AcDbEntity
  8
0
 62
7
100
AcDbPolyline
 90
2
 70
0
 10
236.044740
 20
-49.387374
 30
0.0
 10
236.044740
 20
-63.387854
 30
0.0
  0
LWPOLYLINE
  5
160
100
AcDbEntity
  8
0
 62
7
100
AcDbPolyline
 90
2
 70
0
 10
16.967200
 20
-63.387854
 30
0.0
 10
33.350200
 20
-63.387854
 30
0.0
  0
LWPOLYLINE
  5
161
100
AcDbEntity
  8
0
 62
7
100
AcDbPolyline
 90
2
 70
0
 10
50.304700
 20
-82.437854
 30
0.0
 10
50.304700
 20
-68.437374
 30
0.0
  0
LWPOLYLINE
  5
162
100
AcDbEntity
  8
0
 62
7
100
AcDbPolyline
 90
2
 70
0
 10
252.425200
 20
-63.387854
 30
0.0
 10
252.425200
 20
-49.387374
 30
0.0
  0
LWPOLYLINE
  5
163
100
AcDbEntity
  8
0
 62
7
100
AcDbPolyline
 90
2
 70
0
 10
66.687700
 20
-68.437374
 30
0.0
 10
66.687700
 20
-82.437854
 30
0.0
  0
LWPOLYLINE
  5
164
100
AcDbEntity
  8
0
 62
7
100
AcDbPolyline
 90
2
 70
0
 10
183.367680
 20
-68.437374
 30
0.0
 10
69.354700
 20
-68.437374
 30
0.0
  0
LWPOLYLINE
  5
165
100
AcDbEntity
  8
0
 62
7
100
AcDbPolyline
 90
2
 70
0
 10
66.687700
 20
-82.437854
 30
0.0
 10
50.304700
 20
-82.437854
 30
0.0
  0
LWPOLYLINE
  5
166
100
AcDbEntity
  8
0
 62
7
100
AcDbPolyline
 90
2
 70
0
 10
33.350200
 20
-63.387854
 30
0.0
 10
33.350200
 20
-49.387374
 30
0.0
  0
SPLINE
  5
167
100
AcDbEntity
  8
0
 62
7
100
AcDbSpline
 70
8
 71
3
 72
8
 73
4
 74
0
 40
0
 40
0
 40
0
 40
0
 40
1
 40
1
 40
1
 40
1
 10
265.737340
 20
-5.078166
 30
0.0
 10
265.874984
 20
-5.077571
 30
0.0
 10
265.986254
 20
-4.965825
 30
0.0
 10
265.986260
 20
-4.828179
 30
0.0
  0
LWPOLYLINE
  5
168
100
AcDbEntity
  8
0
 62
7
100
AcDbPolyline
 90
2
 70
0
 10
50.304700
 20
-68.437374
 30
0.0
 10
66.687700
 20
-68.437374
 30
0.0
  0
LWPOLYLINE
  5
169
100
AcDbEntity
  8
0
 62
7
100
AcDbPolyline
 90
2
 70
0
 10
265.986260
 20
-0.527934
 30
0.0
 10
265.986260
 20
-4.828154
 30
0.0
  0
SPLINE
  5
16a
100
AcDbEntity
  8
0
 62
7
100
AcDbSpline
 70
8
 71
3
 72
8
 73
4
 74
0
 40
0
 40
0
 40
0
 40
0
 40
1
 40
1
 40
1
 40
1
 10
266.237720
 20
-0.279248
 30
0.0
 10
266.171163
 20
-0.278859
 30
0.0
 10
266.107199
 20
-0.305026
 30
0.0
 10
266.059999
 20
-0.351953
 30
0.0
  0
SPLINE
  5
16b
100
AcDbEntity
  8
0
 62
7
100
AcDbSpline
 70
8
 71
3
 72
8
 73
4
 74
0
 40
0
 40
0
 40
0
 40
0
 40
1
 40
1
 40
1
 40
1
 10
266.059999
 20
-0.351953
 30
0.0
 10
266.012799
 20
-0.398879
 30
0.0
 10
265.986259
 20
-0.462689
 30
0.0
 10
265.986260
 20
-0.529247
 30
0.0
  0
LWPOLYLINE
  5
16c
100
AcDbEntity
  8
0
 62
7
100
AcDbPolyline
 90
2
 70
0
 10
298.259500
 20
-0.279014
 30
0.0
 10
266.235180
 20
-0.279014
 30
0.0
  0
ENDSEC
  0
SECTION
  2
OBJECTS
  0
DICTIONARY
  5
C
330
0
100
AcDbDictionary
  3
ACAD_GROUP
350
D
  3
ACAD_MLINESTYLE
350
17
  0
DICTIONARY
  5
D
330
C
100
AcDbDictionary
  0
DICTIONARY
  5
1A
330
C
100
AcDbDictionary
  0
DICTIONARY
  5
17
330
C
100
AcDbDictionary
  3
STANDARD
350
18
  0
DICTIONARY
  5
19
330
C
100
AcDbDictionary
  0
ENDSEC
  0
EOF
