<?xml version="1.0" standalone="no"?>
 <!DOCTYPE svg PUBLIC "-//W3C//DTD SVG 1.1//EN" 
 "http://www.w3.org/Graphics/SVG/1.1/DTD/svg11.dtd"> 
<svg
  xmlns:svg="http://www.w3.org/2000/svg"
  xmlns="http://www.w3.org/2000/svg"
  xmlns:xlink="http://www.w3.org/1999/xlink"
  version="1.1"
  width="31.275020cm" height="10.320020cm" viewBox="0 0 123130 40630">
<title>SVG Picture created as letItSlide case and plate making-brd.svg date 2021/09/22 14:05:48 </title>
  <desc>Picture generated by PCBNEW </desc>
<g style="fill:#000000; fill-opacity:1;stroke:#000000; stroke-opacity:1;
stroke-linecap:round; stroke-linejoin:round;"
 transform="translate(0 0) scale(1 1)">
</g>
<g style="fill:#000000; fill-opacity:0.0; 
stroke:#000000; stroke-width:-0.000393701; stroke-opacity:1; 
stroke-linecap:round; stroke-linejoin:round;">
<g >
</g>
<g >
</g>
<g >
</g>
<g >
</g>
<g >
</g>
<g >
</g>
<g >
</g>
<g >
</g>
<g >
</g>
<g >
</g>
<g >
</g>
<g >
</g>
<g >
</g>
<g >
</g>
<g >
</g>
<g >
</g>
<g >
</g>
<g >
</g>
<g >
</g>
<g >
</g>
<g >
</g>
<g >
</g>
<g >
</g>
<g >
</g>
<g >
</g>
<g >
</g>
<g >
</g>
<g >
</g>
<g >
</g>
<g >
</g>
<g >
</g>
<g >
</g>
<g >
</g>
<g >
</g>
<g >
</g>
<g >
</g>
<g >
</g>
<g >
</g>
<g >
</g>
<g >
</g>
<g >
</g>
<g >
</g>
<g >
</g>
<g >
</g>
<g >
</g>
<g >
</g>
<g >
</g>
<g >
</g>
<g >
</g>
<g >
</g>
<g >
</g>
<g >
</g>
<g >
</g>
<g >
</g>
<g >
</g>
<g >
</g>
<g >
</g>
<g >
</g>
<g >
</g>
<g >
</g>
<g >
</g>
<g >
</g>
<g >
</g>
<g >
</g>
<g >
</g>
<g >
</g>
<g >
</g>
<g >
</g>
<g >
</g>
<g >
</g>
<g >
</g>
<g >
</g>
<g >
</g>
<g >
</g>
<g >
</g>
<g >
</g>
<g >
</g>
<g >
</g>
<g >
</g>
<g >
</g>
<g >
</g>
<g >
</g>
<g >
</g>
<g >
</g>
</g>
<g style="fill:#000000; fill-opacity:0.0; 
stroke:#000000; stroke-width:-0.000393701; stroke-opacity:1; 
stroke-linecap:round; stroke-linejoin:round;">
</g>
<g style="fill:#000000; fill-opacity:0.0; 
stroke:#000000; stroke-width:19.685; stroke-opacity:1; 
stroke-linecap:round; stroke-linejoin:round;">
<circle cx="120043" cy="3090.97" r="1023.62" /> 
<circle cx="19640.3" cy="2234.25" r="1023.62" /> 
<circle cx="35990.7" cy="2234.25" r="1023.62" /> 
<circle cx="103492" cy="2234.25" r="1023.62" /> 
<circle cx="87141.2" cy="2234.25" r="1023.62" /> 
<path d="M119974 12
L98767 9
" />
<path d="M123122 3085.79 A3079.25 3079.25 0.0 0 0 119974 12.4817" />
<path d="M118210 4454
L116546 4454
" />
<path d="M116507 4377
L116507 4415
" />
<path d="M98767.2 9.84291 A393.701 393.701 0.0 0 0 98373.5 403.544" />
<path d="M91865.6 4454.72 A393.701 393.701 0.0 0 0 92259.3 4061.02" />
<path d="M92259 395
L92259 4061
" />
<path d="M98373.5 4061.02 A393.701 393.701 0.0 0 0 98767.2 4454.72" />
<path d="M92259.3 403.544 A393.701 393.701 0.0 0 0 91865.6 9.84291" />
<path d="M111582 4454
L98767 4454
" />
<path d="M98373 403
L98373 4061
" />
<path d="M115996 3866
L112132 3869
" />
<path d="M112132 3869.09 A510.827 510.827 0.0 0 0 111622 4379.92" />
<path d="M111621 4379
L111621 4415
" />
<path d="M116508 4377.58 A510.827 510.827 0.0 0 0 115997 3866.75" />
<path d="M9 37550
L10 3159
" />
<path d="M120048 40624
L3157 40624
" />
<path d="M120049 40624.5 A3079.25 3079.25 0.0 0 0 123122 37476.6" />
<path d="M3083 11
L91865 9
" />
<path d="M3083.95 11.7205 A3079.25 3079.25 0.0 0 0 10.6419 3159.62" />
<path d="M118210 35711
L4922 35712
" />
<path d="M123122 3085
L123122 37476
" />
<circle cx="3089.13" cy="3090.97" r="1023.62" /> 
<circle cx="120044" cy="37545.3" r="1023.62" /> 
<path d="M4922 35712
L4922 4454
" />
<path d="M9.84293 37550.8 A3079.25 3079.25 0.0 0 0 3157.75 40624.1" />
<path d="M4922 4454
L91865 4454
" />
<circle cx="3089.09" cy="37545.6" r="1023.62" /> 
<path d="M118210 35711
L118210 4454
" />
<path d="M111582 4454.72 A39.3701 39.3701 0.0 0 0 111622 4415.35" />
<path d="M116507 4415.35 A39.3701 39.3701 0.0 0 0 116547 4454.72" />
<g >
</g>
<g >
</g>
<g >
</g>
<g >
</g>
<g >
</g>
<g >
</g>
<g >
</g>
<g >
</g>
<g >
</g>
<g >
</g>
<g >
</g>
<g >
</g>
<g >
</g>
<g >
</g>
<g >
</g>
<g >
</g>
<g >
</g>
<g >
</g>
<g >
</g>
<g >
</g>
<g >
</g>
<g >
</g>
<g >
</g>
<g >
</g>
<g >
</g>
<g >
</g>
<g >
</g>
<g >
</g>
<g >
</g>
<g >
</g>
<g >
</g>
<g >
</g>
<g >
</g>
<g >
</g>
<g >
</g>
<g >
</g>
<g >
</g>
<g >
</g>
<g >
</g>
<g >
</g>
<g >
</g>
<g >
</g>
<g >
</g>
<g >
</g>
<g >
</g>
<g >
</g>
<g >
</g>
<g >
</g>
<g >
</g>
<g >
</g>
<g >
</g>
<g >
</g>
<g >
</g>
<g >
</g>
<g >
</g>
<g >
</g>
<g >
</g>
<g >
</g>
<g >
</g>
<g >
</g>
<g >
</g>
<g >
</g>
<g >
</g>
<g >
</g>
<g >
</g>
<g >
</g>
<g >
</g>
<g >
</g>
<g >
</g>
<g >
</g>
<g >
</g>
<g >
</g>
<g >
</g>
<g >
</g>
<g >
</g>
<g >
</g>
<g >
</g>
<g >
</g>
<g >
</g>
<g >
</g>
<g >
</g>
<g >
</g>
<g >
</g>
<g >
</g>
</g> 
</svg>
