<?xml version="1.0" standalone="no"?>
 <!DOCTYPE svg PUBLIC "-//W3C//DTD SVG 1.1//EN" 
 "http://www.w3.org/Graphics/SVG/1.1/DTD/svg11.dtd"> 
<svg
  xmlns:svg="http://www.w3.org/2000/svg"
  xmlns="http://www.w3.org/2000/svg"
  xmlns:xlink="http://www.w3.org/1999/xlink"
  version="1.1"
  width="31.275020cm" height="10.320020cm" viewBox="0 0 123130 40630">
<title>SVG Picture created as letItSlide case and plate making-brd.svg date 2021/09/22 14:03:13 </title>
  <desc>Picture generated by PCBNEW </desc>
<g style="fill:#000000; fill-opacity:1;stroke:#000000; stroke-opacity:1;
stroke-linecap:round; stroke-linejoin:round;"
 transform="translate(0 0) scale(1 1)">
</g>
<g style="fill:#000000; fill-opacity:0.0; 
stroke:#000000; stroke-width:-0.000393701; stroke-opacity:1; 
stroke-linecap:round; stroke-linejoin:round;">
<g >
</g>
<g >
</g>
<g >
</g>
<g >
</g>
<g >
</g>
<g >
</g>
<g >
</g>
<g >
</g>
<g >
</g>
<g >
</g>
<g >
</g>
<g >
</g>
<g >
</g>
<g >
</g>
<g >
</g>
<g >
</g>
<g >
</g>
<g >
</g>
<g >
</g>
<g >
</g>
<g >
</g>
<g >
</g>
<g >
</g>
<g >
</g>
<g >
</g>
<g >
</g>
<g >
</g>
<g >
</g>
<g >
</g>
<g >
</g>
<g >
</g>
<g >
</g>
<g >
</g>
<g >
</g>
<g >
</g>
<g >
</g>
<g >
</g>
<g >
</g>
<g >
</g>
<g >
</g>
<g >
</g>
<g >
</g>
<g >
</g>
<g >
</g>
<g >
</g>
<g >
</g>
<g >
</g>
<g >
</g>
<g >
</g>
<g >
</g>
<g >
</g>
<g >
</g>
<g >
</g>
<g >
</g>
<g >
</g>
<g >
</g>
<g >
</g>
<g >
</g>
<g >
</g>
<g >
</g>
<g >
</g>
<g >
</g>
<g >
</g>
<g >
</g>
<g >
</g>
<g >
</g>
<g >
</g>
<g >
</g>
<g >
</g>
<g >
</g>
<g >
</g>
<g >
</g>
<g >
</g>
<g >
</g>
<g >
</g>
<g >
</g>
<g >
</g>
<g >
</g>
<g >
</g>
<g >
</g>
<g >
</g>
<g >
</g>
<g >
</g>
<g >
</g>
</g>
<g style="fill:#000000; fill-opacity:0.0; 
stroke:#000000; stroke-width:-0.000393701; stroke-opacity:1; 
stroke-linecap:round; stroke-linejoin:round;">
</g>
<g style="fill:#000000; fill-opacity:0.0; 
stroke:#000000; stroke-width:19.685; stroke-opacity:1; 
stroke-linecap:round; stroke-linejoin:round;">
<path d="M112200 26588.5 A98.4252 98.4252 0.0 0 0 112298 26686.9" />
<path d="M115806 26686.9 A98.4252 98.4252 0.0 0 0 115904 26588.5" />
<path d="M115904 6218.42 A98.4252 98.4252 0.0 0 0 115806 6119.99" />
<path d="M112298 6119.99 A98.4252 98.4252 0.0 0 0 112200 6218.42" />
<path d="M112297 6119
L115805 6119
" />
<path d="M115805 26686
L112297 26686
" />
<path d="M110711 5020.92 A98.4252 98.4252 0.0 0 0 110613 4922.5" />
<path d="M110809 27420
L116002 27420
" />
<path d="M115904 6218
L115904 26588
" />
<path d="M112199 6218
L112199 26588
" />
<path d="M119974 10
L3083 9
" />
<path d="M95116.9 35515.5 A196.85 196.85 0.0 0 0 95313.7 35712.3" />
<path d="M93443.7 35712.3 A196.85 196.85 0.0 0 0 93640.5 35515.5" />
<path d="M93735 28011.5 A98.4252 98.4252 0.0 0 0 93636.6 28110" />
<path d="M95120.8 28110 A98.4252 98.4252 0.0 0 0 95022.4 28011.5" />
<path d="M118210 35709
L95313 35712
" />
<path d="M93640 35515
L93636 28109
" />
<path d="M95116 35515
L95120 28109
" />
<path d="M93734 28011
L95022 28011
" />
<path d="M110711 27322.6 A98.4252 98.4252 0.0 0 0 110810 27421" />
<path d="M110711 27322
L110711 5020
" />
<path d="M118210 35709
L118210 27422
" />
<path d="M118210 27422
L116002 27420
" />
<circle cx="3089.13" cy="3089.09" r="1023.62" /> 
<path d="M110612 4922
L4922 4922
" />
<path d="M93443 35712
L4922 35710
" />
<path d="M120048 40622
L3157 40622
" />
<path d="M4922 35710
L4922 4922
" />
<path d="M123122 3083
L123122 37474
" />
<path d="M9 37548
L10 3157
" />
<path d="M9.84293 37548.9 A3079.25 3079.25 0.0 0 0 3157.75 40622.2" />
<path d="M120049 40622.6 A3079.25 3079.25 0.0 0 0 123122 37474.7" />
<circle cx="3089.09" cy="37543.8" r="1023.62" /> 
<path d="M123122 3083.92 A3079.25 3079.25 0.0 0 0 119974 10.6085" />
<circle cx="120044" cy="3089.09" r="1023.62" /> 
<path d="M3083.95 9.84726 A3079.25 3079.25 0.0 0 0 10.6419 3157.75" />
<circle cx="120044" cy="37543.4" r="1023.62" /> 
<g >
</g>
<g >
</g>
<g >
</g>
<g >
</g>
<g >
</g>
<g >
</g>
<g >
</g>
<g >
</g>
<g >
</g>
<g >
</g>
<g >
</g>
<g >
</g>
<g >
</g>
<g >
</g>
<g >
</g>
<g >
</g>
<g >
</g>
<g >
</g>
<g >
</g>
<g >
</g>
<g >
</g>
<g >
</g>
<g >
</g>
<g >
</g>
<g >
</g>
<g >
</g>
<g >
</g>
<g >
</g>
<g >
</g>
<g >
</g>
<g >
</g>
<g >
</g>
<g >
</g>
<g >
</g>
<g >
</g>
<g >
</g>
<g >
</g>
<g >
</g>
<g >
</g>
<g >
</g>
<g >
</g>
<g >
</g>
<g >
</g>
<g >
</g>
<g >
</g>
<g >
</g>
<g >
</g>
<g >
</g>
<g >
</g>
<g >
</g>
<g >
</g>
<g >
</g>
<g >
</g>
<g >
</g>
<g >
</g>
<g >
</g>
<g >
</g>
<g >
</g>
<g >
</g>
<g >
</g>
<g >
</g>
<g >
</g>
<g >
</g>
<g >
</g>
<g >
</g>
<g >
</g>
<g >
</g>
<g >
</g>
<g >
</g>
<g >
</g>
<g >
</g>
<g >
</g>
<g >
</g>
<g >
</g>
<g >
</g>
<g >
</g>
<g >
</g>
<g >
</g>
<g >
</g>
<g >
</g>
<g >
</g>
<g >
</g>
<g >
</g>
<g >
</g>
</g> 
</svg>
