<?xml version="1.0" standalone="no"?>
 <!DOCTYPE svg PUBLIC "-//W3C//DTD SVG 1.1//EN" 
 "http://www.w3.org/Graphics/SVG/1.1/DTD/svg11.dtd"> 
<svg
  xmlns:svg="http://www.w3.org/2000/svg"
  xmlns="http://www.w3.org/2000/svg"
  xmlns:xlink="http://www.w3.org/1999/xlink"
  version="1.1"
  width="31.275020cm" height="10.320020cm" viewBox="0 0 123130 40630">
<title>SVG Picture created as letItSlide case and plate making-brd.svg date 2021/09/22 14:05:17 </title>
  <desc>Picture generated by PCBNEW </desc>
<g style="fill:#000000; fill-opacity:1;stroke:#000000; stroke-opacity:1;
stroke-linecap:round; stroke-linejoin:round;"
 transform="translate(0 0) scale(1 1)">
</g>
<g style="fill:#000000; fill-opacity:0.0; 
stroke:#000000; stroke-width:-0.000393701; stroke-opacity:1; 
stroke-linecap:round; stroke-linejoin:round;">
<g >
</g>
<g >
</g>
<g >
</g>
<g >
</g>
<g >
</g>
<g >
</g>
<g >
</g>
<g >
</g>
<g >
</g>
<g >
</g>
<g >
</g>
<g >
</g>
<g >
</g>
<g >
</g>
<g >
</g>
<g >
</g>
<g >
</g>
<g >
</g>
<g >
</g>
<g >
</g>
<g >
</g>
<g >
</g>
<g >
</g>
<g >
</g>
<g >
</g>
<g >
</g>
<g >
</g>
<g >
</g>
<g >
</g>
<g >
</g>
<g >
</g>
<g >
</g>
<g >
</g>
<g >
</g>
<g >
</g>
<g >
</g>
<g >
</g>
<g >
</g>
<g >
</g>
<g >
</g>
<g >
</g>
<g >
</g>
<g >
</g>
<g >
</g>
<g >
</g>
<g >
</g>
<g >
</g>
<g >
</g>
<g >
</g>
<g >
</g>
<g >
</g>
<g >
</g>
<g >
</g>
<g >
</g>
<g >
</g>
<g >
</g>
<g >
</g>
<g >
</g>
<g >
</g>
<g >
</g>
<g >
</g>
<g >
</g>
<g >
</g>
<g >
</g>
<g >
</g>
<g >
</g>
<g >
</g>
<g >
</g>
<g >
</g>
<g >
</g>
<g >
</g>
<g >
</g>
<g >
</g>
<g >
</g>
<g >
</g>
<g >
</g>
<g >
</g>
<g >
</g>
<g >
</g>
<g >
</g>
<g >
</g>
<g >
</g>
<g >
</g>
<g >
</g>
</g>
<g style="fill:#000000; fill-opacity:0.0; 
stroke:#000000; stroke-width:-0.000393701; stroke-opacity:1; 
stroke-linecap:round; stroke-linejoin:round;">
</g>
<g style="fill:#000000; fill-opacity:0.0; 
stroke:#000000; stroke-width:19.685; stroke-opacity:1; 
stroke-linecap:round; stroke-linejoin:round;">
<path d="M119974 10
L3083 9
" />
<circle cx="87141.2" cy="2232.38" r="590.551" /> 
<circle cx="19640.3" cy="2232.38" r="590.551" /> 
<circle cx="103492" cy="2232.38" r="590.551" /> 
<circle cx="35990.7" cy="2232.38" r="590.551" /> 
<path d="M4202 1975
L6003 3766
" />
<path d="M1975.53 36430.2 A1574.8 1574.8 0.0 0 0 4202.64 38657.3" />
<path d="M4202.68 1975.54 A1574.8 1574.8 0.0 0 0 1975.57 4202.65" />
<path d="M121157 4202
L118308 7051
" />
<path d="M9 37548
L10 3157
" />
<path d="M121157 4202.65 A1574.8 1574.8 0.0 0 0 118930 1975.54" />
<path d="M123122 3083
L123122 37474
" />
<path d="M121157 36429
L118308 33586
" />
<path d="M1975 36430
L4824 33586
" />
<path d="M118930 38656
L116082 35808
" />
<path d="M9.84293 37548.9 A3079.25 3079.25 0.0 0 0 3157.75 40622.2" />
<path d="M118930 38657 A1574.8 1574.8 0.0 0 0 121157 36429.8" />
<path d="M120048 40622
L3157 40622
" />
<path d="M120049 40622.6 A3079.25 3079.25 0.0 0 0 123122 37474.7" />
<path d="M3083.95 9.84726 A3079.25 3079.25 0.0 0 0 10.6419 3157.75" />
<path d="M4202 38657
L7066 35808
" />
<path d="M1975 4202
L4824 7051
" />
<path d="M123122 3083.92 A3079.25 3079.25 0.0 0 0 119974 10.6085" />
<path d="M6003 3766
L106223 3766
" />
<path d="M116082 35808
L7066 35808
" />
<path d="M118308 7051
L118308 33586
" />
<path d="M4824 33586
L4824 7051
" />
<path d="M118930 1975
L106223 1975
" />
<path d="M106223 1975
L106223 3766
" />
<g >
</g>
<g >
</g>
<g >
</g>
<g >
</g>
<g >
</g>
<g >
</g>
<g >
</g>
<g >
</g>
<g >
</g>
<g >
</g>
<g >
</g>
<g >
</g>
<g >
</g>
<g >
</g>
<g >
</g>
<g >
</g>
<g >
</g>
<g >
</g>
<g >
</g>
<g >
</g>
<g >
</g>
<g >
</g>
<g >
</g>
<g >
</g>
<g >
</g>
<g >
</g>
<g >
</g>
<g >
</g>
<g >
</g>
<g >
</g>
<g >
</g>
<g >
</g>
<g >
</g>
<g >
</g>
<g >
</g>
<g >
</g>
<g >
</g>
<g >
</g>
<g >
</g>
<g >
</g>
<g >
</g>
<g >
</g>
<g >
</g>
<g >
</g>
<g >
</g>
<g >
</g>
<g >
</g>
<g >
</g>
<g >
</g>
<g >
</g>
<g >
</g>
<g >
</g>
<g >
</g>
<g >
</g>
<g >
</g>
<g >
</g>
<g >
</g>
<g >
</g>
<g >
</g>
<g >
</g>
<g >
</g>
<g >
</g>
<g >
</g>
<g >
</g>
<g >
</g>
<g >
</g>
<g >
</g>
<g >
</g>
<g >
</g>
<g >
</g>
<g >
</g>
<g >
</g>
<g >
</g>
<g >
</g>
<g >
</g>
<g >
</g>
<g >
</g>
<g >
</g>
<g >
</g>
<g >
</g>
<g >
</g>
<g >
</g>
<g >
</g>
<g >
</g>
</g> 
</svg>
