<?xml version="1.0" standalone="no"?>
 <!DOCTYPE svg PUBLIC "-//W3C//DTD SVG 1.1//EN" 
 "http://www.w3.org/Graphics/SVG/1.1/DTD/svg11.dtd"> 
<svg
  xmlns:svg="http://www.w3.org/2000/svg"
  xmlns="http://www.w3.org/2000/svg"
  xmlns:xlink="http://www.w3.org/1999/xlink"
  version="1.1"
  width="30.510480cm" height="9.555480cm" viewBox="0 0 120120 37620">
<title>SVG Picture created as letItSlide case and plate making-brd.svg date 2021/09/22 14:04:29 </title>
  <desc>Picture generated by PCBNEW </desc>
<g style="fill:#000000; fill-opacity:1;stroke:#000000; stroke-opacity:1;
stroke-linecap:round; stroke-linejoin:round;"
 transform="translate(0 0) scale(1 1)">
</g>
<g style="fill:#000000; fill-opacity:0.0; 
stroke:#000000; stroke-width:-0.000393701; stroke-opacity:1; 
stroke-linecap:round; stroke-linejoin:round;">
</g>
<g style="fill:#000000; fill-opacity:0.0; 
stroke:#000000; stroke-width:47.2441; stroke-opacity:1; 
stroke-linecap:round; stroke-linejoin:round;">
<path d="M105005 12305
L105005 17817
" />
<path d="M105005 17817
L99493 17817
" />
<path d="M99493 17817
L99493 12305
" />
<path d="M99493 12305
L105005 12305
" />
<path d="M29180 12305
L34692 12305
" />
<path d="M34692 12305
L34692 17817
" />
<path d="M34692 17817
L29180 17817
" />
<path d="M29180 17817
L29180 12305
" />
<path d="M66681 12305
L72192 12305
" />
<path d="M72192 12305
L72192 17817
" />
<path d="M72192 17817
L66681 17817
" />
<path d="M66681 17817
L66681 12305
" />
<path d="M21680 12305
L27192 12305
" />
<path d="M27192 12305
L27192 17817
" />
<path d="M27192 17817
L21680 17817
" />
<path d="M21680 17817
L21680 12305
" />
<path d="M51681 12305
L57192 12305
" />
<path d="M57192 12305
L57192 17817
" />
<path d="M57192 17817
L51681 17817
" />
<path d="M51681 17817
L51681 12305
" />
<path d="M89181 12305
L94693 12305
" />
<path d="M94693 12305
L94693 17817
" />
<path d="M94693 17817
L89181 17817
" />
<path d="M89181 17817
L89181 12305
" />
<path d="M79806 4805
L85318 4805
" />
<path d="M85318 4805
L85318 10317
" />
<path d="M85318 10317
L79806 10317
" />
<path d="M79806 10317
L79806 4805
" />
<path d="M81681 12305
L87193 12305
" />
<path d="M87193 12305
L87193 17817
" />
<path d="M87193 17817
L81681 17817
" />
<path d="M81681 17817
L81681 12305
" />
<path d="M74181 12305
L79692 12305
" />
<path d="M79692 12305
L79692 17817
" />
<path d="M79692 17817
L74181 17817
" />
<path d="M74181 17817
L74181 12305
" />
<path d="M27305 4805
L32817 4805
" />
<path d="M32817 4805
L32817 10317
" />
<path d="M32817 10317
L27305 10317
" />
<path d="M27305 10317
L27305 4805
" />
<path d="M64806 4805
L70317 4805
" />
<path d="M70317 4805
L70317 10317
" />
<path d="M70317 10317
L64806 10317
" />
<path d="M64806 10317
L64806 4805
" />
<path d="M57306 4805
L62817 4805
" />
<path d="M62817 4805
L62817 10317
" />
<path d="M62817 10317
L57306 10317
" />
<path d="M57306 10317
L57306 4805
" />
<path d="M34806 4805
L40317 4805
" />
<path d="M40317 4805
L40317 10317
" />
<path d="M40317 10317
L34806 10317
" />
<path d="M34806 10317
L34806 4805
" />
<path d="M12305 4805
L17817 4805
" />
<path d="M17817 4805
L17817 10317
" />
<path d="M17817 10317
L12305 10317
" />
<path d="M12305 10317
L12305 4805
" />
<path d="M14180 12305
L19692 12305
" />
<path d="M19692 12305
L19692 17817
" />
<path d="M19692 17817
L14180 17817
" />
<path d="M14180 17817
L14180 12305
" />
<path d="M59181 12305
L64692 12305
" />
<path d="M64692 12305
L64692 17817
" />
<path d="M64692 17817
L59181 17817
" />
<path d="M59181 17817
L59181 12305
" />
<path d="M42306 4805
L47817 4805
" />
<path d="M47817 4805
L47817 10317
" />
<path d="M47817 10317
L42306 10317
" />
<path d="M42306 10317
L42306 4805
" />
<path d="M87306 4805
L92818 4805
" />
<path d="M92818 4805
L92818 10317
" />
<path d="M92818 10317
L87306 10317
" />
<path d="M87306 10317
L87306 4805
" />
<path d="M36681 12305
L42192 12305
" />
<path d="M42192 12305
L42192 17817
" />
<path d="M42192 17817
L36681 17817
" />
<path d="M36681 17817
L36681 12305
" />
<path d="M72306 4805
L77817 4805
" />
<path d="M77817 4805
L77817 10317
" />
<path d="M77817 10317
L72306 10317
" />
<path d="M72306 10317
L72306 4805
" />
<path d="M94806 4805
L100318 4805
" />
<path d="M100318 4805
L100318 10317
" />
<path d="M100318 10317
L94806 10317
" />
<path d="M94806 10317
L94806 4805
" />
<path d="M5743 12305
L11255 12305
" />
<path d="M11255 12305
L11255 17817
" />
<path d="M11255 17817
L5743 17817
" />
<path d="M5743 17817
L5743 12305
" />
<path d="M49806 4805
L55317 4805
" />
<path d="M55317 4805
L55317 10317
" />
<path d="M55317 10317
L49806 10317
" />
<path d="M49806 10317
L49806 4805
" />
<path d="M19805 4805
L25317 4805
" />
<path d="M25317 4805
L25317 10317
" />
<path d="M25317 10317
L19805 10317
" />
<path d="M19805 10317
L19805 4805
" />
<path d="M44181 12305
L49692 12305
" />
<path d="M49692 12305
L49692 17817
" />
<path d="M49692 17817
L44181 17817
" />
<path d="M44181 17817
L44181 12305
" />
<path d="M109806 27305
L115318 27305
" />
<path d="M115318 27305
L115318 32817
" />
<path d="M115318 32817
L109806 32817
" />
<path d="M109806 32817
L109806 27305
" />
<path d="M12305 27305
L17817 27305
" />
<path d="M17817 27305
L17817 32817
" />
<path d="M17817 32817
L12305 32817
" />
<path d="M12305 32817
L12305 27305
" />
<path d="M4805 27305
L10317 27305
" />
<path d="M10317 27305
L10317 32817
" />
<path d="M10317 32817
L4805 32817
" />
<path d="M4805 32817
L4805 27305
" />
<path d="M102306 19805
L107818 19805
" />
<path d="M107818 19805
L107818 25317
" />
<path d="M107818 25317
L102306 25317
" />
<path d="M102306 25317
L102306 19805
" />
<path d="M75118 27305
L80630 27305
" />
<path d="M80630 27305
L80630 32817
" />
<path d="M80630 32817
L75118 32817
" />
<path d="M75118 32817
L75118 27305
" />
<path d="M102306 4805
L107818 4805
" />
<path d="M107818 4805
L107818 10317
" />
<path d="M107818 10317
L102306 10317
" />
<path d="M102306 10317
L102306 4805
" />
<path d="M94806 27305
L100318 27305
" />
<path d="M100318 27305
L100318 32817
" />
<path d="M100318 32817
L94806 32817
" />
<path d="M94806 32817
L94806 27305
" />
<path d="M4805 4805
L10317 4805
" />
<path d="M10317 4805
L10317 10317
" />
<path d="M10317 10317
L4805 10317
" />
<path d="M4805 10317
L4805 4805
" />
<path d="M84493 27305
L90005 27305
" />
<path d="M90005 27305
L90005 32817
" />
<path d="M90005 32817
L84493 32817
" />
<path d="M84493 32817
L84493 27305
" />
<path d="M102306 27305
L107818 27305
" />
<path d="M107818 27305
L107818 32817
" />
<path d="M107818 32817
L102306 32817
" />
<path d="M102306 32817
L102306 27305
" />
<g >
</g>
<g >
</g>
<g >
</g>
<g >
</g>
<g >
</g>
<g >
</g>
<g >
</g>
<g >
</g>
<g >
</g>
<g >
</g>
<g >
</g>
<g >
</g>
<g >
</g>
<g >
</g>
<g >
</g>
<g >
</g>
<g >
</g>
<g >
</g>
<g >
</g>
<g >
</g>
<g >
</g>
<g >
</g>
<g >
</g>
<g >
</g>
<g >
</g>
<g >
</g>
<g >
</g>
<g >
</g>
<g >
</g>
<g >
</g>
<g >
</g>
<g >
</g>
<g >
</g>
<g >
</g>
<g >
</g>
<g >
</g>
<g >
</g>
<g >
</g>
<g >
</g>
<g >
</g>
<g >
</g>
<g >
</g>
<g >
</g>
<g >
</g>
<g >
</g>
<g >
</g>
<g >
</g>
<g >
</g>
<g >
</g>
<g >
</g>
<g >
</g>
<g >
</g>
<g >
</g>
<g >
</g>
<g >
</g>
<g >
</g>
<g >
</g>
<g >
</g>
<g >
</g>
<g >
</g>
<g >
</g>
<g >
</g>
<g >
</g>
<g >
</g>
<g >
</g>
<g >
</g>
<g >
</g>
<g >
</g>
<g >
</g>
<g >
</g>
<g >
</g>
<g >
</g>
<g >
</g>
<g >
</g>
<g >
</g>
<g >
</g>
<g >
</g>
<g >
</g>
<g >
</g>
<g >
</g>
<g >
</g>
<g >
</g>
<g >
</g>
<g >
</g>
<g >
</g>
<g >
</g>
<g >
</g>
<g >
</g>
<g >
</g>
<g >
</g>
<g >
</g>
<g >
</g>
<g >
</g>
<g >
</g>
<g >
</g>
<g >
</g>
<g >
</g>
<g >
</g>
<g >
</g>
<g >
</g>
<g >
</g>
<g >
</g>
<g >
</g>
<g >
</g>
<g >
</g>
<g >
</g>
<g >
</g>
<g >
</g>
<g >
</g>
<g >
</g>
<g >
</g>
<g >
</g>
<g >
</g>
<g >
</g>
<g >
</g>
<g >
</g>
<g >
</g>
<g >
</g>
<g >
</g>
</g>
<g style="fill:#000000; fill-opacity:0.0; 
stroke:#000000; stroke-width:47.2441; stroke-opacity:1; 
stroke-linecap:round; stroke-linejoin:round;">
</g>
<g style="fill:#000000; fill-opacity:0.0; 
stroke:#000000; stroke-width:19.685; stroke-opacity:1; 
stroke-linecap:round; stroke-linejoin:round;">
<path d="M90943 19805
L90943 25317
" />
<path d="M16055 25317
L16055 19805
" />
<path d="M90943 25317
L16055 25317
" />
<path d="M16055 19805
L90943 19805
" />
<path d="M110695 3007
L110695 26786
" />
<path d="M471 34925
L3418 31983
" />
<path d="M110695 26786
L114400 26786
" />
<path d="M110695 3007
L114400 3007
" />
<path d="M104621 2360
L4597 2360
" />
<path d="M114400 3007
L114400 26786
" />
<path d="M119653 2698.2 A1574.8 1574.8 0.0 0 0 117426 471.092" />
<path d="M117425 37152
L114479 34205
" />
<path d="M2698.24 471.092 A1574.8 1574.8 0.0 0 0 471.13 2698.2" />
<path d="M119652 2698
L116705 5645
" />
<path d="M119652 34925
L116705 31983
" />
<path d="M2698 471
L4597 2360
" />
<path d="M471 2698
L3418 5645
" />
<path d="M117426 37152.5 A1574.8 1574.8 0.0 0 0 119653 34925.4" />
<path d="M471.092 34925.8 A1574.8 1574.8 0.0 0 0 2698.2 37152.9" />
<path d="M2698 37152
L5660 34205
" />
<circle cx="118539" cy="36039" r="1023.62" /> 
<circle cx="118539" cy="1584.65" r="1023.62" /> 
<path d="M114479 34205
L5660 34205
" />
<path d="M3418 31983
L3418 5645
" />
<circle cx="1584.68" cy="1584.65" r="1023.62" /> 
<circle cx="1584.65" cy="36039.3" r="1023.62" /> 
<path d="M116705 31983
L116705 5645
" />
<path d="M27305 32817
L72192 32817
" />
<path d="M72192 32817
L72192 27305
" />
<path d="M6680 19805
L6680 25317
" />
<path d="M13130 19805
L6680 19805
" />
<path d="M27305 27305
L27305 32817
" />
<path d="M99380 19805
L92931 19805
" />
<path d="M92931 25317
L99380 25317
" />
<path d="M92931 19805
L92931 25317
" />
<path d="M6680 25317
L13130 25317
" />
<path d="M19805 32817
L19805 27305
" />
<path d="M99380 25317
L99380 19805
" />
<path d="M26255 27305
L26255 32817
" />
<path d="M72192 27305
L27305 27305
" />
<path d="M26255 32817
L19805 32817
" />
<path d="M13130 25317
L13130 19805
" />
<path d="M19805 27305
L26255 27305
" />
<path d="M104621 2360.43 A98.4252 98.4252 0.0 0 0 104719 2262.01" />
<path d="M104719 569
L104719 2262
" />
<path d="M117425 471
L104817 471
" />
<path d="M104818 471.092 A98.4252 98.4252 0.0 0 0 104719 569.517" />
<g >
</g>
<g >
</g>
<g >
</g>
<g >
</g>
<g >
</g>
<g >
</g>
<g >
</g>
<g >
</g>
<g >
</g>
<g >
</g>
<g >
</g>
<g >
</g>
<g >
</g>
<g >
</g>
<g >
</g>
<g >
</g>
<g >
</g>
<g >
</g>
<g >
</g>
<g >
</g>
<g >
</g>
<g >
</g>
<g >
</g>
<g >
</g>
<g >
</g>
<g >
</g>
<g >
</g>
<g >
</g>
<g >
</g>
<g >
</g>
<g >
</g>
<g >
</g>
<g >
</g>
<g >
</g>
<g >
</g>
<g >
</g>
<g >
</g>
<g >
</g>
<g >
</g>
<g >
</g>
<g >
</g>
<g >
</g>
<g >
</g>
<g >
</g>
<g >
</g>
<g >
</g>
<g >
</g>
<g >
</g>
<g >
</g>
<g >
</g>
<g >
</g>
<g >
</g>
<g >
</g>
<g >
</g>
<g >
</g>
<g >
</g>
<g >
</g>
<g >
</g>
<g >
</g>
<g >
</g>
<g >
</g>
<g >
</g>
<g >
</g>
<g >
</g>
<g >
</g>
<g >
</g>
<g >
</g>
<g >
</g>
<g >
</g>
<g >
</g>
<g >
</g>
<g >
</g>
<g >
</g>
<g >
</g>
<g >
</g>
<g >
</g>
<g >
</g>
<g >
</g>
<g >
</g>
<g >
</g>
<g >
</g>
<g >
</g>
<g >
</g>
<g >
</g>
<g >
</g>
<g >
</g>
<g >
</g>
<g >
</g>
<g >
</g>
<g >
</g>
<g >
</g>
<g >
</g>
<g >
</g>
<g >
</g>
<g >
</g>
<g >
</g>
<g >
</g>
<g >
</g>
<g >
</g>
<g >
</g>
<g >
</g>
<g >
</g>
<g >
</g>
<g >
</g>
<g >
</g>
<g >
</g>
<g >
</g>
<g >
</g>
<g >
</g>
<g >
</g>
<g >
</g>
<g >
</g>
<g >
</g>
<g >
</g>
<g >
</g>
<g >
</g>
<g >
</g>
<g >
</g>
<g >
</g>
</g> 
</svg>
